<svg width="48" height="48" viewBox="0 0 48 48" fill="none" xmlns="http://www.w3.org/2000/svg">
<rect width="48" height="48" rx="24" fill="#F9F9FA"/>
<rect x="0.5" y="0.5" width="47" height="47" rx="23.5" stroke="#919295" stroke-opacity="0.2"/>
<path d="M34.5 25.9978C34.5 27.5081 34.2028 28.8 33.6403 29.7328C32.9438 30.8887 31.8591 31.5 30.51 31.5C27.8906 31.5 26.0306 28.0312 24.0619 24.3544C22.4663 21.375 20.6578 18 18.9375 18C18.0581 18 17.0681 18.9375 16.2891 20.5003C15.4604 22.2157 15.0202 24.0928 15 25.9978C15 27.2353 15.2231 28.2591 15.645 28.9584C16.0669 29.6578 16.6706 30 17.49 30C18.9075 30 20.3822 27.6994 21.6366 25.4484C21.7335 25.2744 21.8957 25.146 22.0873 25.0915C22.2789 25.037 22.4844 25.0608 22.6584 25.1578C22.8325 25.2548 22.9609 25.4169 23.0154 25.6086C23.0699 25.8002 23.046 26.0056 22.9491 26.1797C21.5119 28.7541 19.7878 31.5 17.49 31.5C16.1391 31.5 15.0525 30.8887 14.3597 29.7328C13.7972 28.7953 13.5 27.5081 13.5 25.9978C13.5221 23.8611 14.0157 21.7557 14.9456 19.8319C16.0144 17.6831 17.4319 16.5 18.9375 16.5C21.5569 16.5 23.4159 19.9688 25.3856 23.6456C26.9803 26.625 28.7887 30 30.51 30C31.3294 30 31.9331 29.6597 32.355 28.9584C32.7769 28.2572 33 27.2353 33 25.9978C32.9801 24.0929 32.5402 22.2158 31.7119 20.5003C30.9375 18.9375 29.9428 18 29.0625 18C28.2788 18 27.405 18.7012 26.3897 20.145C26.3338 20.2276 26.2621 20.2981 26.1786 20.3527C26.0952 20.4072 26.0017 20.4445 25.9037 20.4625C25.8056 20.4804 25.705 20.4787 25.6077 20.4573C25.5103 20.4359 25.4182 20.3954 25.3367 20.338C25.2552 20.2806 25.186 20.2075 25.133 20.1231C25.0801 20.0386 25.0445 19.9445 25.0284 19.8461C25.0122 19.7478 25.0159 19.6472 25.0391 19.5502C25.0623 19.4533 25.1045 19.362 25.1634 19.2816C26.0072 18.0872 27.3197 16.5 29.0625 16.5C30.5672 16.5 31.9847 17.6831 33.0534 19.8319C33.9837 21.7556 34.4776 23.8611 34.5 25.9978Z" fill="#5F6065"/>
</svg>
