<svg width="48" height="48" viewBox="0 0 48 48" fill="none" xmlns="http://www.w3.org/2000/svg">
<rect width="48" height="48" rx="24" fill="#F9F9FA"/>
<rect x="0.5" y="0.5" width="47" height="47" rx="23.5" stroke="#919295" stroke-opacity="0.2"/>
<path d="M35.0308 19.2806L32.2277 22.0837C31.6614 28.6481 26.1255 33.7499 19.5002 33.7499C18.1389 33.7499 17.0167 33.5343 16.1645 33.1087C15.4774 32.7646 15.1961 32.3962 15.1258 32.2912C15.0631 32.1972 15.0225 32.0902 15.0069 31.9782C14.9914 31.8663 15.0013 31.7523 15.036 31.6448C15.0707 31.5372 15.1293 31.4389 15.2074 31.3572C15.2854 31.2754 15.3809 31.2124 15.4867 31.1727C15.5111 31.1634 17.7592 30.2999 19.187 28.6565C18.3952 28.0055 17.704 27.241 17.1358 26.3877C15.9733 24.6618 14.672 21.6637 15.0733 17.1834C15.086 17.041 15.1391 16.9052 15.2264 16.7921C15.3137 16.6789 15.4315 16.593 15.566 16.5445C15.7005 16.4961 15.846 16.487 15.9854 16.5185C16.1248 16.55 16.2524 16.6206 16.353 16.7221C16.3858 16.7549 19.473 19.8252 23.2474 20.8209V20.2499C23.2459 19.6512 23.3643 19.0583 23.5955 18.5061C23.8267 17.9538 24.1661 17.4534 24.5936 17.0343C25.0088 16.6197 25.5029 16.2924 26.0466 16.0718C26.5904 15.8512 27.1728 15.7418 27.7595 15.7499C28.5466 15.7577 29.3183 15.969 29.9996 16.3633C30.6808 16.7575 31.2485 17.3214 31.6474 17.9999H34.5002C34.6486 17.9998 34.7937 18.0437 34.9172 18.1261C35.0406 18.2085 35.1368 18.3257 35.1936 18.4628C35.2505 18.6 35.2653 18.7509 35.2363 18.8964C35.2073 19.042 35.1358 19.1757 35.0308 19.2806Z" fill="#5F6065"/>
</svg>
