<svg width="48" height="48" viewBox="0 0 48 48" fill="none" xmlns="http://www.w3.org/2000/svg">
<rect width="48" height="48" rx="24" fill="#F9F9FA"/>
<rect x="0.5" y="0.5" width="47" height="47" rx="23.5" stroke="#919295" stroke-opacity="0.2"/>
<path d="M33.9684 18.5175C33.8801 18.1719 33.7109 17.8522 33.4747 17.5849C33.2385 17.3176 32.9421 17.1102 32.61 16.98C29.3962 15.7388 24.2812 15.75 24 15.75C23.7188 15.75 18.6037 15.7388 15.39 16.98C15.0579 17.1102 14.7615 17.3176 14.5253 17.5849C14.2891 17.8522 14.1199 18.1719 14.0316 18.5175C13.7888 19.4531 13.5 21.1631 13.5 24C13.5 26.8369 13.7888 28.5469 14.0316 29.4825C14.1198 29.8283 14.289 30.1481 14.5252 30.4156C14.7614 30.6831 15.0578 30.8906 15.39 31.0209C18.4688 32.2088 23.2875 32.25 23.9381 32.25H24.0619C24.7125 32.25 29.5341 32.2088 32.61 31.0209C32.9422 30.8906 33.2386 30.6831 33.4748 30.4156C33.711 30.1481 33.8802 29.8283 33.9684 29.4825C34.2113 28.545 34.5 26.8369 34.5 24C34.5 21.1631 34.2113 19.4531 33.9684 18.5175ZM27.2081 24.3122L22.7081 27.3122C22.6516 27.3499 22.586 27.3715 22.5181 27.3748C22.4503 27.3781 22.3829 27.3629 22.323 27.3309C22.2631 27.2988 22.2131 27.2511 22.1782 27.1928C22.1434 27.1346 22.125 27.0679 22.125 27V21C22.125 20.9321 22.1434 20.8655 22.1782 20.8072C22.2131 20.7489 22.2631 20.7012 22.323 20.6692C22.3829 20.6371 22.4503 20.6219 22.5181 20.6252C22.586 20.6285 22.6516 20.6501 22.7081 20.6878L27.2081 23.6878C27.2596 23.722 27.3017 23.7685 27.3309 23.8229C27.3601 23.8774 27.3754 23.9382 27.3754 24C27.3754 24.0618 27.3601 24.1226 27.3309 24.1771C27.3017 24.2315 27.2596 24.278 27.2081 24.3122Z" fill="#5F6065"/>
</svg>
