<svg width="138" height="138" viewBox="0 0 138 138" fill="none" xmlns="http://www.w3.org/2000/svg">
<g filter="url(#filter0_d_17131_487)">
<rect x="17" y="19" width="96" height="96" rx="48" fill="white"/>
<path d="M86 67C86.0012 67.5093 85.8707 68.0103 85.6209 68.4542C85.3712 68.898 85.0109 69.2698 84.575 69.5331L57.56 86.0594C57.1045 86.3383 56.5829 86.4905 56.0489 86.5004C55.5149 86.5103 54.988 86.3775 54.5225 86.1156C54.0615 85.8579 53.6774 85.4819 53.4098 85.0265C53.1422 84.5711 53.0008 84.0526 53 83.5244V50.4756C53.0008 49.9474 53.1422 49.429 53.4098 48.9735C53.6774 48.5181 54.0615 48.1422 54.5225 47.8844C54.988 47.6225 55.5149 47.4897 56.0489 47.4996C56.5829 47.5095 57.1045 47.6617 57.56 47.9406L84.575 64.4669C85.0109 64.7303 85.3712 65.102 85.6209 65.5459C85.8707 65.9898 86.0012 66.4907 86 67Z" fill="#3B68FF"/>
</g>
<defs>
<filter id="filter0_d_17131_487" x="0" y="0" width="138" height="138" filterUnits="userSpaceOnUse" color-interpolation-filters="sRGB">
<feFlood flood-opacity="0" result="BackgroundImageFix"/>
<feColorMatrix in="SourceAlpha" type="matrix" values="0 0 0 0 0 0 0 0 0 0 0 0 0 0 0 0 0 0 127 0" result="hardAlpha"/>
<feMorphology radius="1" operator="dilate" in="SourceAlpha" result="effect1_dropShadow_17131_487"/>
<feOffset dx="4" dy="2"/>
<feGaussianBlur stdDeviation="10"/>
<feComposite in2="hardAlpha" operator="out"/>
<feColorMatrix type="matrix" values="0 0 0 0 0.580392 0 0 0 0 0.580392 0 0 0 0 0.580392 0 0 0 0.06 0"/>
<feBlend mode="normal" in2="BackgroundImageFix" result="effect1_dropShadow_17131_487"/>
<feBlend mode="normal" in="SourceGraphic" in2="effect1_dropShadow_17131_487" result="shape"/>
</filter>
</defs>
</svg>
