<svg width="64" height="64" viewBox="0 0 64 64" fill="none" xmlns="http://www.w3.org/2000/svg">
<rect x="0.5" y="0.5" width="63" height="63" rx="7.5" fill="#3B68FF"/>
<rect x="0.5" y="0.5" width="63" height="63" rx="7.5" stroke="#6286FF"/>
<path d="M43.7338 26.395C45.1215 29.2973 45.3849 32.6107 44.4733 35.6957C43.5616 38.7808 41.5395 41.4188 38.7972 43.1006C36.055 44.7825 32.7869 45.3889 29.6238 44.8029C26.4607 44.2169 23.6268 42.4799 21.669 39.9274C19.7112 37.3748 18.7683 34.1874 19.0223 30.9805C19.2764 27.7737 20.7093 24.7745 23.0446 22.562C25.3798 20.3495 28.4518 19.0804 31.6678 18.9997C34.8837 18.919 38.0155 20.0324 40.4588 22.125L43.2926 19.29C43.4802 19.1024 43.7347 18.997 44.0001 18.997C44.2654 18.997 44.5199 19.1024 44.7076 19.29C44.8952 19.4776 45.0006 19.7321 45.0006 19.9975C45.0006 20.2629 44.8952 20.5174 44.7076 20.705L32.7076 32.705C32.5199 32.8927 32.2654 32.9981 32.0001 32.9981C31.7347 32.9981 31.4802 32.8927 31.2926 32.705C31.1049 32.5174 30.9995 32.2629 30.9995 31.9975C30.9995 31.7321 31.1049 31.4776 31.2926 31.29L34.7576 27.825C33.8185 27.204 32.6973 26.918 31.5755 27.0134C30.4537 27.1089 29.397 27.5801 28.5763 28.3509C27.7557 29.1217 27.2192 30.1469 27.0537 31.2605C26.8882 32.3741 27.1034 33.511 27.6645 34.4871C28.2255 35.4632 29.0996 36.2214 30.1451 36.6389C31.1907 37.0564 32.3466 37.1089 33.4257 36.7877C34.5047 36.4666 35.4438 35.7906 36.091 34.8693C36.7381 33.948 37.0553 32.8353 36.9913 31.7113C36.9839 31.5799 37.0025 31.4484 37.0459 31.3243C37.0893 31.2001 37.1568 31.0858 37.2444 30.9877C37.3321 30.8896 37.4382 30.8097 37.5567 30.7527C37.6752 30.6956 37.8037 30.6624 37.9351 30.655C38.2003 30.6401 38.4606 30.7311 38.6586 30.9081C38.7567 30.9958 38.8366 31.1019 38.8937 31.2204C38.9507 31.3389 38.9839 31.4674 38.9913 31.5988C39.0825 33.1897 38.6281 34.7642 37.7032 36.0619C36.7783 37.3596 35.4383 38.3029 33.9046 38.7359C32.371 39.1689 30.7355 39.0656 29.2686 38.4431C27.8016 37.8207 26.5909 36.7163 25.8366 35.3125C25.0823 33.9088 24.8296 32.2897 25.1201 30.7228C25.4107 29.1559 26.2272 27.7351 27.4347 26.6952C28.6422 25.6552 30.1684 25.0584 31.761 25.0034C33.3537 24.9484 34.9174 25.4384 36.1938 26.3925L39.0376 23.5488C36.9536 21.8185 34.3038 20.9192 31.5971 21.0236C28.8905 21.128 26.3178 22.2287 24.3733 24.1143C22.4288 26 21.2494 28.5376 21.0619 31.2397C20.8743 33.9419 21.6917 36.6181 23.357 38.7543C25.0224 40.8905 27.4182 42.3361 30.0845 42.8135C32.7508 43.2909 35.4994 42.7663 37.8025 41.3406C40.1056 39.9149 41.8007 37.6886 42.5623 35.0892C43.3239 32.4898 43.0983 29.7007 41.9288 27.2575C41.8144 27.0182 41.7998 26.7432 41.8882 26.493C41.9766 26.2429 42.1607 26.0381 42.4001 25.9238C42.6394 25.8094 42.9144 25.7948 43.1645 25.8832C43.4147 25.9715 43.6194 26.1557 43.7338 26.395Z" fill="white"/>
</svg>
