<svg width="64" height="64" viewBox="0 0 64 64" fill="none" xmlns="http://www.w3.org/2000/svg">
<rect x="0.5" y="0.5" width="63" height="63" rx="7.5" fill="#3B68FF"/>
<rect x="0.5" y="0.5" width="63" height="63" rx="7.5" stroke="#6286FF"/>
<path d="M41.2362 22.8325C40.04 21.6242 38.6172 20.6638 37.0492 20.0061C35.4813 19.3485 33.799 19.0066 32.0987 19H32C28.5522 19 25.2456 20.3696 22.8076 22.8076C20.3696 25.2456 19 28.5522 19 32V39C19 39.7956 19.3161 40.5587 19.8787 41.1213C20.4413 41.6839 21.2044 42 22 42H24C24.7956 42 25.5587 41.6839 26.1213 41.1213C26.6839 40.5587 27 39.7956 27 39V34C27 33.2044 26.6839 32.4413 26.1213 31.8787C25.5587 31.3161 24.7956 31 24 31H21.045C21.2379 28.9149 22.021 26.928 23.3028 25.2721C24.5845 23.6163 26.3117 22.36 28.2819 21.6507C30.2521 20.9414 32.3836 20.8083 34.4267 21.2671C36.4698 21.726 38.3398 22.7576 39.8175 24.2413C41.6236 26.0566 42.7345 28.4488 42.9562 31H40C39.2044 31 38.4413 31.3161 37.8787 31.8787C37.3161 32.4413 37 33.2044 37 34V39C37 39.7956 37.3161 40.5587 37.8787 41.1213C38.4413 41.6839 39.2044 42 40 42H43C43 42.7956 42.6839 43.5587 42.1213 44.1213C41.5587 44.6839 40.7956 45 40 45H33C32.7348 45 32.4804 45.1054 32.2929 45.2929C32.1054 45.4804 32 45.7348 32 46C32 46.2652 32.1054 46.5196 32.2929 46.7071C32.4804 46.8946 32.7348 47 33 47H40C41.3261 47 42.5979 46.4732 43.5355 45.5355C44.4732 44.5979 45 43.3261 45 42V32C45.0065 30.2995 44.6774 28.6144 44.0316 27.0412C43.3857 25.4681 42.4358 24.0379 41.2362 22.8325ZM24 33C24.2652 33 24.5196 33.1054 24.7071 33.2929C24.8946 33.4804 25 33.7348 25 34V39C25 39.2652 24.8946 39.5196 24.7071 39.7071C24.5196 39.8946 24.2652 40 24 40H22C21.7348 40 21.4804 39.8946 21.2929 39.7071C21.1054 39.5196 21 39.2652 21 39V33H24ZM40 40C39.7348 40 39.4804 39.8946 39.2929 39.7071C39.1054 39.5196 39 39.2652 39 39V34C39 33.7348 39.1054 33.4804 39.2929 33.2929C39.4804 33.1054 39.7348 33 40 33H43V40H40Z" fill="white"/>
</svg>
