<svg width="64" height="64" viewBox="0 0 64 64" fill="none" xmlns="http://www.w3.org/2000/svg">
<rect x="0.5" y="0.5" width="63" height="63" rx="7.5" fill="#3B68FF"/>
<rect x="0.5" y="0.5" width="63" height="63" rx="7.5" stroke="#6286FF"/>
<path d="M37 32C37 32.2652 36.8946 32.5196 36.7071 32.7071C36.5196 32.8946 36.2652 33 36 33H28C27.7348 33 27.4804 32.8946 27.2929 32.7071C27.1054 32.5196 27 32.2652 27 32C27 31.7348 27.1054 31.4804 27.2929 31.2929C27.4804 31.1054 27.7348 31 28 31H36C36.2652 31 36.5196 31.1054 36.7071 31.2929C36.8946 31.4804 37 31.7348 37 32ZM36 35H28C27.7348 35 27.4804 35.1054 27.2929 35.2929C27.1054 35.4804 27 35.7348 27 36C27 36.2652 27.1054 36.5196 27.2929 36.7071C27.4804 36.8946 27.7348 37 28 37H36C36.2652 37 36.5196 36.8946 36.7071 36.7071C36.8946 36.5196 37 36.2652 37 36C37 35.7348 36.8946 35.4804 36.7071 35.2929C36.5196 35.1054 36.2652 35 36 35ZM43 22V41C43 42.0609 42.5786 43.0783 41.8284 43.8284C41.0783 44.5786 40.0609 45 39 45H25C23.9391 45 22.9217 44.5786 22.1716 43.8284C21.4214 43.0783 21 42.0609 21 41V22C21 21.4696 21.2107 20.9609 21.5858 20.5858C21.9609 20.2107 22.4696 20 23 20H25V19C25 18.7348 25.1054 18.4804 25.2929 18.2929C25.4804 18.1054 25.7348 18 26 18C26.2652 18 26.5196 18.1054 26.7071 18.2929C26.8946 18.4804 27 18.7348 27 19V20H31V19C31 18.7348 31.1054 18.4804 31.2929 18.2929C31.4804 18.1054 31.7348 18 32 18C32.2652 18 32.5196 18.1054 32.7071 18.2929C32.8946 18.4804 33 18.7348 33 19V20H37V19C37 18.7348 37.1054 18.4804 37.2929 18.2929C37.4804 18.1054 37.7348 18 38 18C38.2652 18 38.5196 18.1054 38.7071 18.2929C38.8946 18.4804 39 18.7348 39 19V20H41C41.5304 20 42.0391 20.2107 42.4142 20.5858C42.7893 20.9609 43 21.4696 43 22ZM41 22H39V23C39 23.2652 38.8946 23.5196 38.7071 23.7071C38.5196 23.8946 38.2652 24 38 24C37.7348 24 37.4804 23.8946 37.2929 23.7071C37.1054 23.5196 37 23.2652 37 23V22H33V23C33 23.2652 32.8946 23.5196 32.7071 23.7071C32.5196 23.8946 32.2652 24 32 24C31.7348 24 31.4804 23.8946 31.2929 23.7071C31.1054 23.5196 31 23.2652 31 23V22H27V23C27 23.2652 26.8946 23.5196 26.7071 23.7071C26.5196 23.8946 26.2652 24 26 24C25.7348 24 25.4804 23.8946 25.2929 23.7071C25.1054 23.5196 25 23.2652 25 23V22H23V41C23 41.5304 23.2107 42.0391 23.5858 42.4142C23.9609 42.7893 24.4696 43 25 43H39C39.5304 43 40.0391 42.7893 40.4142 42.4142C40.7893 42.0391 41 41.5304 41 41V22Z" fill="white"/>
</svg>
