<svg width="133" height="32" viewBox="0 0 133 32" fill="none" xmlns="http://www.w3.org/2000/svg">
<g clip-path="url(#clip0_2_5574)">
<path d="M40.1167 22.8864H49.4674V20.0766H43.4401V9.49323H40.1167V22.8864Z" fill="#B5B6B8"/>
<path d="M55.0073 21.0132C53.6742 21.0132 52.9795 19.8519 52.9795 18.1098C52.9795 16.3678 53.6742 15.1877 55.0073 15.1877C56.3405 15.1877 57.054 16.3678 57.054 18.1098C57.054 19.8519 56.3405 21.0132 55.0073 21.0132ZM55.0261 23.1861C58.1242 23.1861 60.1521 20.9945 60.1521 18.1098C60.1521 15.2251 58.1242 13.0335 55.0261 13.0335C51.9468 13.0335 49.8813 15.2251 49.8813 18.1098C49.8813 20.9945 51.9468 23.1861 55.0261 23.1861Z" fill="#B5B6B8"/>
<path d="M65.5144 26.2019C66.9414 26.2019 68.1995 25.8835 69.0444 25.1342C69.8142 24.4411 70.3212 23.3922 70.3212 21.9498V13.2958H67.3921V14.326H67.3545C66.7912 13.5206 65.9275 13.0148 64.6507 13.0148C62.2661 13.0148 60.6138 15.0004 60.6138 17.8101C60.6138 20.751 62.6229 22.3619 64.7821 22.3619C65.9463 22.3619 66.6786 21.8936 67.2419 21.2568H67.317V22.2121C67.317 23.3734 66.7725 24.0478 65.4769 24.0478C64.4629 24.0478 63.956 23.6169 63.787 23.1112H60.8203C61.1207 25.1155 62.8669 26.2019 65.5144 26.2019ZM65.4957 20.0954C64.3503 20.0954 63.5992 19.1588 63.5992 17.7165C63.5992 16.2554 64.3503 15.3188 65.4957 15.3188C66.7725 15.3188 67.4484 16.4052 67.4484 17.6977C67.4484 19.0464 66.8288 20.0954 65.4957 20.0954Z" fill="#B5B6B8"/>
<path d="M76.3447 21.0132C75.0116 21.0132 74.3169 19.8519 74.3169 18.1098C74.3169 16.3678 75.0116 15.1877 76.3447 15.1877C77.6779 15.1877 78.391 16.3678 78.391 18.1098C78.391 19.8519 77.6779 21.0132 76.3447 21.0132ZM76.3635 23.1861C79.4613 23.1861 81.4892 20.9945 81.4892 18.1098C81.4892 15.2251 79.4613 13.0335 76.3635 13.0335C73.2842 13.0335 71.2188 15.2251 71.2188 18.1098C71.2188 20.9945 73.2842 23.1861 76.3635 23.1861Z" fill="#B5B6B8"/>
<path d="M82.3828 22.8864H85.4434V13.2958H82.3828V22.8864ZM82.3828 11.9658H85.4434V9.49323H82.3828V11.9658Z" fill="#B5B6B8"/>
<path d="M86.7715 26.0521H89.832V21.8936H89.8696C90.4704 22.6991 91.3529 23.1861 92.5922 23.1861C95.1082 23.1861 96.7793 21.2006 96.7793 18.0911C96.7793 15.2064 95.2209 13.0148 92.6673 13.0148C91.3529 13.0148 90.4141 13.5955 89.7569 14.4571H89.7006V13.2958H86.7715V26.0521ZM91.8036 20.8259C90.4892 20.8259 89.7382 19.7582 89.7382 18.2035C89.7382 16.6488 90.4141 15.4687 91.7472 15.4687C93.0616 15.4687 93.6812 16.5551 93.6812 18.2035C93.6812 19.8331 92.9677 20.8259 91.8036 20.8259Z" fill="#B5B6B8"/>
<path d="M101.762 23.1861C104.278 23.1861 106.137 22.0997 106.137 20.0017C106.137 17.5479 104.147 17.117 102.457 16.8361C101.237 16.6113 100.147 16.5176 100.147 15.8433C100.147 15.2439 100.73 14.9629 101.481 14.9629C102.326 14.9629 102.908 15.2251 103.02 16.0868H105.837C105.687 14.1949 104.222 13.0148 101.499 13.0148C99.2274 13.0148 97.3498 14.0638 97.3498 16.0868C97.3498 18.3346 99.1336 18.7842 100.805 19.0651C102.081 19.2899 103.246 19.3836 103.246 20.2452C103.246 20.8634 102.664 21.2006 101.743 21.2006C100.73 21.2006 100.091 20.7323 99.9785 19.7769H97.0869C97.1808 21.8936 98.9458 23.1861 101.762 23.1861Z" fill="#B5B6B8"/>
<path d="M110.294 23.1674C111.627 23.1674 112.472 22.6429 113.167 21.7063H113.223V22.8864H116.153V13.2958H113.092V18.653C113.092 19.7957 112.454 20.5824 111.402 20.5824C110.426 20.5824 109.956 20.0017 109.956 18.9528V13.2958H106.915V19.5896C106.915 21.725 108.079 23.1674 110.294 23.1674Z" fill="#B5B6B8"/>
<path d="M117.484 22.8864H120.545V17.5104C120.545 16.3678 121.108 15.5623 122.066 15.5623C122.986 15.5623 123.418 16.1617 123.418 17.192V22.8864H126.478V17.5104C126.478 16.3678 127.023 15.5623 127.999 15.5623C128.919 15.5623 129.351 16.1617 129.351 17.192V22.8864H132.412V16.6488C132.412 14.4946 131.323 13.0148 129.145 13.0148C127.905 13.0148 126.873 13.5393 126.122 14.7007H126.084C125.596 13.6704 124.638 13.0148 123.38 13.0148C121.991 13.0148 121.071 13.6704 120.47 14.6632H120.414V13.2958H117.484V22.8864Z" fill="#B5B6B8"/>
<path fill-rule="evenodd" clip-rule="evenodd" d="M15.7261 31.4718C24.3678 31.4718 31.3732 24.483 31.3732 15.862C31.3732 7.24101 24.3678 0.252289 15.7261 0.252289C7.08452 0.252289 0.0791016 7.24101 0.0791016 15.862C0.0791016 24.483 7.08452 31.4718 15.7261 31.4718ZM18.1413 12.3128C19.475 10.9822 19.475 8.82482 18.1413 7.49417C16.8074 6.16353 14.6449 6.16353 13.3111 7.49417C11.9773 8.82482 11.9773 10.9822 13.3111 12.3128L15.7261 14.7221L18.1413 12.3128ZM19.2839 18.2714C20.6177 19.602 22.7802 19.602 24.114 18.2714C25.4478 16.9407 25.4478 14.7834 24.114 13.4527C22.7802 12.1221 20.6177 12.1221 19.2839 13.4527L16.8688 15.8621L19.2839 18.2714ZM18.1413 24.2299C19.475 22.8993 19.475 20.7419 18.1413 19.4113L15.7261 17.002L13.3111 19.4113C11.9773 20.7419 11.9773 22.8993 13.3111 24.2299C14.6449 25.5606 16.8074 25.5606 18.1413 24.2299ZM7.33826 18.2714C6.00448 16.9407 6.00448 14.7834 7.33826 13.4527C8.67212 12.1221 10.8346 12.1221 12.1685 13.4527L14.5835 15.8621L12.1685 18.2714C10.8346 19.602 8.67212 19.602 7.33826 18.2714Z" fill="#B5B6B8"/>
</g>
<defs>
<clipPath id="clip0_2_5574">
<rect width="133" height="32" fill="white"/>
</clipPath>
</defs>
</svg>
