<svg width="131" height="32" viewBox="0 0 131 32" fill="none" xmlns="http://www.w3.org/2000/svg">
<g clip-path="url(#clip0_2_5585)">
<path d="M38.4248 22.597H47.7445V19.7872H41.7372V9.20383H38.4248V22.597Z" fill="#B5B6B8"/>
<path d="M53.2657 20.7238C51.937 20.7238 51.2446 19.5625 51.2446 17.8204C51.2446 16.0784 51.937 14.8983 53.2657 14.8983C54.5945 14.8983 55.3056 16.0784 55.3056 17.8204C55.3056 19.5625 54.5945 20.7238 53.2657 20.7238ZM53.2845 22.8967C56.3723 22.8967 58.3935 20.7051 58.3935 17.8204C58.3935 14.9357 56.3723 12.7441 53.2845 12.7441C50.2153 12.7441 48.1567 14.9357 48.1567 17.8204C48.1567 20.7051 50.2153 22.8967 53.2845 22.8967Z" fill="#B5B6B8"/>
<path d="M63.7389 25.9125C65.1612 25.9125 66.4151 25.5941 67.2572 24.8448C68.0245 24.1517 68.5298 23.1027 68.5298 21.6604V13.0063H65.6104V14.0366H65.5729C65.0115 13.2311 64.1506 12.7254 62.8781 12.7254C60.5014 12.7254 58.8545 14.7109 58.8545 17.5207C58.8545 20.4616 60.8569 22.0725 63.0091 22.0725C64.1694 22.0725 64.8992 21.6042 65.4606 20.9673H65.5355V21.9226C65.5355 23.084 64.9928 23.7583 63.7015 23.7583C62.6909 23.7583 62.1856 23.3275 62.0172 22.8218H59.0603C59.3598 24.8261 61.1002 25.9125 63.7389 25.9125ZM63.7202 19.806C62.5786 19.806 61.8301 18.8694 61.8301 17.427C61.8301 15.966 62.5786 15.0294 63.7202 15.0294C64.9928 15.0294 65.6665 16.1158 65.6665 17.4083C65.6665 18.757 65.0489 19.806 63.7202 19.806Z" fill="#B5B6B8"/>
<path d="M74.5319 20.7238C73.2031 20.7238 72.5107 19.5625 72.5107 17.8204C72.5107 16.0784 73.2031 14.8983 74.5319 14.8983C75.8606 14.8983 76.5717 16.0784 76.5717 17.8204C76.5717 19.5625 75.8606 20.7238 74.5319 20.7238ZM74.5506 22.8967C77.6384 22.8967 79.6592 20.7051 79.6592 17.8204C79.6592 14.9357 77.6384 12.7441 74.5506 12.7441C71.4814 12.7441 69.4229 14.9357 69.4229 17.8204C69.4229 20.7051 71.4814 22.8967 74.5506 22.8967Z" fill="#B5B6B8"/>
<path d="M80.5508 22.597H83.6012V13.0064H80.5508V22.597ZM80.5508 11.6764H83.6012V9.20383H80.5508V11.6764Z" fill="#B5B6B8"/>
<path d="M84.9243 25.7626H87.9747V21.6042H88.0122C88.611 22.4097 89.4906 22.8967 90.7257 22.8967C93.2335 22.8967 94.899 20.9111 94.899 17.8017C94.899 14.917 93.3457 12.7254 90.8006 12.7254C89.4906 12.7254 88.5549 13.3061 87.8999 14.1677H87.8437V13.0063H84.9243V25.7626ZM89.9397 20.5365C88.6297 20.5365 87.8812 19.4688 87.8812 17.9141C87.8812 16.3593 88.5549 15.1792 89.8836 15.1792C91.1936 15.1792 91.8112 16.2657 91.8112 17.9141C91.8112 19.5437 91.1 20.5365 89.9397 20.5365Z" fill="#B5B6B8"/>
<path d="M99.8654 22.8967C102.373 22.8967 104.226 21.8102 104.226 19.7123C104.226 17.2584 102.242 16.8276 100.558 16.5466C99.3414 16.3219 98.256 16.2282 98.256 15.5539C98.256 14.9544 98.8361 14.6735 99.5847 14.6735C100.427 14.6735 101.007 14.9357 101.119 15.7974H103.926C103.777 13.9055 102.317 12.7254 99.6034 12.7254C97.339 12.7254 95.4676 13.7743 95.4676 15.7974C95.4676 18.0452 97.2454 18.4947 98.911 18.7757C100.184 19.0005 101.344 19.0942 101.344 19.9558C101.344 20.574 100.764 20.9111 99.8467 20.9111C98.8361 20.9111 98.1999 20.4428 98.0876 19.4875H95.2056C95.2991 21.6042 97.0583 22.8967 99.8654 22.8967Z" fill="#B5B6B8"/>
<path d="M108.37 22.878C109.698 22.878 110.54 22.3535 111.233 21.4169H111.289V22.597H114.208V13.0064H111.158V18.3636C111.158 19.5063 110.522 20.293 109.474 20.293C108.501 20.293 108.033 19.7123 108.033 18.6634V13.0064H105.001V19.3002C105.001 21.4356 106.161 22.878 108.37 22.878Z" fill="#B5B6B8"/>
<path d="M115.536 22.597H118.586V17.221C118.586 16.0783 119.148 15.2729 120.102 15.2729C121.019 15.2729 121.449 15.8723 121.449 16.9025V22.597H124.5V17.221C124.5 16.0783 125.043 15.2729 126.016 15.2729C126.933 15.2729 127.363 15.8723 127.363 16.9025V22.597H130.414V16.3593C130.414 14.2052 129.328 12.7254 127.157 12.7254C125.922 12.7254 124.893 13.2499 124.144 14.4112H124.107C123.62 13.381 122.666 12.7254 121.412 12.7254C120.027 12.7254 119.11 13.381 118.511 14.3738H118.455V13.0063H115.536V22.597Z" fill="#B5B6B8"/>
<path d="M19.8133 1.54292L16.7465 0.720398L14.162 10.3747L11.8287 1.65873L8.76185 2.48126L11.2828 11.8982L5.00368 5.61326L2.7586 7.86043L9.64602 14.7543L1.06883 12.4539L0.24707 15.5236L9.61873 18.0371C9.51144 17.5738 9.45467 17.0912 9.45467 16.5953C9.45467 13.0849 12.2977 10.2393 15.8047 10.2393C19.3118 10.2393 22.1548 13.0849 22.1548 16.5953C22.1548 17.088 22.0987 17.5677 21.9928 18.0282L30.5099 20.3124L31.3316 17.2428L21.9227 14.7193L30.5004 12.4187L29.6787 9.34906L20.2701 11.8724L26.5492 5.58746L24.3041 3.34028L17.5123 10.1385L19.8133 1.54292Z" fill="#B5B6B8"/>
<path d="M21.985 18.0639C21.7221 19.1766 21.1669 20.1761 20.4053 20.977L26.5755 27.1531L28.8206 24.9059L21.985 18.0639Z" fill="#B5B6B8"/>
<path d="M20.3428 21.0417C19.572 21.8297 18.5978 22.4178 17.5054 22.7209L19.7506 31.108L22.8174 30.2854L20.3428 21.0417Z" fill="#B5B6B8"/>
<path d="M17.3903 22.7515C16.8835 22.882 16.3522 22.9513 15.8048 22.9513C15.2182 22.9513 14.6502 22.8717 14.111 22.7227L11.8638 31.1174L14.9306 31.9399L17.3903 22.7515Z" fill="#B5B6B8"/>
<path d="M14.003 22.6916C12.9272 22.3735 11.9704 21.7779 11.2152 20.9876L5.02979 27.1788L7.27487 29.426L14.003 22.6916Z" fill="#B5B6B8"/>
<path d="M11.1636 20.9329C10.4215 20.1376 9.88085 19.1514 9.62352 18.0559L1.07861 20.3476L1.90037 23.4173L11.1636 20.9329Z" fill="#B5B6B8"/>
</g>
<defs>
<clipPath id="clip0_2_5585">
<rect width="131" height="32" fill="white"/>
</clipPath>
</defs>
</svg>
