<svg width="133" height="32" viewBox="0 0 133 32" fill="none" xmlns="http://www.w3.org/2000/svg">
<g clip-path="url(#clip0_2_5601)">
<path d="M40.5723 21.9613H49.9229V19.1516H43.8957V8.56818H40.5723V21.9613Z" fill="#B5B6B8"/>
<path d="M55.4634 20.0882C54.1303 20.0882 53.4355 18.9268 53.4355 17.1848C53.4355 15.4427 54.1303 14.2626 55.4634 14.2626C56.7965 14.2626 57.51 15.4427 57.51 17.1848C57.51 18.9268 56.7965 20.0882 55.4634 20.0882ZM55.4822 22.2611C58.5803 22.2611 60.6081 20.0695 60.6081 17.1848C60.6081 14.3001 58.5803 12.1085 55.4822 12.1085C52.4028 12.1085 50.3374 14.3001 50.3374 17.1848C50.3374 20.0695 52.4028 22.2611 55.4822 22.2611Z" fill="#B5B6B8"/>
<path d="M65.971 25.2769C67.398 25.2769 68.656 24.9584 69.5009 24.2092C70.2708 23.5161 70.7777 22.4671 70.7777 21.0248V12.3707H67.8486V13.401H67.8111C67.2478 12.5955 66.3841 12.0898 65.1073 12.0898C62.7226 12.0898 61.0703 14.0753 61.0703 16.8851C61.0703 19.8259 63.0794 21.4369 65.2387 21.4369C66.4028 21.4369 67.1351 20.9686 67.6984 20.3317H67.7735V21.287C67.7735 22.4484 67.229 23.1227 65.9334 23.1227C64.9195 23.1227 64.4125 22.6919 64.2435 22.1861H61.2769C61.5773 24.1904 63.3235 25.2769 65.971 25.2769ZM65.9522 19.1703C64.8068 19.1703 64.0558 18.2338 64.0558 16.7914C64.0558 15.3303 64.8068 14.3938 65.9522 14.3938C67.229 14.3938 67.9049 15.4802 67.9049 16.7727C67.9049 18.1214 67.2853 19.1703 65.9522 19.1703Z" fill="#B5B6B8"/>
<path d="M76.8008 20.0882C75.4677 20.0882 74.7729 18.9268 74.7729 17.1848C74.7729 15.4427 75.4677 14.2626 76.8008 14.2626C78.1339 14.2626 78.8474 15.4427 78.8474 17.1848C78.8474 18.9268 78.1339 20.0882 76.8008 20.0882ZM76.8196 22.2611C79.9177 22.2611 81.9455 20.0695 81.9455 17.1848C81.9455 14.3001 79.9177 12.1085 76.8196 12.1085C73.7402 12.1085 71.6748 14.3001 71.6748 17.1848C71.6748 20.0695 73.7402 22.2611 76.8196 22.2611Z" fill="#B5B6B8"/>
<path d="M82.8384 21.9613H85.8989V12.3707H82.8384V21.9613ZM82.8384 11.0408H85.8989V8.56818H82.8384V11.0408Z" fill="#B5B6B8"/>
<path d="M87.2275 25.127H90.2881V20.9686H90.3257C90.9265 21.774 91.809 22.2611 93.0482 22.2611C95.5643 22.2611 97.2354 20.2755 97.2354 17.166C97.2354 14.2814 95.6769 12.0898 93.1233 12.0898C91.809 12.0898 90.8702 12.6704 90.213 13.5321H90.1567V12.3707H87.2275V25.127ZM92.2596 19.9009C90.9453 19.9009 90.1942 18.8332 90.1942 17.2784C90.1942 15.7237 90.8702 14.5436 92.2033 14.5436C93.5177 14.5436 94.1373 15.63 94.1373 17.2784C94.1373 18.9081 93.4238 19.9009 92.2596 19.9009Z" fill="#B5B6B8"/>
<path d="M102.218 22.2611C104.734 22.2611 106.593 21.1746 106.593 19.0767C106.593 16.6228 104.602 16.192 102.913 15.911C101.692 15.6862 100.603 15.5926 100.603 14.9182C100.603 14.3188 101.185 14.0378 101.936 14.0378C102.781 14.0378 103.363 14.3001 103.476 15.1618H106.292C106.142 13.2699 104.678 12.0898 101.955 12.0898C99.683 12.0898 97.8053 13.1387 97.8053 15.1618C97.8053 17.4096 99.5891 17.8591 101.26 18.1401C102.537 18.3649 103.701 18.4585 103.701 19.3202C103.701 19.9383 103.119 20.2755 102.199 20.2755C101.185 20.2755 100.547 19.8072 100.434 18.8519H97.5425C97.6364 20.9686 99.4013 22.2611 102.218 22.2611Z" fill="#B5B6B8"/>
<path d="M110.75 22.2423C112.084 22.2423 112.928 21.7178 113.623 20.7813H113.679V21.9614H116.609V12.3707H113.548V17.728C113.548 18.8706 112.91 19.6574 111.858 19.6574C110.882 19.6574 110.412 19.0767 110.412 18.0277V12.3707H107.371V18.6646C107.371 20.8 108.535 22.2423 110.75 22.2423Z" fill="#B5B6B8"/>
<path d="M117.94 21.9614H121.001V16.5854C121.001 15.4427 121.564 14.6373 122.521 14.6373C123.441 14.6373 123.873 15.2367 123.873 16.2669V21.9614H126.934V16.5854C126.934 15.4427 127.478 14.6373 128.455 14.6373C129.375 14.6373 129.807 15.2367 129.807 16.2669V21.9614H132.867V15.7237C132.867 13.5696 131.778 12.0898 129.6 12.0898C128.361 12.0898 127.328 12.6142 126.577 13.7756H126.54C126.051 12.7454 125.094 12.0898 123.836 12.0898C122.446 12.0898 121.526 12.7454 120.925 13.7381H120.869V12.3707H117.94V21.9614Z" fill="#B5B6B8"/>
<path fill-rule="evenodd" clip-rule="evenodd" d="M16.1817 31.3272C24.8234 31.3272 31.8288 24.3385 31.8288 15.7175C31.8288 7.09646 24.8234 0.107727 16.1817 0.107727C7.54008 0.107727 0.534668 7.09646 0.534668 15.7175C0.534668 24.3385 7.54008 31.3272 16.1817 31.3272ZM21.0631 7.37941C21.3007 6.53742 20.4816 6.03953 19.7336 6.57118L9.29164 13.9923C8.48042 14.5688 8.60802 15.7175 9.48331 15.7175H12.233V15.6962H17.5919L13.2254 17.2332L11.3004 24.0556C11.0628 24.8976 11.8818 25.3954 12.6299 24.8638L23.0718 17.4427C23.8831 16.8662 23.7554 15.7175 22.8802 15.7175H18.7104L21.0631 7.37941Z" fill="#B5B6B8"/>
</g>
<defs>
<clipPath id="clip0_2_5601">
<rect width="133" height="32" fill="white"/>
</clipPath>
</defs>
</svg>
