<svg width="162" height="32" viewBox="0 0 162 32" fill="none" xmlns="http://www.w3.org/2000/svg">
<g clip-path="url(#clip0_2_5561)">
<path fill-rule="evenodd" clip-rule="evenodd" d="M20.4952 9.34824C19.1763 8.4692 17.6258 8 16.0396 8V0C19.2119 0 22.313 0.938384 24.9507 2.69649C27.5884 4.45458 29.6442 6.95345 30.8583 9.87704C32.0722 12.8006 32.3899 16.0178 31.771 19.1214C31.1521 22.2251 29.6245 25.0761 27.3813 27.3137C25.1382 29.5514 22.2801 31.0752 19.1688 31.6926C16.0574 32.3099 12.8323 31.993 9.90149 30.7821C6.97065 29.571 4.46561 27.5203 2.70316 24.8891C0.940707 22.2579 0 19.1645 0 16H8.0198C8.0198 17.5822 8.49016 19.129 9.37138 20.4446C10.2526 21.7602 11.5051 22.7855 12.9706 23.391C14.436 23.9966 16.0485 24.155 17.6042 23.8462C19.1599 23.5376 20.5888 22.7757 21.7105 21.6569C22.8321 20.538 23.5959 19.1126 23.9053 17.5607C24.2148 16.0089 24.056 14.4003 23.4489 12.9386C22.8419 11.4767 21.814 10.2273 20.4952 9.34824Z" fill="#B5B6B8"/>
<path fill-rule="evenodd" clip-rule="evenodd" d="M8.0198 4.22794e-06C8.0198 1.05058 7.81236 2.09087 7.40933 3.06148C7.00629 4.03207 6.41556 4.91399 5.67085 5.65686C4.92615 6.39973 4.04206 6.989 3.06905 7.39104C2.09603 7.79308 1.05317 8 3.50554e-07 8L0 16C2.10635 16 4.19207 15.5862 6.13809 14.7821C8.08412 13.978 9.85232 12.7994 11.3417 11.3137C12.8311 9.828 14.0126 8.06416 14.8187 6.12294C15.6247 4.18172 16.0396 2.10115 16.0396 0L8.0198 4.22794e-06Z" fill="#B5B6B8"/>
<path d="M100.744 11.562H96.853V23.8919H100.744V11.562Z" fill="#B5B6B8"/>
<path d="M97.2856 9.25329C97.6922 9.65921 98.2007 9.86217 98.811 9.86217C99.4213 9.86217 99.9217 9.65921 100.312 9.25329C100.702 8.83049 100.897 8.32305 100.897 7.73109C100.897 7.12222 100.702 6.6148 100.312 6.20889C99.9217 5.80296 99.4213 5.60001 98.811 5.60001C98.2007 5.60001 97.6922 5.80296 97.2856 6.20889C96.8951 6.6148 96.7002 7.12222 96.7002 7.73109C96.7002 8.32305 96.8951 8.83049 97.2856 9.25329Z" fill="#B5B6B8"/>
<path d="M41.0264 23.8918V5.98053H45.0193V20.3908H52.9799V23.8918H41.0264Z" fill="#B5B6B8"/>
<path fill-rule="evenodd" clip-rule="evenodd" d="M60.1704 24.1709C58.8988 24.1709 57.7458 23.8918 56.7115 23.3337C55.6942 22.7586 54.8889 21.9806 54.2954 20.9996C53.702 20.0186 53.4053 18.9193 53.4053 17.7015C53.4053 16.4837 53.702 15.3929 54.2954 14.4288C54.8889 13.4647 55.6942 12.7036 56.7115 12.1455C57.7288 11.5704 58.8818 11.2829 60.1704 11.2829C61.459 11.2829 62.6119 11.562 63.6292 12.1201C64.6465 12.6782 65.452 13.4478 66.0454 14.4288C66.6388 15.3929 66.9356 16.4837 66.9356 17.7015C66.9356 18.9193 66.6388 20.0186 66.0454 20.9996C65.452 21.9806 64.6465 22.7586 63.6292 23.3337C62.6119 23.8918 61.459 24.1709 60.1704 24.1709ZM60.1704 20.6445C60.7299 20.6445 61.2216 20.5261 61.6455 20.2893C62.0694 20.0356 62.3915 19.6889 62.6119 19.2491C62.8493 18.7925 62.968 18.2765 62.968 17.7015C62.968 17.1265 62.8493 16.6275 62.6119 16.2047C62.3745 15.7649 62.044 15.4267 61.62 15.1899C61.2131 14.9361 60.7299 14.8093 60.1704 14.8093C59.6278 14.8093 59.1446 14.9361 58.7207 15.1899C58.2969 15.4267 57.9662 15.7649 57.7288 16.2047C57.4914 16.6445 57.3728 17.1518 57.3728 17.7269C57.3728 18.285 57.4914 18.7925 57.7288 19.2491C57.9662 19.6889 58.2969 20.0356 58.7207 20.2893C59.1446 20.5261 59.6278 20.6445 60.1704 20.6445Z" fill="#B5B6B8"/>
<path fill-rule="evenodd" clip-rule="evenodd" d="M70.0173 28.7122C71.0515 29.1857 72.2468 29.4225 73.6033 29.4225C74.9258 29.4225 76.1042 29.1603 77.1385 28.636C78.1728 28.1117 78.9865 27.3845 79.58 26.4543C80.1734 25.524 80.4705 24.4247 80.4705 23.1561V11.562H76.6552V12.3904C76.3714 12.1522 76.0492 11.9522 75.6888 11.7903C75.0275 11.469 74.273 11.3083 73.4253 11.3083C72.2893 11.3083 71.2804 11.5789 70.3988 12.1201C69.517 12.6444 68.8219 13.3717 68.3132 14.3019C67.8045 15.2153 67.5503 16.247 67.5503 17.3971C67.5503 18.5303 67.8045 19.562 68.3132 20.4923C68.8219 21.4225 69.517 22.1583 70.3988 22.6995C71.2804 23.2407 72.2893 23.5113 73.4253 23.5113C74.2561 23.5113 75.0106 23.3507 75.6888 23.0293C76.0173 22.8736 76.314 22.6902 76.5789 22.4789V23.2576C76.5789 24.1202 76.2992 24.7883 75.7396 25.2619C75.1971 25.7355 74.4426 25.9722 73.4761 25.9722C72.6962 25.9722 72.0265 25.8369 71.4669 25.5663C70.9244 25.2957 70.4326 24.8982 69.9918 24.3739L67.6011 26.7587C68.1945 27.6043 69 28.2555 70.0173 28.7122ZM75.5616 19.7058C75.1716 19.9426 74.7054 20.061 74.1628 20.061C73.6202 20.061 73.1455 19.9426 72.7385 19.7058C72.3485 19.469 72.0434 19.1476 71.823 18.7417C71.6025 18.3189 71.4923 17.8707 71.4923 17.3971C71.4923 16.8897 71.6025 16.4331 71.823 16.0271C72.0434 15.6212 72.357 15.2999 72.764 15.0631C73.1709 14.8263 73.6372 14.7079 74.1628 14.7079C74.7054 14.7079 75.1716 14.8263 75.5616 15.0631C75.9685 15.2999 76.2737 15.6212 76.4772 16.0271C76.6976 16.4331 76.8078 16.8897 76.8078 17.3971C76.8078 17.9045 76.6976 18.3611 76.4772 18.7671C76.2737 19.1561 75.9685 19.469 75.5616 19.7058Z" fill="#B5B6B8"/>
<path fill-rule="evenodd" clip-rule="evenodd" d="M88.6596 24.1709C87.3876 24.1709 86.2344 23.8918 85.2006 23.3337C84.1829 22.7586 83.3777 21.9806 82.7842 20.9996C82.1908 20.0186 81.894 18.9193 81.894 17.7015C81.894 16.4837 82.1908 15.3929 82.7842 14.4288C83.3777 13.4647 84.1829 12.7036 85.2006 12.1455C86.2175 11.5704 87.3708 11.2829 88.6596 11.2829C89.9475 11.2829 91.1008 11.562 92.1177 12.1201C93.1354 12.6782 93.9406 13.4478 94.5341 14.4288C95.1275 15.3929 95.4243 16.4837 95.4243 17.7015C95.4243 18.9193 95.1275 20.0186 94.5341 20.9996C93.9406 21.9806 93.1354 22.7586 92.1177 23.3337C91.1008 23.8918 89.9475 24.1709 88.6596 24.1709ZM88.6596 20.6445C89.2185 20.6445 89.7101 20.5261 90.1344 20.2893C90.5578 20.0356 90.8802 19.6889 91.1008 19.2491C91.3382 18.7925 91.4569 18.2765 91.4569 17.7015C91.4569 17.1265 91.3382 16.6275 91.1008 16.2047C90.8634 15.7649 90.533 15.4267 90.1087 15.1899C89.7021 14.9361 89.2185 14.8093 88.6596 14.8093C88.1166 14.8093 87.633 14.9361 87.2096 15.1899C86.7853 15.4267 86.4549 15.7649 86.2175 16.2047C85.9801 16.6445 85.8614 17.1518 85.8614 17.7269C85.8614 18.285 85.9801 18.7925 86.2175 19.2491C86.4549 19.6889 86.7853 20.0356 87.2096 20.2893C87.633 20.5261 88.1166 20.6445 88.6596 20.6445Z" fill="#B5B6B8"/>
<path fill-rule="evenodd" clip-rule="evenodd" d="M110.097 24.1455C109.267 24.1455 108.503 23.9849 107.808 23.6635C107.442 23.4944 107.112 23.2925 106.817 23.0578V29.0927H102.976V11.562H106.867V12.413C107.15 12.1827 107.463 11.9835 107.808 11.8157C108.503 11.4774 109.267 11.3083 110.097 11.3083C111.267 11.3083 112.302 11.5874 113.2 12.1455C114.116 12.7036 114.828 13.4647 115.336 14.4288C115.862 15.3929 116.125 16.4923 116.125 17.7269C116.125 18.9616 115.862 20.061 115.336 21.0251C114.828 21.9891 114.116 22.7502 113.2 23.3083C112.302 23.8665 111.267 24.1455 110.097 24.1455ZM109.386 20.6445C109.944 20.6445 110.428 20.5176 110.835 20.2639C111.259 20.0103 111.589 19.6635 111.827 19.2238C112.064 18.784 112.183 18.2851 112.183 17.7269C112.183 17.1519 112.064 16.6445 111.827 16.2047C111.589 15.765 111.259 15.4267 110.835 15.1899C110.428 14.9362 109.953 14.8094 109.41 14.8094C108.868 14.8094 108.385 14.9362 107.961 15.1899C107.554 15.4267 107.232 15.765 106.995 16.2047C106.757 16.6445 106.639 17.1519 106.639 17.7269C106.639 18.2851 106.749 18.784 106.969 19.2238C107.207 19.6635 107.537 20.0103 107.961 20.2639C108.385 20.5176 108.859 20.6445 109.386 20.6445Z" fill="#B5B6B8"/>
<path d="M119.933 23.9172C120.645 24.1033 121.365 24.1963 122.094 24.1963C123.637 24.1963 124.858 23.8411 125.757 23.1307C126.672 22.4204 127.13 21.4648 127.13 20.2639C127.13 19.4859 126.986 18.8601 126.698 18.3866C126.41 17.8961 126.037 17.5071 125.579 17.2195C125.121 16.932 124.637 16.7036 124.129 16.5345C123.62 16.3654 123.137 16.2216 122.68 16.1032C122.222 15.9848 121.849 15.8495 121.56 15.6973C121.272 15.5451 121.128 15.3421 121.128 15.0884C121.128 14.8516 121.238 14.674 121.458 14.5556C121.679 14.4203 122.009 14.3527 122.45 14.3527C122.908 14.3527 123.374 14.4457 123.849 14.6318C124.341 14.8178 124.782 15.1392 125.171 15.5959L127.384 13.3633C126.825 12.6529 126.096 12.1201 125.197 11.765C124.316 11.3929 123.349 11.2068 122.298 11.2068C121.298 11.2068 120.424 11.3759 119.679 11.7142C118.932 12.0525 118.355 12.5176 117.949 13.1095C117.542 13.6846 117.338 14.3696 117.338 15.1646C117.338 15.9087 117.483 16.5261 117.771 17.0166C118.059 17.4901 118.432 17.8623 118.889 18.1328C119.347 18.4035 119.831 18.6149 120.339 18.7671C120.848 18.9193 121.331 19.0631 121.789 19.1984C122.247 19.3168 122.62 19.4606 122.908 19.6297C123.214 19.7819 123.366 20.0103 123.366 20.3147C123.366 20.5515 123.239 20.7375 122.984 20.8728C122.747 21.0081 122.4 21.0758 121.942 21.0758C121.28 21.0758 120.67 20.9574 120.111 20.7206C119.551 20.4669 119.068 20.1202 118.661 19.6804L116.448 21.913C116.872 22.3696 117.381 22.7756 117.974 23.1307C118.585 23.469 119.238 23.7311 119.933 23.9172Z" fill="#B5B6B8"/>
<path d="M134.226 24.1709C133.09 24.1709 132.082 23.9426 131.2 23.4859C130.335 23.0123 129.657 22.3696 129.166 21.5578C128.673 20.7291 128.428 19.7819 128.428 18.7163V11.562H132.319V18.6656C132.319 19.0884 132.386 19.4521 132.523 19.7565C132.675 20.061 132.896 20.2978 133.183 20.4669C133.472 20.636 133.819 20.7206 134.226 20.7206C134.803 20.7206 135.261 20.543 135.6 20.1878C135.939 19.8157 136.108 19.3083 136.108 18.6656V11.562H140V18.691C140 19.7735 139.754 20.7291 139.262 21.5578C138.77 22.3696 138.092 23.0123 137.227 23.4859C136.363 23.9426 135.362 24.1709 134.226 24.1709Z" fill="#B5B6B8"/>
<path d="M145.825 11.562H141.934V23.8919H145.825V16.6867C145.825 16.2639 145.91 15.9087 146.079 15.6212C146.266 15.3337 146.512 15.1138 146.817 14.9616C147.122 14.7924 147.47 14.7079 147.859 14.7079C148.419 14.7079 148.885 14.8855 149.258 15.2407C149.649 15.5789 149.844 16.061 149.844 16.6867V23.8919H153.735V16.6867C153.735 16.2639 153.82 15.9087 153.989 15.6212C154.176 15.3337 154.421 15.1138 154.727 14.9616C155.032 14.7924 155.38 14.7079 155.769 14.7079C156.329 14.7079 156.795 14.8855 157.168 15.2407C157.558 15.5789 157.753 16.061 157.753 16.6867V23.8919H161.645V16.2555C161.645 15.2238 161.424 14.3443 160.983 13.617C160.559 12.8727 159.974 12.3062 159.228 11.9172C158.499 11.5112 157.66 11.3083 156.71 11.3083C155.744 11.3083 154.87 11.5197 154.091 11.9426C153.584 12.2119 153.141 12.5596 152.762 12.9855C152.408 12.54 151.978 12.1755 151.471 11.8918C150.793 11.5028 150.022 11.3083 149.157 11.3083C148.241 11.3083 147.419 11.5028 146.69 11.8918C146.373 12.0536 146.085 12.2475 145.825 12.4733V11.562Z" fill="#B5B6B8"/>
</g>
<defs>
<clipPath id="clip0_2_5561">
<rect width="162" height="32" fill="white"/>
</clipPath>
</defs>
</svg>
