<svg width="275" height="281" viewBox="0 0 275 281" fill="none" xmlns="http://www.w3.org/2000/svg">
<g filter="url(#filter0_d_2_5713)">
<rect x="-16.0513" y="106.34" width="262" height="64" rx="12" transform="rotate(1.60637 -16.0513 106.34)" fill="white"/>
<rect x="-15.5655" y="106.854" width="261" height="63" rx="11.5" transform="rotate(1.60637 -15.5655 106.854)" stroke="#919295" stroke-opacity="0.2"/>
<rect x="-0.505859" y="122.783" width="32" height="32" rx="4" transform="rotate(1.60637 -0.505859 122.783)" fill="#FFB23B"/>
<path d="M15.2673 131.103C13.661 131.058 12.0774 131.49 10.7167 132.345C9.35605 133.2 8.27948 134.44 7.62314 135.906C6.9668 137.373 6.76017 139.002 7.02937 140.586C7.29857 142.17 8.03151 143.639 9.13551 144.807C10.2395 145.975 11.665 146.789 13.2317 147.146C14.7984 147.504 16.4359 147.389 17.9372 146.816C19.4385 146.243 20.7362 145.237 21.666 143.927C22.5959 142.616 23.1163 141.059 23.1614 139.453C23.2195 137.299 22.421 135.211 20.941 133.645C19.4611 132.08 17.4206 131.166 15.2673 131.103ZM14.8468 146.097C13.4876 146.059 12.1702 145.619 11.0613 144.832C9.9523 144.045 9.10156 142.947 8.61662 141.677C8.13169 140.406 8.03435 139.021 8.3369 137.695C8.63946 136.37 9.32832 135.163 10.3164 134.229C11.3044 133.295 12.5473 132.675 13.8879 132.447C15.2284 132.219 16.6064 132.394 17.8475 132.95C19.0887 133.505 20.1373 134.416 20.8607 135.567C21.5842 136.718 21.95 138.058 21.9119 139.418C21.8587 141.24 21.085 142.966 19.7605 144.218C18.436 145.471 16.6689 146.146 14.8468 146.097ZM20.0376 139.365C20.0329 139.531 19.9627 139.688 19.8422 139.802C19.7218 139.916 19.561 139.977 19.3953 139.972L15.022 139.85C14.8563 139.845 14.6993 139.775 14.5854 139.654C14.4715 139.534 14.4102 139.373 14.4148 139.207L14.5374 134.834C14.5421 134.668 14.6124 134.511 14.7328 134.398C14.8533 134.284 15.014 134.222 15.1797 134.227C15.3454 134.232 15.5025 134.302 15.6164 134.422C15.7302 134.543 15.7916 134.703 15.787 134.869L15.6818 138.618L19.4304 138.723C19.596 138.727 19.7531 138.798 19.867 138.918C19.9809 139.039 20.0422 139.199 20.0376 139.365Z" fill="white"/>
<path d="M50.0018 134.567L49.6756 146.198L48.267 146.159L48.5932 134.527L50.0018 134.567ZM53.8055 141.062L53.6584 146.31L52.318 146.273L52.5626 137.549L53.8576 137.585L53.8194 138.948L53.933 138.951C54.1498 138.514 54.4703 138.167 54.8943 137.91C55.3185 137.649 55.86 137.528 56.5188 137.546C57.1095 137.563 57.6229 137.698 58.0592 137.953C58.4955 138.204 58.8298 138.577 59.0623 139.072C59.2948 139.564 59.4006 140.181 59.3798 140.923L59.2244 146.466L57.884 146.429L58.0369 140.976C58.0561 140.291 57.8931 139.752 57.5479 139.36C57.2028 138.963 56.7198 138.757 56.0988 138.739C55.671 138.727 55.286 138.809 54.9438 138.985C54.6054 139.162 54.3346 139.425 54.1315 139.775C53.9284 140.126 53.8198 140.555 53.8055 141.062ZM66.3537 146.666L66.6799 135.034L70.6101 135.145C71.5227 135.17 72.264 135.356 72.834 135.702C73.408 136.043 73.8273 136.497 74.0919 137.061C74.3565 137.626 74.4791 138.251 74.4599 138.936C74.4407 139.621 74.2831 140.24 73.9872 140.793C73.6951 141.345 73.2547 141.78 72.6661 142.097C72.0775 142.41 71.3307 142.554 70.4258 142.529L67.6087 142.45L67.6438 141.2L70.4154 141.278C71.0402 141.295 71.5449 141.202 71.9296 140.996C72.3143 140.791 72.597 140.507 72.7776 140.145C72.9622 139.779 73.061 139.363 73.0741 138.897C73.0872 138.431 73.0118 138.012 72.8479 137.64C72.6878 137.268 72.4195 136.973 72.0429 136.754C71.6664 136.531 71.162 136.411 70.5297 136.393L68.0534 136.323L67.7622 146.706L66.3537 146.666ZM76.3242 146.946L76.5688 138.222L77.8638 138.258L77.8268 139.576L77.9177 139.578C78.0888 139.151 78.3864 138.809 78.8105 138.552C79.2345 138.295 79.7078 138.174 80.2303 138.188C80.3288 138.191 80.4518 138.196 80.5993 138.204C80.7469 138.212 80.8584 138.221 80.9339 138.231L80.8957 139.594C80.8506 139.581 80.7469 139.561 80.5848 139.534C80.4265 139.503 80.2584 139.485 80.0804 139.48C79.6563 139.468 79.2752 139.546 78.937 139.715C78.6027 139.88 78.3346 140.115 78.1328 140.42C77.9349 140.721 77.8304 141.069 77.8194 141.463L77.6646 146.983L76.3242 146.946ZM85.5484 147.386C84.7608 147.364 84.0751 147.157 83.4911 146.766C82.911 146.375 82.4637 145.837 82.1494 145.154C81.8389 144.471 81.6963 143.678 81.7216 142.777C81.747 141.869 81.934 141.08 82.2824 140.411C82.6346 139.743 83.1113 139.23 83.7125 138.871C84.3175 138.513 85.0138 138.345 85.8013 138.367C86.5889 138.389 87.2728 138.596 87.8529 138.987C88.4369 139.379 88.8841 139.918 89.1945 140.605C89.5087 141.292 89.653 142.09 89.6275 142.999C89.6023 143.9 89.4136 144.683 89.0615 145.348C88.7132 146.012 88.2365 146.524 87.6315 146.882C87.0304 147.24 86.336 147.408 85.5484 147.386ZM85.5822 146.182C86.1804 146.199 86.677 146.06 87.0718 145.764C87.4666 145.468 87.7638 145.073 87.9633 144.578C88.1629 144.083 88.2708 143.545 88.2872 142.961C88.3035 142.378 88.226 141.832 88.0546 141.324C87.8832 140.815 87.6087 140.4 87.2312 140.078C86.8537 139.757 86.3658 139.588 85.7676 139.571C85.1693 139.555 84.6727 139.696 84.2778 139.996C83.8829 140.295 83.5856 140.694 83.386 141.193C83.1863 141.691 83.0783 142.232 83.0619 142.815C83.0456 143.398 83.1232 143.942 83.2947 144.447C83.4662 144.952 83.7408 145.363 84.1184 145.681C84.496 145.998 84.9839 146.166 85.5822 146.182ZM94.9771 150.925C94.3296 150.907 93.7753 150.808 93.3143 150.628C92.8531 150.452 92.4711 150.226 92.1681 149.948C91.8689 149.674 91.6326 149.383 91.4593 149.075L92.5481 148.356C92.6648 148.518 92.8131 148.704 92.9929 148.914C93.1726 149.127 93.4212 149.314 93.7388 149.475C94.0601 149.639 94.4839 149.729 95.0102 149.743C95.7145 149.763 96.3005 149.609 96.7682 149.281C97.2359 148.953 97.4799 148.426 97.5003 147.699L97.55 145.927L97.4364 145.924C97.3335 146.08 97.1879 146.273 96.9996 146.503C96.8151 146.728 96.5519 146.928 96.2098 147.1C95.8716 147.269 95.4185 147.345 94.8506 147.329C94.1463 147.309 93.5186 147.125 92.9676 146.776C92.4203 146.427 91.9928 145.93 91.685 145.285C91.381 144.64 91.2418 143.863 91.2672 142.954C91.2923 142.06 91.4713 141.287 91.8041 140.633C92.1371 139.975 92.5888 139.473 93.1594 139.125C93.7301 138.773 94.3827 138.608 95.1173 138.628C95.6852 138.644 96.1332 138.752 96.4611 138.95C96.7928 139.145 97.0444 139.365 97.2156 139.608C97.3908 139.848 97.5255 140.045 97.6197 140.199L97.756 140.203L97.7949 138.817L99.0898 138.854L98.8381 147.827C98.8171 148.577 98.6296 149.182 98.2757 149.642C97.9254 150.106 97.4614 150.439 96.8834 150.643C96.3092 150.85 95.6738 150.944 94.9771 150.925ZM95.0661 146.13C95.6037 146.145 96.0615 146.035 96.4395 145.799C96.8175 145.563 97.1095 145.217 97.3156 144.761C97.5216 144.304 97.6337 143.754 97.6517 143.11C97.6694 142.482 97.5903 141.924 97.4144 141.438C97.2386 140.952 96.969 140.567 96.6055 140.284C96.2421 140.001 95.7878 139.852 95.2425 139.837C94.6746 139.821 94.1973 139.952 93.8105 140.229C93.4276 140.506 93.1347 140.884 92.9318 141.364C92.7327 141.843 92.6248 142.378 92.6083 142.969C92.5913 143.575 92.6709 144.113 92.8472 144.584C93.0273 145.052 93.3011 145.423 93.6685 145.699C94.0398 145.97 94.5057 146.114 95.0661 146.13ZM101.299 147.646L101.543 138.922L102.838 138.959L102.801 140.276L102.892 140.279C103.063 139.852 103.361 139.51 103.785 139.252C104.209 138.995 104.682 138.874 105.205 138.889C105.303 138.891 105.426 138.897 105.574 138.905C105.721 138.913 105.833 138.921 105.908 138.931L105.87 140.294C105.825 140.282 105.722 140.262 105.559 140.234C105.401 140.203 105.233 140.185 105.055 140.18C104.631 140.168 104.25 140.247 103.912 140.415C103.577 140.58 103.309 140.815 103.107 141.12C102.909 141.422 102.805 141.769 102.794 142.163L102.639 147.684L101.299 147.646ZM110.637 148.09C109.796 148.066 109.076 147.861 108.477 147.472C107.882 147.081 107.429 146.545 107.118 145.865C106.811 145.182 106.67 144.394 106.695 143.5C106.721 142.607 106.905 141.824 107.25 141.151C107.599 140.475 108.072 139.954 108.67 139.588C109.271 139.219 109.966 139.045 110.753 139.067C111.208 139.08 111.654 139.168 112.093 139.332C112.532 139.496 112.928 139.753 113.282 140.104C113.636 140.451 113.913 140.906 114.113 141.469C114.314 142.032 114.402 142.72 114.379 143.534L114.363 144.102L107.639 143.913L107.671 142.755L113.033 142.905C113.047 142.413 112.961 141.971 112.774 141.579C112.592 141.188 112.324 140.875 111.971 140.641C111.621 140.408 111.204 140.285 110.719 140.271C110.186 140.256 109.72 140.376 109.322 140.63C108.929 140.88 108.622 141.213 108.402 141.627C108.182 142.041 108.065 142.489 108.052 142.97L108.03 143.742C108.012 144.401 108.11 144.963 108.324 145.427C108.542 145.888 108.852 146.244 109.255 146.494C109.657 146.74 110.129 146.871 110.67 146.886C111.022 146.896 111.342 146.855 111.629 146.765C111.919 146.671 112.172 146.526 112.385 146.331C112.599 146.133 112.767 145.884 112.89 145.584L114.174 145.984C114.026 146.419 113.786 146.799 113.455 147.123C113.123 147.444 112.719 147.69 112.24 147.862C111.762 148.031 111.227 148.107 110.637 148.09ZM122.662 141.47L121.448 141.777C121.378 141.574 121.272 141.376 121.13 141.183C120.991 140.985 120.799 140.821 120.552 140.689C120.306 140.557 119.988 140.485 119.598 140.475C119.064 140.46 118.616 140.57 118.253 140.806C117.894 141.039 117.709 141.342 117.699 141.717C117.689 142.05 117.803 142.317 118.04 142.517C118.277 142.717 118.651 142.888 119.162 143.032L120.448 143.386C121.223 143.597 121.796 143.903 122.168 144.304C122.539 144.701 122.717 145.204 122.699 145.814C122.685 146.313 122.529 146.756 122.23 147.142C121.935 147.528 121.529 147.827 121.011 148.04C120.494 148.253 119.896 148.35 119.218 148.331C118.329 148.306 117.598 148.092 117.025 147.689C116.453 147.287 116.1 146.712 115.965 145.966L117.246 145.683C117.354 146.156 117.574 146.515 117.904 146.759C118.238 147.003 118.68 147.133 119.229 147.149C119.854 147.166 120.353 147.048 120.728 146.793C121.107 146.534 121.301 146.218 121.312 145.843C121.32 145.54 121.221 145.283 121.015 145.073C120.809 144.859 120.488 144.694 120.051 144.58L118.607 144.198C117.813 143.986 117.234 143.677 116.871 143.269C116.511 142.857 116.339 142.35 116.356 141.748C116.37 141.256 116.521 140.824 116.808 140.453C117.098 140.082 117.487 139.796 117.974 139.593C118.465 139.391 119.017 139.299 119.63 139.316C120.494 139.34 121.166 139.548 121.648 139.941C122.133 140.333 122.471 140.843 122.662 141.47ZM131.018 141.704L129.805 142.011C129.734 141.808 129.628 141.61 129.486 141.417C129.347 141.22 129.155 141.055 128.909 140.923C128.662 140.791 128.344 140.72 127.954 140.709C127.42 140.694 126.972 140.804 126.609 141.041C126.25 141.273 126.065 141.577 126.055 141.952C126.045 142.285 126.159 142.551 126.396 142.751C126.633 142.951 127.007 143.123 127.518 143.266L128.805 143.62C129.579 143.831 130.152 144.137 130.524 144.538C130.895 144.935 131.073 145.438 131.056 146.048C131.042 146.548 130.885 146.99 130.586 147.376C130.291 147.762 129.885 148.061 129.367 148.274C128.85 148.487 128.252 148.584 127.575 148.565C126.685 148.54 125.954 148.326 125.381 147.924C124.809 147.521 124.456 146.947 124.321 146.2L125.602 145.918C125.71 146.391 125.93 146.749 126.26 146.993C126.594 147.238 127.036 147.368 127.585 147.383C128.21 147.4 128.709 147.282 129.084 147.027C129.463 146.769 129.657 146.452 129.668 146.077C129.676 145.774 129.577 145.518 129.371 145.307C129.165 145.093 128.844 144.929 128.407 144.814L126.963 144.433C126.169 144.221 125.591 143.911 125.227 143.503C124.867 143.091 124.696 142.584 124.712 141.982C124.726 141.49 124.877 141.058 125.164 140.687C125.455 140.317 125.843 140.03 126.33 139.828C126.821 139.626 127.373 139.533 127.986 139.55C128.85 139.574 129.522 139.783 130.004 140.175C130.489 140.568 130.827 141.077 131.018 141.704Z" fill="#101219"/>
<rect x="205.787" y="133.07" width="23" height="23" rx="11.5" transform="rotate(1.60637 205.787 133.07)" stroke="#B5B6B8"/>
<path d="M222.594 142.291L215.401 149.092C215.359 149.132 215.31 149.163 215.256 149.183C215.202 149.204 215.145 149.214 215.088 149.212C215.03 149.21 214.974 149.198 214.921 149.174C214.869 149.151 214.821 149.117 214.782 149.075L211.806 145.928C211.727 145.844 211.684 145.731 211.687 145.615C211.69 145.499 211.739 145.389 211.824 145.309C211.908 145.229 212.021 145.186 212.137 145.19C212.253 145.193 212.363 145.242 212.443 145.327L215.117 148.156L221.993 141.655C222.077 141.576 222.19 141.533 222.306 141.536C222.422 141.539 222.532 141.588 222.612 141.673C222.691 141.757 222.734 141.87 222.731 141.986C222.728 142.102 222.679 142.212 222.594 142.291Z" fill="white"/>
</g>
<g filter="url(#filter1_d_2_5713)">
<rect x="-13.9517" y="194.183" width="262" height="64" rx="12" transform="rotate(-1.82277 -13.9517 194.183)" fill="white"/>
<rect x="-13.436" y="194.667" width="261" height="63" rx="11.5" transform="rotate(-1.82277 -13.436 194.667)" stroke="#919295" stroke-opacity="0.2"/>
<rect x="2.54932" y="209.666" width="32" height="32" rx="4" transform="rotate(-1.82277 2.54932 209.666)" fill="#2D9932"/>
<path d="M25.9645 218.109C25.8538 218.063 25.7323 218.05 25.6144 218.071C25.4964 218.092 25.387 218.147 25.2992 218.228C23.173 220.189 21.2916 219.331 19.1112 218.337C16.8523 217.306 14.2912 216.139 11.5561 218.665C11.4908 218.726 11.4391 218.799 11.4045 218.881C11.3699 218.963 11.3532 219.052 11.3555 219.141L11.773 232.259C11.7783 232.425 11.8491 232.582 11.97 232.695C12.0909 232.808 12.2519 232.869 12.4176 232.864C12.5832 232.859 12.74 232.788 12.8535 232.667C12.9669 232.546 13.0276 232.385 13.0224 232.219L12.9125 228.766C14.9518 227.047 16.7823 227.88 18.8906 228.842C20.1913 229.434 21.592 230.073 23.071 230.026C24.1587 229.991 25.2877 229.584 26.4479 228.512C26.5133 228.451 26.565 228.377 26.5996 228.295C26.6342 228.214 26.6509 228.125 26.6485 228.036L26.3503 218.664C26.3458 218.544 26.3071 218.428 26.2387 218.33C26.1703 218.231 26.0751 218.155 25.9645 218.109ZM12.8644 227.256L12.7487 223.621C14.0364 222.698 15.2686 222.634 16.4786 222.928L16.5972 226.656C15.4063 226.396 14.1575 226.455 12.8644 227.256ZM25.3874 227.781C24.1032 228.863 22.9017 228.932 21.6615 228.596L21.543 224.874C19.8399 224.459 18.1816 223.339 16.4786 222.928L16.3402 218.581C17.0696 218.779 17.8119 219.117 18.5924 219.472C19.4855 219.879 20.4253 220.308 21.4045 220.521L21.543 224.874C22.7522 225.167 23.9844 225.104 25.2729 224.18L25.3874 227.781Z" fill="white"/>
<path d="M56.2224 229.969L52.6333 230.083L52.2632 218.453L56.0113 218.334C57.1395 218.298 58.1124 218.5 58.9298 218.94C59.7471 219.376 60.3835 220.021 60.8389 220.874C61.2942 221.724 61.541 222.751 61.5793 223.955C61.6178 225.166 61.4352 226.216 61.0315 227.104C60.6276 227.989 60.0204 228.679 59.21 229.175C58.3995 229.667 57.4036 229.931 56.2224 229.969ZM54.002 228.789L56.0918 228.723C57.0534 228.692 57.8445 228.481 58.4649 228.09C59.0854 227.699 59.5399 227.156 59.8286 226.461C60.1172 225.765 60.2465 224.945 60.2163 223.998C60.1865 223.059 60.0074 222.256 59.6792 221.588C59.3508 220.916 58.8761 220.408 58.255 220.064C57.6338 219.716 56.8688 219.557 55.9602 219.586L53.7113 219.657L54.002 228.789ZM67.4952 229.792C66.7078 229.817 66.0109 229.652 65.4045 229.296C64.802 228.94 64.3234 228.43 63.9688 227.767C63.618 227.104 63.4282 226.321 63.3996 225.42C63.3706 224.512 63.5101 223.713 63.8179 223.025C64.1295 222.337 64.5746 221.796 65.1533 221.402C65.7358 221.008 66.4208 220.799 67.2082 220.774C67.9957 220.749 68.6907 220.914 69.2933 221.27C69.8996 221.626 70.3782 222.138 70.7292 222.805C71.0839 223.472 71.2757 224.26 71.3046 225.169C71.3333 226.07 71.1918 226.863 70.8801 227.547C70.5721 228.231 70.1269 228.77 69.5445 229.164C68.9658 229.558 68.2827 229.767 67.4952 229.792ZM67.4569 228.588C68.0551 228.569 68.5424 228.4 68.9188 228.081C69.2952 227.762 69.5682 227.35 69.7378 226.844C69.9074 226.339 69.983 225.794 69.9644 225.211C69.9459 224.628 69.8358 224.088 69.6343 223.59C69.4327 223.093 69.1339 222.695 68.7379 222.397C68.3418 222.099 67.8447 221.959 67.2466 221.978C66.6484 221.997 66.1611 222.168 65.7848 222.491C65.4086 222.813 65.1357 223.229 64.9662 223.739C64.7967 224.248 64.7212 224.795 64.7398 225.378C64.7583 225.961 64.8683 226.499 65.0697 226.993C65.2712 227.487 65.5698 227.881 65.9658 228.175C66.3617 228.47 66.8587 228.607 67.4569 228.588ZM74.6611 224.13L74.8281 229.377L73.4878 229.42L73.2102 220.697L74.505 220.656L74.5484 222.018L74.662 222.015C74.8523 221.565 75.1515 221.2 75.5594 220.918C75.9671 220.632 76.5004 220.478 77.1592 220.457C77.7498 220.439 78.2704 220.543 78.7211 220.771C79.1716 220.996 79.5277 221.348 79.7894 221.829C80.0509 222.306 80.1934 222.915 80.217 223.657L80.3934 229.2L79.0532 229.242L78.8797 223.791C78.8579 223.105 78.663 222.577 78.2949 222.206C77.9267 221.831 77.4322 221.654 76.8113 221.674C76.3835 221.687 76.0041 221.792 75.673 221.988C75.3458 222.184 75.0913 222.464 74.9095 222.826C74.7277 223.188 74.6449 223.622 74.6611 224.13ZM86.5055 229.187C85.665 229.214 84.9341 229.052 84.3127 228.7C83.6951 228.344 83.2109 227.837 82.8602 227.177C82.5131 226.514 82.3254 225.735 82.297 224.842C82.2685 223.948 82.4063 223.155 82.7102 222.464C83.0177 221.768 83.4589 221.219 84.0335 220.818C84.6118 220.413 85.2947 220.198 86.0822 220.173C86.5365 220.159 86.9876 220.22 87.4353 220.358C87.8831 220.495 88.2942 220.728 88.6685 221.057C89.0426 221.383 89.3465 221.82 89.58 222.37C89.8135 222.92 89.9432 223.602 89.9691 224.416L89.9872 224.983L83.2633 225.197L83.2264 224.039L88.5874 223.868C88.5717 223.376 88.4593 222.94 88.2501 222.56C88.0448 222.18 87.7587 221.884 87.3919 221.672C87.0289 221.46 86.6051 221.362 86.1205 221.377C85.5867 221.394 85.129 221.542 84.7475 221.819C84.3697 222.092 84.0833 222.443 83.8884 222.87C83.6936 223.296 83.6038 223.75 83.6191 224.231L83.6437 225.003C83.6647 225.662 83.796 226.217 84.0377 226.668C84.2831 227.115 84.6141 227.451 85.0306 227.677C85.4469 227.898 85.9258 228.001 86.4672 227.983C86.8193 227.972 87.1357 227.913 87.4165 227.805C87.701 227.694 87.9442 227.535 88.146 227.327C88.3478 227.116 88.5006 226.857 88.6045 226.551L89.9109 226.873C89.7886 227.317 89.5718 227.71 89.2606 228.054C88.9493 228.393 88.5599 228.663 88.0926 228.864C87.6251 229.061 87.0961 229.168 86.5055 229.187Z" fill="#101219"/>
<rect x="209.088" y="207.595" width="23" height="23" rx="11.5" transform="rotate(-1.82277 209.088 207.595)" stroke="#B5B6B8"/>
<path d="M226.417 215.795L219.644 223.014C219.604 223.056 219.557 223.09 219.505 223.114C219.452 223.138 219.396 223.151 219.338 223.152C219.281 223.154 219.224 223.145 219.17 223.124C219.116 223.104 219.067 223.073 219.025 223.034L215.867 220.071C215.782 219.991 215.732 219.881 215.729 219.765C215.725 219.649 215.767 219.536 215.847 219.452C215.926 219.367 216.036 219.317 216.152 219.314C216.268 219.31 216.381 219.353 216.466 219.432L219.305 222.097L225.779 215.196C225.858 215.112 225.968 215.062 226.084 215.058C226.2 215.055 226.313 215.097 226.398 215.177C226.482 215.256 226.532 215.366 226.536 215.482C226.539 215.598 226.497 215.711 226.417 215.795Z" fill="white"/>
</g>
<g filter="url(#filter2_d_2_5713)">
<g clip-path="url(#clip0_2_5713)">
<rect x="-19" y="41.8811" width="262" height="64" rx="12" transform="rotate(-5.14694 -19 41.8811)" fill="#3B68FF"/>
<rect x="-1.62891" y="56.3812" width="32" height="32" rx="4" transform="rotate(-5.14694 -1.62891 56.3812)" fill="#6286FF"/>
<path d="M23.1641 64.7486L20.4499 62.4829C20.3869 62.4303 20.3141 62.3905 20.2357 62.366C20.1573 62.3415 20.0749 62.3327 19.9931 62.34C19.9113 62.3474 19.8317 62.3708 19.759 62.409C19.6862 62.4471 19.6217 62.4992 19.5691 62.5623L12.7722 70.7049C12.7196 70.7679 12.6799 70.8407 12.6555 70.9191C12.6311 70.9975 12.6223 71.0799 12.6298 71.1617L12.854 73.6516C12.8689 73.8167 12.9487 73.9691 13.076 74.0753C13.2033 74.1816 13.3675 74.2329 13.5326 74.218L16.0225 73.9937C16.1043 73.9864 16.1838 73.9631 16.2566 73.925C16.3293 73.887 16.3939 73.835 16.4465 73.772L23.2434 65.6294C23.2961 65.5664 23.3358 65.4936 23.3604 65.4152C23.3849 65.3368 23.3937 65.2544 23.3863 65.1725C23.379 65.0907 23.3555 65.0112 23.3174 64.9384C23.2793 64.8657 23.2272 64.8012 23.1641 64.7486ZM15.6528 72.772L14.0429 72.917L13.8979 71.3071L18.4292 65.8787L20.1841 67.3436L15.6528 72.772ZM20.9849 66.3843L19.23 64.9194L20.1284 63.843L21.8833 65.3079L20.9849 66.3843ZM23.1558 69.586L23.7726 76.4333C23.8023 76.7635 23.6997 77.092 23.4873 77.3465C23.2748 77.601 22.97 77.7607 22.6398 77.7904L10.1902 78.9118C9.86 78.9415 9.53153 78.8389 9.27702 78.6264C9.02252 78.414 8.86283 78.1091 8.83309 77.779L7.71171 65.3294C7.68197 64.9992 7.78461 64.6707 7.99705 64.4162C8.2095 64.1617 8.51435 64.002 8.84453 63.9723L15.6918 63.3555C15.8569 63.3406 16.0211 63.3919 16.1484 63.4982C16.2756 63.6044 16.3555 63.7568 16.3704 63.9219C16.3852 64.087 16.3339 64.2512 16.2277 64.3785C16.1215 64.5057 15.969 64.5856 15.8039 64.6005L8.95667 65.2172L10.078 77.6668L22.5276 76.5454L21.9109 69.6982C21.896 69.5331 21.9473 69.3688 22.0536 69.2416C22.1598 69.1143 22.3122 69.0345 22.4773 69.0196C22.6424 69.0047 22.8066 69.0561 22.9339 69.1623C23.0611 69.2685 23.141 69.4209 23.1558 69.586Z" fill="#EBF0FF"/>
<path d="M49.5547 73.86L48.5108 62.2705L52.4267 61.9178C53.3359 61.8359 54.0939 61.9331 54.7007 62.2093C55.3109 62.4814 55.7806 62.8822 56.1097 63.4116C56.4388 63.941 56.6341 64.5472 56.6956 65.23C56.7571 65.9128 56.6735 66.546 56.4446 67.1295C56.2195 67.7127 55.8333 68.1962 55.286 68.5802C54.7383 68.9604 54.0137 69.1911 53.112 69.2723L50.3052 69.5252L50.1931 68.2802L52.9546 68.0315C53.5771 67.9754 54.0673 67.8228 54.4252 67.5738C54.7831 67.3248 55.0304 67.0097 55.1672 66.6284C55.3074 66.2431 55.3567 65.8184 55.3149 65.3544C55.2731 64.8903 55.1489 64.4832 54.9424 64.1329C54.7397 63.7822 54.4385 63.5203 54.0387 63.3471C53.6387 63.1702 53.1236 63.1101 52.4936 63.1668L50.0263 63.3891L50.9581 73.7336L49.5547 73.86ZM59.7805 61.2554L60.8244 72.8449L59.4889 72.9652L58.445 61.3757L59.7805 61.2554ZM65.8466 72.5979C65.2958 72.6475 64.7866 72.5888 64.319 72.4217C63.851 72.2509 63.4672 71.9793 63.1674 71.607C62.8673 71.2308 62.6918 70.7598 62.6408 70.194C62.5959 69.696 62.6577 69.2835 62.826 68.9564C62.9939 68.6256 63.234 68.3568 63.5463 68.1499C63.8585 67.9431 64.2088 67.7784 64.5971 67.6559C64.9889 67.5294 65.3842 67.4215 65.7831 67.3323C66.3052 67.2169 66.7288 67.1274 67.0539 67.0638C67.3825 66.9962 67.6183 66.9122 67.7614 66.8119C67.9083 66.7112 67.972 66.5533 67.9527 66.3382L67.9486 66.293C67.8983 65.7346 67.7064 65.3145 67.373 65.0327C67.0433 64.7505 66.571 64.6371 65.9561 64.6925C65.3185 64.75 64.8312 64.9346 64.4942 65.2464C64.1572 65.5582 63.9294 65.8791 63.8108 66.2093L62.5024 65.8708C62.6812 65.3222 62.9459 64.8838 63.2967 64.5556C63.6509 64.2232 64.0472 63.9783 64.4856 63.8209C64.9274 63.6594 65.3672 63.559 65.8048 63.5196C66.084 63.4944 66.4077 63.4995 66.776 63.5348C67.1477 63.5659 67.5125 63.6681 67.8704 63.8412C68.232 64.014 68.5446 64.2958 68.808 64.6867C69.0714 65.0775 69.2341 65.6181 69.2963 66.3085L69.8122 72.0353L68.4767 72.1556L68.3706 70.9785L68.3027 70.9847C68.2292 71.1814 68.0965 71.3969 67.9046 71.6309C67.7127 71.865 67.4481 72.0733 67.1108 72.2558C66.7736 72.4383 66.3522 72.5523 65.8466 72.5979ZM65.9423 71.3798C66.4705 71.3323 66.9063 71.1884 67.2498 70.9483C67.597 70.7078 67.8483 70.4152 68.0036 70.0703C68.1627 69.7251 68.2259 69.3714 68.1933 69.0092L68.0832 67.7869C68.0327 67.8599 67.9138 67.9334 67.7265 68.0073C67.5426 68.0771 67.3281 68.144 67.0828 68.2079C66.841 68.2677 66.6045 68.3233 66.3733 68.3745C66.1455 68.4216 65.9608 68.4611 65.8192 68.4929C65.4762 68.5694 65.1584 68.6722 64.8657 68.8012C64.5765 68.9262 64.3485 69.0969 64.1817 69.3135C64.0182 69.526 63.9518 69.802 63.9824 70.1416C64.0242 70.6056 64.2275 70.941 64.5922 71.1477C64.9603 71.3504 65.4104 71.4277 65.9423 71.3798ZM73.1143 66.4666L73.5852 71.6955L72.2497 71.8157L71.4668 63.1237L72.757 63.0074L72.8794 64.3656L72.9926 64.3554C73.1565 63.8956 73.4339 63.5132 73.8248 63.2079C74.2153 62.8989 74.7388 62.7148 75.3952 62.6557C75.9837 62.6027 76.5096 62.677 76.9727 62.8787C77.4355 63.0767 77.8115 63.4079 78.1005 63.8725C78.3892 64.3333 78.5669 64.9334 78.6335 65.6728L79.131 71.1959L77.7955 71.3162L77.3061 65.8837C77.2446 65.2008 77.0194 64.6849 76.6305 64.3358C76.2412 63.9829 75.7372 63.8343 75.1185 63.8901C74.6922 63.9285 74.3195 64.0552 74.0003 64.2703C73.685 64.4851 73.4471 64.7784 73.2866 65.1504C73.1262 65.5223 73.0687 65.9611 73.1143 66.4666ZM82.4359 65.627L82.9069 70.8558L81.5714 70.9761L80.7884 62.284L82.0787 62.1678L82.201 63.526L82.3142 63.5158C82.4782 63.056 82.7556 62.6735 83.1464 62.3683C83.5369 62.0593 84.0604 61.8752 84.7169 61.8161C85.3054 61.7631 85.8312 61.8374 86.2944 62.0391C86.7572 62.237 87.1331 62.5683 87.4221 63.0328C87.7109 63.4937 87.8885 64.0938 87.9551 64.8332L88.4526 70.3563L87.1171 70.4766L86.6278 65.044C86.5663 64.3612 86.341 63.8452 85.9521 63.4961C85.5628 63.1433 85.0588 62.9947 84.4401 63.0504C84.0138 63.0888 83.6411 63.2156 83.322 63.4307C83.0066 63.6454 82.7687 63.9388 82.6083 64.3108C82.4478 64.6827 82.3904 65.1215 82.4359 65.627ZM90.893 70.1365L90.1101 61.4444L91.4456 61.3241L92.2285 70.0162L90.893 70.1365ZM90.6587 59.9345C90.3984 59.958 90.1659 59.8896 89.9613 59.7292C89.7605 59.5686 89.6488 59.3637 89.6264 59.1148C89.604 58.8658 89.6772 58.6443 89.8461 58.4503C90.0188 58.256 90.2352 58.1471 90.4956 58.1237C90.7559 58.1003 90.9864 58.1689 91.1873 58.3295C91.3919 58.4898 91.5054 58.6945 91.5278 58.9435C91.5502 59.1925 91.4751 59.4141 91.3025 59.6084C91.1336 59.8024 90.919 59.9111 90.6587 59.9345ZM95.5391 64.4467L96.0101 69.6756L94.6746 69.7959L93.8917 61.1038L95.1819 60.9876L95.3042 62.3457L95.4174 62.3355C95.5814 61.8758 95.8588 61.4933 96.2496 61.188C96.6401 60.879 97.1636 60.695 97.8201 60.6358C98.4086 60.5828 98.9344 60.6572 99.3976 60.8589C99.8604 61.0568 100.236 61.388 100.525 61.8526C100.814 62.3134 100.992 62.9135 101.058 63.6529L101.556 69.176L100.22 69.2963L99.731 63.8638C99.6695 63.1809 99.4442 62.665 99.0553 62.3159C98.666 61.963 98.162 61.8145 97.5433 61.8702C97.117 61.9086 96.7443 62.0353 96.4252 62.2504C96.1098 62.4652 95.8719 62.7586 95.7115 63.1305C95.551 63.5025 95.4936 63.9412 95.5391 64.4467ZM107.815 72.0808C107.17 72.1389 106.607 72.1059 106.128 71.9817C105.65 71.8613 105.244 71.6811 104.91 71.4411C104.581 71.2045 104.312 70.9435 104.104 70.658L105.1 69.8152C105.235 69.9628 105.405 70.1301 105.608 70.3171C105.811 70.508 106.08 70.6644 106.414 70.7864C106.753 70.9119 107.184 70.951 107.709 70.9038C108.41 70.8406 108.974 70.6186 109.4 70.238C109.826 69.8573 110.006 69.3048 109.941 68.5805L109.782 66.8149L109.669 66.8251C109.585 66.9924 109.463 67.2011 109.303 67.4514C109.146 67.6975 108.908 67.9262 108.589 68.1375C108.273 68.3447 107.832 68.4738 107.266 68.5248C106.564 68.588 105.919 68.4787 105.331 68.197C104.747 67.915 104.264 67.4717 103.882 66.8671C103.504 66.2622 103.275 65.507 103.193 64.6016C103.113 63.7113 103.2 62.9219 103.453 62.2335C103.707 61.5413 104.096 60.989 104.622 60.5765C105.147 60.1603 105.776 59.9192 106.508 59.8533C107.074 59.8023 107.531 59.8562 107.88 60.0149C108.233 60.1695 108.508 60.3577 108.707 60.5794C108.909 60.797 109.066 60.9768 109.178 61.1189L109.313 61.1067L109.189 59.7259L110.479 59.6097L111.285 68.5507C111.352 69.2977 111.237 69.9204 110.94 70.4188C110.646 70.9206 110.225 71.3066 109.675 71.5767C109.129 71.8503 108.509 72.0183 107.815 72.0808ZM107.339 67.3088C107.875 67.2605 108.317 67.0971 108.664 66.8186C109.012 66.5401 109.261 66.162 109.412 65.6845C109.563 65.2069 109.61 64.6474 109.552 64.0061C109.495 63.3798 109.351 62.8356 109.12 62.3735C108.888 61.9114 108.575 61.5611 108.181 61.3228C107.786 61.0845 107.318 60.9898 106.774 61.0387C106.209 61.0897 105.75 61.2755 105.398 61.5962C105.051 61.9166 104.804 62.3267 104.659 62.8266C104.518 63.3261 104.474 63.8702 104.527 64.4587C104.581 65.0623 104.723 65.5876 104.954 66.0347C105.188 66.4776 105.503 66.8143 105.901 67.0447C106.301 67.2711 106.781 67.3591 107.339 67.3088Z" fill="white"/>
<rect x="203.899" y="41.8848" width="24" height="24" rx="12" transform="rotate(-5.14694 203.899 41.8848)" fill="white"/>
<path d="M222.217 49.5191L215.873 57.1189C215.836 57.163 215.791 57.1995 215.74 57.2262C215.689 57.2529 215.634 57.2693 215.576 57.2745C215.519 57.2796 215.461 57.2734 215.407 57.2563C215.352 57.2391 215.301 57.2113 215.257 57.1744L211.932 54.399C211.843 54.3246 211.787 54.2179 211.776 54.1022C211.766 53.9866 211.802 53.8716 211.876 53.7824C211.951 53.6933 212.057 53.6374 212.173 53.627C212.289 53.6166 212.404 53.6525 212.493 53.7269L215.482 56.2224L221.545 48.9581C221.619 48.869 221.726 48.8131 221.842 48.8026C221.957 48.7922 222.072 48.8282 222.161 48.9026C222.251 48.977 222.307 49.0837 222.317 49.1994C222.327 49.315 222.291 49.43 222.217 49.5191Z" fill="#3B68FF"/>
</g>
</g>
<defs>
<filter id="filter0_d_2_5713" x="-34.8452" y="87.3403" width="305.691" height="113.319" filterUnits="userSpaceOnUse" color-interpolation-filters="sRGB">
<feFlood flood-opacity="0" result="BackgroundImageFix"/>
<feColorMatrix in="SourceAlpha" type="matrix" values="0 0 0 0 0 0 0 0 0 0 0 0 0 0 0 0 0 0 127 0" result="hardAlpha"/>
<feMorphology radius="1" operator="dilate" in="SourceAlpha" result="effect1_dropShadow_2_5713"/>
<feOffset dx="4" dy="2"/>
<feGaussianBlur stdDeviation="10"/>
<feComposite in2="hardAlpha" operator="out"/>
<feColorMatrix type="matrix" values="0 0 0 0 0.580392 0 0 0 0 0.580392 0 0 0 0 0.580392 0 0 0 0.06 0"/>
<feBlend mode="normal" in2="BackgroundImageFix" result="effect1_dropShadow_2_5713"/>
<feBlend mode="normal" in="SourceGraphic" in2="effect1_dropShadow_2_5713" result="shape"/>
</filter>
<filter id="filter1_d_2_5713" x="-30.9517" y="166.849" width="305.903" height="114.301" filterUnits="userSpaceOnUse" color-interpolation-filters="sRGB">
<feFlood flood-opacity="0" result="BackgroundImageFix"/>
<feColorMatrix in="SourceAlpha" type="matrix" values="0 0 0 0 0 0 0 0 0 0 0 0 0 0 0 0 0 0 127 0" result="hardAlpha"/>
<feMorphology radius="1" operator="dilate" in="SourceAlpha" result="effect1_dropShadow_2_5713"/>
<feOffset dx="4" dy="2"/>
<feGaussianBlur stdDeviation="10"/>
<feComposite in2="hardAlpha" operator="out"/>
<feColorMatrix type="matrix" values="0 0 0 0 0.580392 0 0 0 0 0.580392 0 0 0 0 0.580392 0 0 0 0.06 0"/>
<feBlend mode="normal" in2="BackgroundImageFix" result="effect1_dropShadow_2_5713"/>
<feBlend mode="normal" in="SourceGraphic" in2="effect1_dropShadow_2_5713" result="shape"/>
</filter>
<filter id="filter2_d_2_5713" x="-36" y="-0.623047" width="308.685" height="129.246" filterUnits="userSpaceOnUse" color-interpolation-filters="sRGB">
<feFlood flood-opacity="0" result="BackgroundImageFix"/>
<feColorMatrix in="SourceAlpha" type="matrix" values="0 0 0 0 0 0 0 0 0 0 0 0 0 0 0 0 0 0 127 0" result="hardAlpha"/>
<feMorphology radius="1" operator="dilate" in="SourceAlpha" result="effect1_dropShadow_2_5713"/>
<feOffset dx="4" dy="2"/>
<feGaussianBlur stdDeviation="10"/>
<feComposite in2="hardAlpha" operator="out"/>
<feColorMatrix type="matrix" values="0 0 0 0 0.580392 0 0 0 0 0.580392 0 0 0 0 0.580392 0 0 0 0.06 0"/>
<feBlend mode="normal" in2="BackgroundImageFix" result="effect1_dropShadow_2_5713"/>
<feBlend mode="normal" in="SourceGraphic" in2="effect1_dropShadow_2_5713" result="shape"/>
</filter>
<clipPath id="clip0_2_5713">
<rect x="-19" y="41.8811" width="262" height="64" rx="12" transform="rotate(-5.14694 -19 41.8811)" fill="white"/>
</clipPath>
</defs>
</svg>
