<svg width="352" height="207" viewBox="0 0 352 207" fill="none" xmlns="http://www.w3.org/2000/svg">
<g filter="url(#filter0_d_2_5926)">
<rect x="17" y="19" width="310" height="272" rx="16" fill="#3B68FF"/>
<g filter="url(#filter1_b_2_5926)">
<rect x="41" y="43" width="98" height="32" rx="16" fill="#EBF0FF" fill-opacity="0.24"/>
<path d="M59.7582 54.7727V63.5H58.1772V54.7727H59.7582ZM62.9446 59.6648V63.5H61.402V56.9545H62.8764V58.0668H62.9531C63.1037 57.7003 63.3438 57.4091 63.6733 57.1932C64.0057 56.9773 64.4162 56.8693 64.9048 56.8693C65.3565 56.8693 65.75 56.9659 66.0852 57.1591C66.4233 57.3523 66.6847 57.6321 66.8693 57.9986C67.0568 58.3651 67.1491 58.8097 67.1463 59.3324V63.5H65.6037V59.571C65.6037 59.1335 65.4901 58.7912 65.2628 58.544C65.0384 58.2969 64.7273 58.1733 64.3295 58.1733C64.0597 58.1733 63.8196 58.233 63.6094 58.3523C63.402 58.4687 63.2386 58.6378 63.1193 58.8594C63.0028 59.081 62.9446 59.3494 62.9446 59.6648ZM71.7592 63.5V54.7727H75.032C75.7024 54.7727 76.2649 54.8977 76.7195 55.1477C77.1768 55.3977 77.522 55.7415 77.755 56.179C77.9908 56.6136 78.1087 57.108 78.1087 57.6619C78.1087 58.2216 77.9908 58.7187 77.755 59.1534C77.5192 59.5881 77.1712 59.9304 76.7109 60.1804C76.2507 60.4276 75.6839 60.5511 75.0107 60.5511H72.8416V59.2514H74.7976C75.1896 59.2514 75.5107 59.1832 75.7607 59.0469C76.0107 58.9105 76.1953 58.723 76.3146 58.4844C76.4368 58.2457 76.4979 57.9716 76.4979 57.6619C76.4979 57.3523 76.4368 57.0795 76.3146 56.8438C76.1953 56.608 76.0092 56.4247 75.7564 56.294C75.5064 56.1605 75.1839 56.0938 74.7891 56.0938H73.3402V63.5H71.7592ZM79.4137 63.5V56.9545H80.9094V58.0455H80.9776C81.0969 57.6676 81.3015 57.3764 81.5913 57.1719C81.8839 56.9645 82.2177 56.8608 82.5927 56.8608C82.6779 56.8608 82.7731 56.8651 82.8782 56.8736C82.9862 56.8793 83.0756 56.8892 83.1467 56.9034V58.3224C83.0813 58.2997 82.9776 58.2798 82.8356 58.2628C82.6964 58.2429 82.5614 58.233 82.4308 58.233C82.1495 58.233 81.8967 58.294 81.6722 58.4162C81.4506 58.5355 81.2759 58.7017 81.1481 58.9148C81.0202 59.1278 80.9563 59.3736 80.9563 59.652V63.5H79.4137ZM86.7571 63.6278C86.1179 63.6278 85.5639 63.4872 85.0952 63.206C84.6264 62.9247 84.2628 62.5312 84.0043 62.0256C83.7486 61.5199 83.6207 60.929 83.6207 60.2528C83.6207 59.5767 83.7486 58.9844 84.0043 58.4759C84.2628 57.9673 84.6264 57.5724 85.0952 57.2912C85.5639 57.0099 86.1179 56.8693 86.7571 56.8693C87.3963 56.8693 87.9503 57.0099 88.419 57.2912C88.8878 57.5724 89.25 57.9673 89.5057 58.4759C89.7642 58.9844 89.8935 59.5767 89.8935 60.2528C89.8935 60.929 89.7642 61.5199 89.5057 62.0256C89.25 62.5312 88.8878 62.9247 88.419 63.206C87.9503 63.4872 87.3963 63.6278 86.7571 63.6278ZM86.7656 62.392C87.1122 62.392 87.402 62.2969 87.6349 62.1065C87.8679 61.9134 88.0412 61.6548 88.1548 61.331C88.2713 61.0071 88.3295 60.6463 88.3295 60.2486C88.3295 59.848 88.2713 59.4858 88.1548 59.1619C88.0412 58.8352 87.8679 58.5753 87.6349 58.3821C87.402 58.1889 87.1122 58.0923 86.7656 58.0923C86.4105 58.0923 86.1151 58.1889 85.8793 58.3821C85.6463 58.5753 85.4716 58.8352 85.3551 59.1619C85.2415 59.4858 85.1847 59.848 85.1847 60.2486C85.1847 60.6463 85.2415 61.0071 85.3551 61.331C85.4716 61.6548 85.6463 61.9134 85.8793 62.1065C86.1151 62.2969 86.4105 62.392 86.7656 62.392ZM94.0494 66.0909C93.4954 66.0909 93.0195 66.0156 92.6218 65.8651C92.2241 65.7173 91.9045 65.5185 91.663 65.2685C91.4215 65.0185 91.2539 64.7415 91.1602 64.4375L92.5494 64.1009C92.6119 64.2287 92.7028 64.3551 92.8221 64.4801C92.9414 64.608 93.1019 64.7131 93.3036 64.7955C93.5082 64.8807 93.7653 64.9233 94.0749 64.9233C94.5124 64.9233 94.8746 64.8168 95.1616 64.6037C95.4485 64.3935 95.592 64.0469 95.592 63.5639V62.3239H95.5153C95.4357 62.483 95.3192 62.6463 95.1658 62.8139C95.0153 62.9815 94.815 63.1222 94.565 63.2358C94.3178 63.3494 94.0067 63.4062 93.6317 63.4062C93.1289 63.4062 92.6729 63.2884 92.2638 63.0526C91.8576 62.8139 91.5337 62.4588 91.2923 61.9872C91.0536 61.5128 90.9343 60.919 90.9343 60.206C90.9343 59.4872 91.0536 58.8807 91.2923 58.3864C91.5337 57.8892 91.859 57.5128 92.2681 57.2571C92.6772 56.9986 93.1332 56.8693 93.636 56.8693C94.0195 56.8693 94.3349 56.9347 94.582 57.0653C94.832 57.1932 95.0309 57.348 95.1786 57.5298C95.3263 57.7088 95.4386 57.8778 95.5153 58.0369H95.6005V56.9545H97.1218V63.6065C97.1218 64.1662 96.9883 64.6293 96.7212 64.9957C96.4542 65.3622 96.0891 65.6364 95.6261 65.8182C95.163 66 94.6374 66.0909 94.0494 66.0909ZM94.0621 62.196C94.3888 62.196 94.6673 62.1165 94.8974 61.9574C95.1275 61.7983 95.3022 61.5696 95.4215 61.2713C95.5408 60.973 95.6005 60.6151 95.6005 60.1974C95.6005 59.7855 95.5408 59.4247 95.4215 59.1151C95.305 58.8054 95.1317 58.5653 94.9016 58.3949C94.6744 58.2216 94.3945 58.1349 94.0621 58.1349C93.7184 58.1349 93.4315 58.2244 93.2013 58.4034C92.9712 58.5824 92.7979 58.8281 92.6815 59.1406C92.565 59.4503 92.5067 59.8026 92.5067 60.1974C92.5067 60.598 92.565 60.9489 92.6815 61.25C92.8008 61.5483 92.9755 61.7812 93.2056 61.9489C93.4386 62.1136 93.7241 62.196 94.0621 62.196ZM98.7028 63.5V56.9545H100.199V58.0455H100.267C100.386 57.6676 100.591 57.3764 100.88 57.1719C101.173 56.9645 101.507 56.8608 101.882 56.8608C101.967 56.8608 102.062 56.8651 102.167 56.8736C102.275 56.8793 102.365 56.8892 102.436 56.9034V58.3224C102.37 58.2997 102.267 58.2798 102.125 58.2628C101.985 58.2429 101.85 58.233 101.72 58.233C101.439 58.233 101.186 58.294 100.961 58.4162C100.74 58.5355 100.565 58.7017 100.437 58.9148C100.309 59.1278 100.245 59.3736 100.245 59.652V63.5H98.7028ZM106.089 63.6278C105.433 63.6278 104.866 63.4915 104.388 63.2188C103.914 62.9432 103.549 62.554 103.293 62.0511C103.038 61.5455 102.91 60.9503 102.91 60.2656C102.91 59.5923 103.038 59.0014 103.293 58.4929C103.552 57.9815 103.913 57.5838 104.376 57.2997C104.839 57.0128 105.383 56.8693 106.008 56.8693C106.411 56.8693 106.792 56.9347 107.15 57.0653C107.511 57.1932 107.829 57.392 108.104 57.6619C108.383 57.9318 108.602 58.2756 108.761 58.6932C108.92 59.108 108.999 59.6023 108.999 60.1761V60.6491H103.634V59.6094H107.521C107.518 59.3139 107.454 59.0511 107.329 58.821C107.204 58.5881 107.029 58.4048 106.805 58.2713C106.583 58.1378 106.325 58.071 106.029 58.071C105.714 58.071 105.437 58.1477 105.198 58.3011C104.96 58.4517 104.773 58.6506 104.64 58.8977C104.509 59.142 104.442 59.4105 104.44 59.7031V60.6108C104.44 60.9915 104.509 61.3182 104.648 61.5909C104.788 61.8608 104.982 62.0682 105.232 62.2131C105.482 62.3551 105.775 62.4261 106.11 62.4261C106.335 62.4261 106.538 62.3949 106.719 62.3324C106.901 62.267 107.059 62.1719 107.192 62.0469C107.326 61.9219 107.427 61.767 107.495 61.5824L108.935 61.7443C108.844 62.125 108.671 62.4574 108.415 62.7415C108.163 63.0227 107.839 63.2415 107.444 63.3977C107.049 63.5511 106.597 63.6278 106.089 63.6278ZM115.478 58.6847L114.071 58.8381C114.032 58.696 113.962 58.5625 113.863 58.4375C113.766 58.3125 113.635 58.2116 113.471 58.1349C113.306 58.0582 113.104 58.0199 112.865 58.0199C112.544 58.0199 112.275 58.0895 112.056 58.2287C111.84 58.3679 111.733 58.5483 111.736 58.7699C111.733 58.9602 111.803 59.1151 111.945 59.2344C112.09 59.3537 112.328 59.4517 112.661 59.5284L113.777 59.767C114.397 59.9006 114.857 60.1122 115.158 60.402C115.462 60.6918 115.615 61.071 115.618 61.5398C115.615 61.9517 115.495 62.3153 115.256 62.6307C115.02 62.9432 114.692 63.1875 114.272 63.3636C113.851 63.5398 113.368 63.6278 112.823 63.6278C112.022 63.6278 111.377 63.4602 110.888 63.125C110.4 62.7869 110.108 62.3168 110.015 61.7145L111.519 61.5696C111.587 61.8651 111.732 62.0881 111.953 62.2386C112.175 62.3892 112.463 62.4645 112.819 62.4645C113.185 62.4645 113.479 62.3892 113.701 62.2386C113.925 62.0881 114.037 61.902 114.037 61.6804C114.037 61.4929 113.965 61.3381 113.82 61.2159C113.678 61.0937 113.456 61 113.155 60.9347L112.039 60.7003C111.411 60.5696 110.946 60.3494 110.645 60.0398C110.344 59.7273 110.195 59.3324 110.198 58.8551C110.195 58.4517 110.304 58.1023 110.526 57.8068C110.75 57.5085 111.061 57.2784 111.459 57.1165C111.86 56.9517 112.321 56.8693 112.844 56.8693C113.611 56.8693 114.215 57.0327 114.655 57.3594C115.098 57.6861 115.373 58.1278 115.478 58.6847ZM122.064 58.6847L120.657 58.8381C120.618 58.696 120.548 58.5625 120.449 58.4375C120.352 58.3125 120.221 58.2116 120.056 58.1349C119.892 58.0582 119.69 58.0199 119.451 58.0199C119.13 58.0199 118.86 58.0895 118.642 58.2287C118.426 58.3679 118.319 58.5483 118.322 58.7699C118.319 58.9602 118.389 59.1151 118.531 59.2344C118.676 59.3537 118.914 59.4517 119.247 59.5284L120.363 59.767C120.983 59.9006 121.443 60.1122 121.744 60.402C122.048 60.6918 122.201 61.071 122.204 61.5398C122.201 61.9517 122.081 62.3153 121.842 62.6307C121.606 62.9432 121.278 63.1875 120.858 63.3636C120.437 63.5398 119.954 63.6278 119.409 63.6278C118.608 63.6278 117.963 63.4602 117.474 63.125C116.985 62.7869 116.694 62.3168 116.6 61.7145L118.105 61.5696C118.173 61.8651 118.318 62.0881 118.539 62.2386C118.761 62.3892 119.049 62.4645 119.404 62.4645C119.771 62.4645 120.065 62.3892 120.287 62.2386C120.511 62.0881 120.623 61.902 120.623 61.6804C120.623 61.4929 120.551 61.3381 120.406 61.2159C120.264 61.0937 120.042 61 119.741 60.9347L118.625 60.7003C117.997 60.5696 117.532 60.3494 117.231 60.0398C116.93 59.7273 116.781 59.3324 116.784 58.8551C116.781 58.4517 116.89 58.1023 117.112 57.8068C117.336 57.5085 117.647 57.2784 118.045 57.1165C118.446 56.9517 118.907 56.8693 119.43 56.8693C120.197 56.8693 120.801 57.0327 121.241 57.3594C121.684 57.6861 121.958 58.1278 122.064 58.6847Z" fill="white"/>
</g>
<path d="M52.4375 121.131C52.3466 120.324 51.9716 119.699 51.3125 119.256C50.6534 118.807 49.8239 118.582 48.8239 118.582C48.108 118.582 47.4886 118.696 46.9659 118.923C46.4432 119.145 46.0369 119.452 45.7472 119.844C45.4631 120.23 45.321 120.67 45.321 121.165C45.321 121.58 45.4176 121.937 45.6108 122.239C45.8097 122.54 46.0682 122.793 46.3864 122.997C46.7102 123.196 47.0568 123.364 47.4261 123.5C47.7955 123.631 48.1506 123.739 48.4915 123.824L50.196 124.267C50.7528 124.403 51.3239 124.588 51.9091 124.821C52.4943 125.054 53.0369 125.361 53.5369 125.741C54.0369 126.122 54.4403 126.594 54.7472 127.156C55.0597 127.719 55.2159 128.392 55.2159 129.176C55.2159 130.165 54.9602 131.043 54.4489 131.81C53.9432 132.577 53.2074 133.182 52.2415 133.625C51.2813 134.068 50.1193 134.29 48.7557 134.29C47.4489 134.29 46.3182 134.082 45.3636 133.668C44.4091 133.253 43.6619 132.665 43.1222 131.903C42.5824 131.136 42.2841 130.227 42.2273 129.176H44.8693C44.9205 129.807 45.125 130.332 45.483 130.753C45.8466 131.168 46.3097 131.477 46.8722 131.682C47.4403 131.881 48.0625 131.98 48.7386 131.98C49.483 131.98 50.1449 131.864 50.7244 131.631C51.3097 131.392 51.7699 131.062 52.1051 130.642C52.4403 130.216 52.608 129.719 52.608 129.151C52.608 128.634 52.4602 128.21 52.1648 127.881C51.875 127.551 51.4801 127.278 50.9801 127.062C50.4858 126.847 49.9261 126.656 49.3011 126.491L47.2386 125.929C45.8409 125.548 44.733 124.989 43.9148 124.25C43.1023 123.511 42.696 122.534 42.696 121.318C42.696 120.312 42.9688 119.435 43.5142 118.685C44.0597 117.935 44.7983 117.352 45.7301 116.938C46.6619 116.517 47.7131 116.307 48.8835 116.307C50.0653 116.307 51.108 116.514 52.0114 116.929C52.9205 117.344 53.6364 117.915 54.1591 118.642C54.6818 119.364 54.9545 120.193 54.9773 121.131H52.4375ZM64.2692 120.909V122.955H57.1186V120.909H64.2692ZM59.0362 117.773H61.5845V130.156C61.5845 130.651 61.6584 131.023 61.8061 131.273C61.9538 131.517 62.1442 131.685 62.3771 131.776C62.6158 131.861 62.8743 131.903 63.1527 131.903C63.3572 131.903 63.5362 131.889 63.6896 131.861C63.843 131.832 63.9624 131.81 64.0476 131.793L64.5078 133.898C64.3601 133.955 64.1499 134.011 63.8771 134.068C63.6044 134.131 63.2635 134.165 62.8544 134.17C62.1839 134.182 61.5589 134.062 60.9794 133.812C60.3999 133.562 59.9311 133.176 59.5732 132.653C59.2152 132.131 59.0362 131.474 59.0362 130.685V117.773ZM67.0881 134V120.909H69.5511V122.989H69.6875C69.9261 122.284 70.3466 121.73 70.9489 121.327C71.5568 120.918 72.2443 120.713 73.0114 120.713C73.1705 120.713 73.358 120.719 73.5739 120.73C73.7955 120.741 73.9688 120.756 74.0938 120.773V123.21C73.9915 123.182 73.8097 123.151 73.5483 123.116C73.2869 123.077 73.0256 123.057 72.7642 123.057C72.1619 123.057 71.625 123.185 71.1534 123.44C70.6875 123.69 70.3182 124.04 70.0455 124.489C69.7727 124.932 69.6364 125.437 69.6364 126.006V134H67.0881ZM79.9915 134.29C79.1619 134.29 78.4119 134.136 77.7415 133.83C77.071 133.517 76.5398 133.065 76.1477 132.474C75.7614 131.884 75.5682 131.159 75.5682 130.301C75.5682 129.562 75.7102 128.955 75.9943 128.477C76.2784 128 76.6619 127.622 77.1449 127.344C77.6278 127.065 78.1676 126.855 78.7642 126.713C79.3608 126.571 79.9688 126.463 80.5881 126.389C81.3722 126.298 82.0085 126.224 82.4972 126.168C82.9858 126.105 83.3409 126.006 83.5625 125.869C83.7841 125.733 83.8949 125.511 83.8949 125.205V125.145C83.8949 124.401 83.6847 123.824 83.2642 123.415C82.8494 123.006 82.2301 122.801 81.4062 122.801C80.5483 122.801 79.8722 122.991 79.3778 123.372C78.8892 123.747 78.5511 124.165 78.3636 124.625L75.9688 124.08C76.2528 123.284 76.6676 122.642 77.2131 122.153C77.7642 121.659 78.3977 121.301 79.1136 121.08C79.8295 120.852 80.5824 120.739 81.3722 120.739C81.8949 120.739 82.4489 120.801 83.0341 120.926C83.625 121.045 84.1761 121.267 84.6875 121.591C85.2045 121.915 85.6278 122.378 85.9574 122.98C86.2869 123.577 86.4517 124.352 86.4517 125.307V134H83.9631V132.21H83.8608C83.696 132.54 83.4489 132.864 83.1193 133.182C82.7898 133.5 82.3665 133.764 81.8494 133.974C81.3324 134.185 80.7131 134.29 79.9915 134.29ZM80.5455 132.244C81.25 132.244 81.8523 132.105 82.3523 131.827C82.858 131.548 83.2415 131.185 83.5028 130.736C83.7699 130.281 83.9034 129.795 83.9034 129.278V127.591C83.8125 127.682 83.6364 127.767 83.375 127.847C83.1193 127.92 82.8267 127.986 82.4972 128.043C82.1676 128.094 81.8466 128.142 81.5341 128.188C81.2216 128.227 80.9602 128.261 80.75 128.29C80.2557 128.352 79.804 128.457 79.3949 128.605C78.9915 128.753 78.6676 128.966 78.4233 129.244C78.1847 129.517 78.0653 129.881 78.0653 130.335C78.0653 130.966 78.2983 131.443 78.7642 131.767C79.2301 132.085 79.8239 132.244 80.5455 132.244ZM95.9567 120.909V122.955H88.8061V120.909H95.9567ZM90.7237 117.773H93.272V130.156C93.272 130.651 93.3459 131.023 93.4936 131.273C93.6413 131.517 93.8317 131.685 94.0646 131.776C94.3033 131.861 94.5618 131.903 94.8402 131.903C95.0447 131.903 95.2237 131.889 95.3771 131.861C95.5305 131.832 95.6499 131.81 95.7351 131.793L96.1953 133.898C96.0476 133.955 95.8374 134.011 95.5646 134.068C95.2919 134.131 94.951 134.165 94.5419 134.17C93.8714 134.182 93.2464 134.062 92.6669 133.812C92.0874 133.562 91.6186 133.176 91.2607 132.653C90.9027 132.131 90.7237 131.474 90.7237 130.685V117.773ZM104.277 134.264C102.987 134.264 101.876 133.989 100.945 133.438C100.018 132.881 99.3026 132.099 98.7969 131.094C98.2969 130.082 98.0469 128.898 98.0469 127.54C98.0469 126.199 98.2969 125.017 98.7969 123.994C99.3026 122.972 100.007 122.173 100.911 121.599C101.82 121.026 102.882 120.739 104.098 120.739C104.837 120.739 105.553 120.861 106.246 121.105C106.939 121.349 107.561 121.733 108.112 122.256C108.663 122.778 109.098 123.457 109.416 124.293C109.734 125.122 109.893 126.131 109.893 127.318V128.222H99.4872V126.312H107.396C107.396 125.642 107.26 125.048 106.987 124.531C106.714 124.009 106.331 123.597 105.837 123.295C105.348 122.994 104.774 122.844 104.115 122.844C103.399 122.844 102.774 123.02 102.24 123.372C101.712 123.719 101.303 124.173 101.013 124.736C100.729 125.293 100.587 125.898 100.587 126.551V128.043C100.587 128.918 100.74 129.662 101.047 130.276C101.359 130.889 101.794 131.358 102.351 131.682C102.908 132 103.558 132.159 104.303 132.159C104.786 132.159 105.226 132.091 105.624 131.955C106.021 131.812 106.365 131.602 106.655 131.324C106.945 131.045 107.166 130.702 107.32 130.293L109.732 130.727C109.538 131.437 109.192 132.06 108.692 132.594C108.197 133.122 107.575 133.534 106.825 133.83C106.081 134.119 105.232 134.264 104.277 134.264ZM118.21 139.182C117.17 139.182 116.275 139.045 115.525 138.773C114.781 138.5 114.173 138.139 113.701 137.69C113.229 137.241 112.877 136.75 112.644 136.216L114.835 135.312C114.988 135.562 115.192 135.827 115.448 136.105C115.71 136.389 116.062 136.631 116.505 136.83C116.954 137.028 117.531 137.128 118.235 137.128C119.201 137.128 119.999 136.892 120.63 136.42C121.261 135.955 121.576 135.21 121.576 134.188V131.614H121.414C121.261 131.892 121.039 132.202 120.749 132.543C120.465 132.884 120.073 133.179 119.573 133.429C119.073 133.679 118.423 133.804 117.621 133.804C116.587 133.804 115.656 133.562 114.826 133.08C114.002 132.591 113.349 131.872 112.866 130.923C112.388 129.969 112.15 128.795 112.15 127.403C112.15 126.011 112.386 124.818 112.857 123.824C113.335 122.83 113.988 122.068 114.817 121.54C115.647 121.006 116.587 120.739 117.638 120.739C118.451 120.739 119.107 120.875 119.607 121.148C120.107 121.415 120.496 121.727 120.775 122.085C121.059 122.443 121.278 122.759 121.431 123.031H121.619V120.909H124.116V134.29C124.116 135.415 123.854 136.338 123.332 137.06C122.809 137.781 122.102 138.315 121.21 138.662C120.323 139.009 119.323 139.182 118.21 139.182ZM118.184 131.69C118.917 131.69 119.536 131.52 120.042 131.179C120.553 130.832 120.94 130.338 121.201 129.696C121.468 129.048 121.602 128.273 121.602 127.369C121.602 126.489 121.471 125.713 121.21 125.043C120.948 124.372 120.565 123.849 120.059 123.474C119.553 123.094 118.928 122.903 118.184 122.903C117.417 122.903 116.778 123.102 116.266 123.5C115.755 123.892 115.369 124.426 115.107 125.102C114.852 125.778 114.724 126.534 114.724 127.369C114.724 128.227 114.854 128.98 115.116 129.628C115.377 130.276 115.763 130.781 116.275 131.145C116.792 131.509 117.428 131.69 118.184 131.69ZM127.533 134V120.909H130.082V134H127.533ZM128.82 118.889C128.377 118.889 127.996 118.741 127.678 118.446C127.366 118.145 127.21 117.787 127.21 117.372C127.21 116.952 127.366 116.594 127.678 116.298C127.996 115.997 128.377 115.847 128.82 115.847C129.263 115.847 129.641 115.997 129.954 116.298C130.272 116.594 130.431 116.952 130.431 117.372C130.431 117.787 130.272 118.145 129.954 118.446C129.641 118.741 129.263 118.889 128.82 118.889ZM139.024 134.264C137.757 134.264 136.666 133.977 135.751 133.403C134.842 132.824 134.143 132.026 133.655 131.009C133.166 129.991 132.922 128.827 132.922 127.514C132.922 126.185 133.172 125.011 133.672 123.994C134.172 122.972 134.876 122.173 135.786 121.599C136.695 121.026 137.766 120.739 138.999 120.739C139.993 120.739 140.879 120.923 141.658 121.293C142.436 121.656 143.064 122.168 143.541 122.827C144.024 123.486 144.311 124.256 144.402 125.136H141.922C141.786 124.523 141.473 123.994 140.984 123.551C140.501 123.108 139.854 122.886 139.041 122.886C138.331 122.886 137.709 123.074 137.175 123.449C136.646 123.818 136.234 124.347 135.939 125.034C135.643 125.716 135.496 126.523 135.496 127.455C135.496 128.409 135.641 129.233 135.93 129.926C136.22 130.619 136.629 131.156 137.158 131.537C137.692 131.918 138.32 132.108 139.041 132.108C139.524 132.108 139.962 132.02 140.354 131.844C140.751 131.662 141.084 131.403 141.351 131.068C141.624 130.733 141.814 130.33 141.922 129.858H144.402C144.311 130.705 144.036 131.46 143.575 132.125C143.115 132.79 142.499 133.312 141.726 133.693C140.959 134.074 140.058 134.264 139.024 134.264ZM153.683 134V116.545H159.905C161.263 116.545 162.388 116.793 163.28 117.287C164.172 117.781 164.839 118.457 165.283 119.315C165.726 120.168 165.947 121.128 165.947 122.196C165.947 123.27 165.723 124.236 165.274 125.094C164.831 125.946 164.161 126.622 163.263 127.122C162.371 127.616 161.249 127.864 159.896 127.864H155.618V125.631H159.658C160.516 125.631 161.212 125.483 161.746 125.188C162.28 124.886 162.672 124.477 162.922 123.96C163.172 123.443 163.297 122.855 163.297 122.196C163.297 121.537 163.172 120.952 162.922 120.44C162.672 119.929 162.277 119.528 161.737 119.239C161.203 118.949 160.499 118.804 159.624 118.804H156.317V134H153.683ZM171.379 116.545V134H168.83V116.545H171.379ZM178.616 134.29C177.787 134.29 177.037 134.136 176.366 133.83C175.696 133.517 175.165 133.065 174.773 132.474C174.386 131.884 174.193 131.159 174.193 130.301C174.193 129.562 174.335 128.955 174.619 128.477C174.903 128 175.287 127.622 175.77 127.344C176.253 127.065 176.793 126.855 177.389 126.713C177.986 126.571 178.594 126.463 179.213 126.389C179.997 126.298 180.634 126.224 181.122 126.168C181.611 126.105 181.966 126.006 182.188 125.869C182.409 125.733 182.52 125.511 182.52 125.205V125.145C182.52 124.401 182.31 123.824 181.889 123.415C181.474 123.006 180.855 122.801 180.031 122.801C179.173 122.801 178.497 122.991 178.003 123.372C177.514 123.747 177.176 124.165 176.989 124.625L174.594 124.08C174.878 123.284 175.293 122.642 175.838 122.153C176.389 121.659 177.023 121.301 177.739 121.08C178.455 120.852 179.207 120.739 179.997 120.739C180.52 120.739 181.074 120.801 181.659 120.926C182.25 121.045 182.801 121.267 183.312 121.591C183.83 121.915 184.253 122.378 184.582 122.98C184.912 123.577 185.077 124.352 185.077 125.307V134H182.588V132.21H182.486C182.321 132.54 182.074 132.864 181.744 133.182C181.415 133.5 180.991 133.764 180.474 133.974C179.957 134.185 179.338 134.29 178.616 134.29ZM179.17 132.244C179.875 132.244 180.477 132.105 180.977 131.827C181.483 131.548 181.866 131.185 182.128 130.736C182.395 130.281 182.528 129.795 182.528 129.278V127.591C182.438 127.682 182.261 127.767 182 127.847C181.744 127.92 181.452 127.986 181.122 128.043C180.793 128.094 180.472 128.142 180.159 128.188C179.847 128.227 179.585 128.261 179.375 128.29C178.881 128.352 178.429 128.457 178.02 128.605C177.616 128.753 177.293 128.966 177.048 129.244C176.81 129.517 176.69 129.881 176.69 130.335C176.69 130.966 176.923 131.443 177.389 131.767C177.855 132.085 178.449 132.244 179.17 132.244ZM191.019 126.227V134H188.471V120.909H190.917V123.04H191.079C191.38 122.347 191.852 121.79 192.494 121.369C193.141 120.949 193.957 120.739 194.94 120.739C195.832 120.739 196.613 120.926 197.283 121.301C197.954 121.67 198.474 122.222 198.843 122.955C199.212 123.687 199.397 124.594 199.397 125.673V134H196.849V125.98C196.849 125.031 196.602 124.29 196.107 123.756C195.613 123.216 194.934 122.946 194.07 122.946C193.479 122.946 192.954 123.074 192.494 123.33C192.039 123.585 191.678 123.96 191.411 124.455C191.15 124.943 191.019 125.534 191.019 126.227ZM205.363 126.227V134H202.815V120.909H205.261V123.04H205.423C205.724 122.347 206.195 121.79 206.837 121.369C207.485 120.949 208.3 120.739 209.283 120.739C210.175 120.739 210.957 120.926 211.627 121.301C212.298 121.67 212.817 122.222 213.187 122.955C213.556 123.687 213.741 124.594 213.741 125.673V134H211.192V125.98C211.192 125.031 210.945 124.29 210.451 123.756C209.957 123.216 209.278 122.946 208.414 122.946C207.823 122.946 207.298 123.074 206.837 123.33C206.383 123.585 206.022 123.96 205.755 124.455C205.494 124.943 205.363 125.534 205.363 126.227ZM217.158 134V120.909H219.707V134H217.158ZM218.445 118.889C218.002 118.889 217.621 118.741 217.303 118.446C216.991 118.145 216.835 117.787 216.835 117.372C216.835 116.952 216.991 116.594 217.303 116.298C217.621 115.997 218.002 115.847 218.445 115.847C218.888 115.847 219.266 115.997 219.579 116.298C219.897 116.594 220.056 116.952 220.056 117.372C220.056 117.787 219.897 118.145 219.579 118.446C219.266 118.741 218.888 118.889 218.445 118.889ZM225.683 126.227V134H223.135V120.909H225.581V123.04H225.743C226.044 122.347 226.516 121.79 227.158 121.369C227.805 120.949 228.621 120.739 229.604 120.739C230.496 120.739 231.277 120.926 231.947 121.301C232.618 121.67 233.138 122.222 233.507 122.955C233.876 123.687 234.061 124.594 234.061 125.673V134H231.513V125.98C231.513 125.031 231.266 124.29 230.771 123.756C230.277 123.216 229.598 122.946 228.734 122.946C228.143 122.946 227.618 123.074 227.158 123.33C226.703 123.585 226.342 123.96 226.075 124.455C225.814 124.943 225.683 125.534 225.683 126.227ZM242.967 139.182C241.928 139.182 241.033 139.045 240.283 138.773C239.538 138.5 238.93 138.139 238.459 137.69C237.987 137.241 237.635 136.75 237.402 136.216L239.592 135.312C239.746 135.562 239.95 135.827 240.206 136.105C240.467 136.389 240.82 136.631 241.263 136.83C241.712 137.028 242.288 137.128 242.993 137.128C243.959 137.128 244.757 136.892 245.388 136.42C246.018 135.955 246.334 135.21 246.334 134.188V131.614H246.172C246.018 131.892 245.797 132.202 245.507 132.543C245.223 132.884 244.831 133.179 244.331 133.429C243.831 133.679 243.18 133.804 242.379 133.804C241.345 133.804 240.413 133.562 239.584 133.08C238.76 132.591 238.107 131.872 237.624 130.923C237.146 129.969 236.908 128.795 236.908 127.403C236.908 126.011 237.143 124.818 237.615 123.824C238.092 122.83 238.746 122.068 239.575 121.54C240.405 121.006 241.345 120.739 242.396 120.739C243.209 120.739 243.865 120.875 244.365 121.148C244.865 121.415 245.254 121.727 245.533 122.085C245.817 122.443 246.036 122.759 246.189 123.031H246.376V120.909H248.874V134.29C248.874 135.415 248.612 136.338 248.089 137.06C247.567 137.781 246.859 138.315 245.967 138.662C245.081 139.009 244.081 139.182 242.967 139.182ZM242.942 131.69C243.675 131.69 244.294 131.52 244.8 131.179C245.311 130.832 245.697 130.338 245.959 129.696C246.226 129.048 246.359 128.273 246.359 127.369C246.359 126.489 246.229 125.713 245.967 125.043C245.706 124.372 245.322 123.849 244.817 123.474C244.311 123.094 243.686 122.903 242.942 122.903C242.175 122.903 241.536 123.102 241.024 123.5C240.513 123.892 240.126 124.426 239.865 125.102C239.609 125.778 239.482 126.534 239.482 127.369C239.482 128.227 239.612 128.98 239.874 129.628C240.135 130.276 240.521 130.781 241.033 131.145C241.55 131.509 242.186 131.69 242.942 131.69ZM48.9432 154.909V156.955H41.5455V154.909H48.9432ZM43.5739 168V153.392C43.5739 152.574 43.7528 151.895 44.1108 151.355C44.4688 150.81 44.9432 150.403 45.5341 150.136C46.125 149.864 46.767 149.727 47.4602 149.727C47.9716 149.727 48.4091 149.77 48.7727 149.855C49.1364 149.935 49.4062 150.009 49.5824 150.077L48.9858 152.139C48.8665 152.105 48.7131 152.065 48.5256 152.02C48.3381 151.969 48.1108 151.943 47.8438 151.943C47.2244 151.943 46.7813 152.097 46.5142 152.403C46.2528 152.71 46.1222 153.153 46.1222 153.733V168H43.5739ZM56.571 168.264C55.3438 168.264 54.2727 167.983 53.358 167.42C52.4432 166.858 51.733 166.071 51.2273 165.06C50.7216 164.048 50.4688 162.866 50.4688 161.514C50.4688 160.156 50.7216 158.969 51.2273 157.952C51.733 156.935 52.4432 156.145 53.358 155.582C54.2727 155.02 55.3438 154.739 56.571 154.739C57.7983 154.739 58.8693 155.02 59.7841 155.582C60.6989 156.145 61.4091 156.935 61.9148 157.952C62.4205 158.969 62.6733 160.156 62.6733 161.514C62.6733 162.866 62.4205 164.048 61.9148 165.06C61.4091 166.071 60.6989 166.858 59.7841 167.42C58.8693 167.983 57.7983 168.264 56.571 168.264ZM56.5795 166.125C57.375 166.125 58.0341 165.915 58.5568 165.494C59.0795 165.074 59.4659 164.514 59.7159 163.815C59.9716 163.116 60.0994 162.347 60.0994 161.506C60.0994 160.67 59.9716 159.903 59.7159 159.205C59.4659 158.5 59.0795 157.935 58.5568 157.509C58.0341 157.082 57.375 156.869 56.5795 156.869C55.7784 156.869 55.1136 157.082 54.5852 157.509C54.0625 157.935 53.6733 158.5 53.4176 159.205C53.1676 159.903 53.0426 160.67 53.0426 161.506C53.0426 162.347 53.1676 163.116 53.4176 163.815C53.6733 164.514 54.0625 165.074 54.5852 165.494C55.1136 165.915 55.7784 166.125 56.5795 166.125ZM65.5178 168V154.909H67.9808V156.989H68.1172C68.3558 156.284 68.7763 155.73 69.3786 155.327C69.9865 154.918 70.674 154.713 71.4411 154.713C71.6001 154.713 71.7876 154.719 72.0036 154.73C72.2251 154.741 72.3984 154.756 72.5234 154.773V157.21C72.4212 157.182 72.2393 157.151 71.978 157.116C71.7166 157.077 71.4553 157.057 71.1939 157.057C70.5916 157.057 70.0547 157.185 69.5831 157.44C69.1172 157.69 68.7479 158.04 68.4751 158.489C68.2024 158.932 68.0661 159.437 68.0661 160.006V168H65.5178ZM90.8047 155.131C90.7138 154.324 90.3388 153.699 89.6797 153.256C89.0206 152.807 88.1911 152.582 87.1911 152.582C86.4751 152.582 85.8558 152.696 85.3331 152.923C84.8104 153.145 84.4041 153.452 84.1143 153.844C83.8303 154.23 83.6882 154.67 83.6882 155.165C83.6882 155.58 83.7848 155.937 83.978 156.239C84.1768 156.54 84.4354 156.793 84.7536 156.997C85.0774 157.196 85.424 157.364 85.7933 157.5C86.1626 157.631 86.5178 157.739 86.8587 157.824L88.5632 158.267C89.12 158.403 89.6911 158.588 90.2763 158.821C90.8615 159.054 91.4041 159.361 91.9041 159.741C92.4041 160.122 92.8075 160.594 93.1143 161.156C93.4268 161.719 93.5831 162.392 93.5831 163.176C93.5831 164.165 93.3274 165.043 92.8161 165.81C92.3104 166.577 91.5746 167.182 90.6087 167.625C89.6484 168.068 88.4865 168.29 87.1229 168.29C85.8161 168.29 84.6854 168.082 83.7308 167.668C82.7763 167.253 82.0291 166.665 81.4893 165.903C80.9496 165.136 80.6513 164.227 80.5945 163.176H83.2365C83.2876 163.807 83.4922 164.332 83.8501 164.753C84.2138 165.168 84.6768 165.477 85.2393 165.682C85.8075 165.881 86.4297 165.98 87.1058 165.98C87.8501 165.98 88.5121 165.864 89.0916 165.631C89.6768 165.392 90.1371 165.062 90.4723 164.642C90.8075 164.216 90.9751 163.719 90.9751 163.151C90.9751 162.634 90.8274 162.21 90.532 161.881C90.2422 161.551 89.8473 161.278 89.3473 161.062C88.853 160.847 88.2933 160.656 87.6683 160.491L85.6058 159.929C84.2081 159.548 83.1001 158.989 82.282 158.25C81.4695 157.511 81.0632 156.534 81.0632 155.318C81.0632 154.312 81.3359 153.435 81.8814 152.685C82.4268 151.935 83.1655 151.352 84.0973 150.938C85.0291 150.517 86.0803 150.307 87.2507 150.307C88.4325 150.307 89.4751 150.514 90.3786 150.929C91.2876 151.344 92.0036 151.915 92.5263 152.642C93.049 153.364 93.3217 154.193 93.3445 155.131H90.8047ZM104.818 162.571V154.909H107.375V168H104.869V165.733H104.733C104.432 166.432 103.949 167.014 103.284 167.48C102.625 167.94 101.804 168.17 100.821 168.17C99.9801 168.17 99.2358 167.986 98.5881 167.616C97.946 167.241 97.4403 166.688 97.071 165.955C96.7074 165.222 96.5256 164.315 96.5256 163.236V154.909H99.0739V162.929C99.0739 163.821 99.321 164.531 99.8153 165.06C100.31 165.588 100.952 165.852 101.741 165.852C102.219 165.852 102.693 165.733 103.165 165.494C103.642 165.256 104.037 164.895 104.349 164.412C104.668 163.929 104.824 163.315 104.818 162.571ZM116.313 168.264C115.046 168.264 113.955 167.977 113.04 167.403C112.131 166.824 111.433 166.026 110.944 165.009C110.455 163.991 110.211 162.827 110.211 161.514C110.211 160.185 110.461 159.011 110.961 157.994C111.461 156.972 112.165 156.173 113.075 155.599C113.984 155.026 115.055 154.739 116.288 154.739C117.282 154.739 118.168 154.923 118.947 155.293C119.725 155.656 120.353 156.168 120.83 156.827C121.313 157.486 121.6 158.256 121.691 159.136H119.211C119.075 158.523 118.762 157.994 118.273 157.551C117.79 157.108 117.143 156.886 116.33 156.886C115.62 156.886 114.998 157.074 114.464 157.449C113.935 157.818 113.523 158.347 113.228 159.034C112.933 159.716 112.785 160.523 112.785 161.455C112.785 162.409 112.93 163.233 113.219 163.926C113.509 164.619 113.918 165.156 114.447 165.537C114.981 165.918 115.609 166.108 116.33 166.108C116.813 166.108 117.251 166.02 117.643 165.844C118.04 165.662 118.373 165.403 118.64 165.068C118.913 164.733 119.103 164.33 119.211 163.858H121.691C121.6 164.705 121.325 165.46 120.864 166.125C120.404 166.79 119.788 167.312 119.015 167.693C118.248 168.074 117.347 168.264 116.313 168.264ZM129.93 168.264C128.663 168.264 127.572 167.977 126.658 167.403C125.749 166.824 125.05 166.026 124.561 165.009C124.072 163.991 123.828 162.827 123.828 161.514C123.828 160.185 124.078 159.011 124.578 157.994C125.078 156.972 125.783 156.173 126.692 155.599C127.601 155.026 128.672 154.739 129.905 154.739C130.899 154.739 131.786 154.923 132.564 155.293C133.342 155.656 133.97 156.168 134.447 156.827C134.93 157.486 135.217 158.256 135.308 159.136H132.828C132.692 158.523 132.379 157.994 131.891 157.551C131.408 157.108 130.76 156.886 129.947 156.886C129.237 156.886 128.615 157.074 128.081 157.449C127.553 157.818 127.141 158.347 126.845 159.034C126.55 159.716 126.402 160.523 126.402 161.455C126.402 162.409 126.547 163.233 126.837 163.926C127.126 164.619 127.536 165.156 128.064 165.537C128.598 165.918 129.226 166.108 129.947 166.108C130.43 166.108 130.868 166.02 131.26 165.844C131.658 165.662 131.99 165.403 132.257 165.068C132.53 164.733 132.72 164.33 132.828 163.858H135.308C135.217 164.705 134.942 165.46 134.482 166.125C134.021 166.79 133.405 167.312 132.632 167.693C131.865 168.074 130.964 168.264 129.93 168.264ZM143.675 168.264C142.386 168.264 141.275 167.989 140.343 167.438C139.417 166.881 138.701 166.099 138.195 165.094C137.695 164.082 137.445 162.898 137.445 161.54C137.445 160.199 137.695 159.017 138.195 157.994C138.701 156.972 139.406 156.173 140.309 155.599C141.218 155.026 142.281 154.739 143.496 154.739C144.235 154.739 144.951 154.861 145.644 155.105C146.337 155.349 146.96 155.733 147.511 156.256C148.062 156.778 148.496 157.457 148.815 158.293C149.133 159.122 149.292 160.131 149.292 161.318V162.222H138.886V160.312H146.795C146.795 159.642 146.658 159.048 146.386 158.531C146.113 158.009 145.729 157.597 145.235 157.295C144.746 156.994 144.173 156.844 143.513 156.844C142.798 156.844 142.173 157.02 141.638 157.372C141.11 157.719 140.701 158.173 140.411 158.736C140.127 159.293 139.985 159.898 139.985 160.551V162.043C139.985 162.918 140.138 163.662 140.445 164.276C140.758 164.889 141.192 165.358 141.749 165.682C142.306 166 142.957 166.159 143.701 166.159C144.184 166.159 144.624 166.091 145.022 165.955C145.42 165.812 145.763 165.602 146.053 165.324C146.343 165.045 146.565 164.702 146.718 164.293L149.13 164.727C148.937 165.437 148.59 166.06 148.09 166.594C147.596 167.122 146.974 167.534 146.224 167.83C145.479 168.119 144.63 168.264 143.675 168.264ZM161.929 158.105L159.619 158.514C159.523 158.219 159.369 157.937 159.159 157.67C158.955 157.403 158.676 157.185 158.324 157.014C157.972 156.844 157.531 156.759 157.003 156.759C156.281 156.759 155.679 156.92 155.196 157.244C154.713 157.562 154.472 157.974 154.472 158.48C154.472 158.918 154.634 159.27 154.957 159.537C155.281 159.804 155.804 160.023 156.526 160.193L158.605 160.67C159.81 160.949 160.707 161.378 161.298 161.957C161.889 162.537 162.185 163.29 162.185 164.216C162.185 165 161.957 165.699 161.503 166.312C161.054 166.92 160.426 167.398 159.619 167.744C158.818 168.091 157.889 168.264 156.832 168.264C155.366 168.264 154.17 167.952 153.244 167.327C152.318 166.696 151.75 165.801 151.54 164.642L154.003 164.267C154.156 164.909 154.472 165.395 154.949 165.724C155.426 166.048 156.048 166.21 156.815 166.21C157.651 166.21 158.318 166.037 158.818 165.69C159.318 165.338 159.568 164.909 159.568 164.403C159.568 163.994 159.415 163.651 159.108 163.372C158.807 163.094 158.344 162.884 157.719 162.741L155.503 162.256C154.281 161.977 153.378 161.534 152.793 160.926C152.213 160.318 151.923 159.548 151.923 158.616C151.923 157.844 152.139 157.168 152.571 156.588C153.003 156.009 153.599 155.557 154.361 155.233C155.122 154.903 155.994 154.739 156.977 154.739C158.392 154.739 159.506 155.045 160.318 155.659C161.131 156.267 161.668 157.082 161.929 158.105ZM174.796 158.105L172.487 158.514C172.39 158.219 172.237 157.937 172.026 157.67C171.822 157.403 171.543 157.185 171.191 157.014C170.839 156.844 170.398 156.759 169.87 156.759C169.148 156.759 168.546 156.92 168.063 157.244C167.58 157.562 167.339 157.974 167.339 158.48C167.339 158.918 167.501 159.27 167.825 159.537C168.148 159.804 168.671 160.023 169.393 160.193L171.472 160.67C172.677 160.949 173.575 161.378 174.165 161.957C174.756 162.537 175.052 163.29 175.052 164.216C175.052 165 174.825 165.699 174.37 166.312C173.921 166.92 173.293 167.398 172.487 167.744C171.685 168.091 170.756 168.264 169.7 168.264C168.234 168.264 167.038 167.952 166.112 167.327C165.185 166.696 164.617 165.801 164.407 164.642L166.87 164.267C167.023 164.909 167.339 165.395 167.816 165.724C168.293 166.048 168.915 166.21 169.683 166.21C170.518 166.21 171.185 166.037 171.685 165.69C172.185 165.338 172.435 164.909 172.435 164.403C172.435 163.994 172.282 163.651 171.975 163.372C171.674 163.094 171.211 162.884 170.586 162.741L168.37 162.256C167.148 161.977 166.245 161.534 165.66 160.926C165.08 160.318 164.79 159.548 164.79 158.616C164.79 157.844 165.006 157.168 165.438 156.588C165.87 156.009 166.467 155.557 167.228 155.233C167.989 154.903 168.862 154.739 169.844 154.739C171.259 154.739 172.373 155.045 173.185 155.659C173.998 156.267 174.535 157.082 174.796 158.105ZM184.205 168V154.909H186.754V168H184.205ZM185.492 152.889C185.049 152.889 184.668 152.741 184.35 152.446C184.038 152.145 183.881 151.787 183.881 151.372C183.881 150.952 184.038 150.594 184.35 150.298C184.668 149.997 185.049 149.847 185.492 149.847C185.935 149.847 186.313 149.997 186.626 150.298C186.944 150.594 187.103 150.952 187.103 151.372C187.103 151.787 186.944 152.145 186.626 152.446C186.313 152.741 185.935 152.889 185.492 152.889ZM192.73 160.227V168H190.182V154.909H192.628V157.04H192.79C193.091 156.347 193.563 155.79 194.205 155.369C194.852 154.949 195.668 154.739 196.651 154.739C197.543 154.739 198.324 154.926 198.994 155.301C199.665 155.67 200.185 156.222 200.554 156.955C200.923 157.687 201.108 158.594 201.108 159.673V168H198.56V159.98C198.56 159.031 198.313 158.29 197.818 157.756C197.324 157.216 196.645 156.946 195.781 156.946C195.19 156.946 194.665 157.074 194.205 157.33C193.75 157.585 193.389 157.96 193.122 158.455C192.861 158.943 192.73 159.534 192.73 160.227ZM217.499 162.341H220.09L221.914 164.719L222.775 165.776L225.681 169.568H222.988L221.045 167.037L220.38 166.116L217.499 162.341ZM226.244 159.273C226.244 161.136 225.903 162.739 225.221 164.08C224.539 165.415 223.604 166.443 222.417 167.165C221.235 167.881 219.891 168.239 218.386 168.239C216.874 168.239 215.525 167.881 214.337 167.165C213.156 166.443 212.224 165.412 211.542 164.071C210.86 162.73 210.519 161.131 210.519 159.273C210.519 157.409 210.86 155.81 211.542 154.474C212.224 153.134 213.156 152.105 214.337 151.389C215.525 150.668 216.874 150.307 218.386 150.307C219.891 150.307 221.235 150.668 222.417 151.389C223.604 152.105 224.539 153.134 225.221 154.474C225.903 155.81 226.244 157.409 226.244 159.273ZM223.636 159.273C223.636 157.852 223.406 156.656 222.945 155.685C222.491 154.707 221.866 153.969 221.07 153.469C220.281 152.963 219.386 152.71 218.386 152.71C217.38 152.71 216.482 152.963 215.692 153.469C214.903 153.969 214.278 154.707 213.817 155.685C213.363 156.656 213.136 157.852 213.136 159.273C213.136 160.693 213.363 161.892 213.817 162.869C214.278 163.841 214.903 164.58 215.692 165.085C216.482 165.585 217.38 165.835 218.386 165.835C219.386 165.835 220.281 165.585 221.07 165.085C221.866 164.58 222.491 163.841 222.945 162.869C223.406 161.892 223.636 160.693 223.636 159.273ZM235.911 150.545V168H233.268V153.188H233.166L228.99 155.915V153.392L233.345 150.545H235.911Z" fill="white"/>
<rect x="41" y="192" width="262" height="6" rx="3" fill="#6286FF"/>
<rect x="41" y="192" width="160" height="6" rx="3" fill="white"/>
</g>
<defs>
<filter id="filter0_d_2_5926" x="0" y="0" width="352" height="314" filterUnits="userSpaceOnUse" color-interpolation-filters="sRGB">
<feFlood flood-opacity="0" result="BackgroundImageFix"/>
<feColorMatrix in="SourceAlpha" type="matrix" values="0 0 0 0 0 0 0 0 0 0 0 0 0 0 0 0 0 0 127 0" result="hardAlpha"/>
<feMorphology radius="1" operator="dilate" in="SourceAlpha" result="effect1_dropShadow_2_5926"/>
<feOffset dx="4" dy="2"/>
<feGaussianBlur stdDeviation="10"/>
<feComposite in2="hardAlpha" operator="out"/>
<feColorMatrix type="matrix" values="0 0 0 0 0.580392 0 0 0 0 0.580392 0 0 0 0 0.580392 0 0 0 0.06 0"/>
<feBlend mode="normal" in2="BackgroundImageFix" result="effect1_dropShadow_2_5926"/>
<feBlend mode="normal" in="SourceGraphic" in2="effect1_dropShadow_2_5926" result="shape"/>
</filter>
<filter id="filter1_b_2_5926" x="-7" y="-5" width="194" height="128" filterUnits="userSpaceOnUse" color-interpolation-filters="sRGB">
<feFlood flood-opacity="0" result="BackgroundImageFix"/>
<feGaussianBlur in="BackgroundImageFix" stdDeviation="24"/>
<feComposite in2="SourceAlpha" operator="in" result="effect1_backgroundBlur_2_5926"/>
<feBlend mode="normal" in="SourceGraphic" in2="effect1_backgroundBlur_2_5926" result="shape"/>
</filter>
</defs>
</svg>
