<svg width="310" height="258" viewBox="0 0 310 258" fill="none" xmlns="http://www.w3.org/2000/svg">
<rect width="310" height="258" rx="16" fill="white"/>
<rect x="0.5" y="0.5" width="309" height="257" rx="15.5" stroke="#919295" stroke-opacity="0.2"/>
<circle cx="28" cy="38" r="4" fill="#FFB23B"/>
<path d="M46.3068 45H41.598V30.4545H46.456C47.8812 30.4545 49.1051 30.7457 50.1278 31.3281C51.1506 31.9058 51.9342 32.7367 52.4787 33.821C53.0279 34.9006 53.3026 36.1955 53.3026 37.706C53.3026 39.2211 53.0256 40.5232 52.4716 41.6122C51.9223 42.7012 51.1269 43.5393 50.0852 44.1264C49.0436 44.7088 47.7841 45 46.3068 45ZM43.7926 43.0824H46.1861C47.294 43.0824 48.215 42.8741 48.9489 42.4574C49.6828 42.036 50.232 41.4276 50.5966 40.6321C50.9612 39.8319 51.1435 38.8565 51.1435 37.706C51.1435 36.5649 50.9612 35.5966 50.5966 34.8011C50.2367 34.0057 49.6993 33.402 48.9844 32.9901C48.2694 32.5781 47.3816 32.3722 46.321 32.3722H43.7926V43.0824ZM60.5629 45.2202C59.488 45.2202 58.5624 44.9905 57.7859 44.5312C57.0141 44.0672 56.4175 43.4162 55.9961 42.5781C55.5794 41.7353 55.3711 40.7481 55.3711 39.6165C55.3711 38.4991 55.5794 37.5142 55.9961 36.6619C56.4175 35.8097 57.0046 35.1444 57.7575 34.6662C58.515 34.188 59.4004 33.9489 60.4137 33.9489C61.0292 33.9489 61.6258 34.0507 62.2035 34.2543C62.7811 34.4579 63.2996 34.7775 63.7589 35.2131C64.2182 35.6487 64.5804 36.2145 64.8455 36.9105C65.1107 37.6018 65.2433 38.4422 65.2433 39.4318V40.1847H56.5714V38.5938H63.1623C63.1623 38.035 63.0487 37.5402 62.8214 37.1094C62.5941 36.6738 62.2745 36.3305 61.8626 36.0795C61.4554 35.8286 60.9772 35.7031 60.4279 35.7031C59.8313 35.7031 59.3105 35.8499 58.8654 36.1435C58.4251 36.4323 58.0842 36.8111 57.8427 37.2798C57.6059 37.7438 57.4876 38.2481 57.4876 38.7926V40.0355C57.4876 40.7647 57.6154 41.3849 57.8711 41.8963C58.1315 42.4077 58.4937 42.7983 58.9577 43.0682C59.4218 43.3333 59.9639 43.4659 60.5842 43.4659C60.9866 43.4659 61.3536 43.4091 61.685 43.2955C62.0165 43.1771 62.3029 43.0019 62.5444 42.7699C62.7859 42.5379 62.9705 42.2514 63.0984 41.9105L65.1083 42.2727C64.9473 42.8646 64.6585 43.383 64.2418 43.8281C63.8299 44.2685 63.3114 44.6117 62.6864 44.858C62.0662 45.0994 61.3583 45.2202 60.5629 45.2202ZM75.7741 36.7543L73.8494 37.0952C73.7689 36.849 73.6411 36.6146 73.4659 36.392C73.2955 36.1695 73.0634 35.9872 72.7699 35.8452C72.4763 35.7031 72.1094 35.6321 71.669 35.6321C71.0677 35.6321 70.5658 35.767 70.1634 36.0369C69.7609 36.3021 69.5597 36.6454 69.5597 37.0668C69.5597 37.4313 69.6946 37.7249 69.9645 37.9474C70.2344 38.17 70.67 38.3523 71.2713 38.4943L73.0043 38.892C74.008 39.1241 74.7562 39.4815 75.2486 39.9645C75.741 40.4474 75.9872 41.0748 75.9872 41.8466C75.9872 42.5 75.7978 43.0824 75.419 43.5938C75.045 44.1004 74.5218 44.4981 73.8494 44.7869C73.1818 45.0758 72.4077 45.2202 71.527 45.2202C70.3054 45.2202 69.3087 44.9598 68.5369 44.4389C67.7652 43.9134 67.2917 43.1676 67.1165 42.2017L69.169 41.8892C69.2969 42.4242 69.5597 42.8291 69.9574 43.1037C70.3551 43.3736 70.8736 43.5085 71.5128 43.5085C72.2088 43.5085 72.7652 43.3641 73.1818 43.0753C73.5985 42.7817 73.8068 42.4242 73.8068 42.0028C73.8068 41.6619 73.679 41.3755 73.4233 41.1435C73.1723 40.9115 72.7865 40.7363 72.2656 40.6179L70.419 40.2131C69.401 39.9811 68.6482 39.6117 68.1605 39.1051C67.6776 38.5985 67.4361 37.9569 67.4361 37.1804C67.4361 36.5365 67.616 35.973 67.9759 35.4901C68.3357 35.0071 68.8329 34.6307 69.4673 34.3608C70.1018 34.0862 70.8286 33.9489 71.6477 33.9489C72.8267 33.9489 73.7547 34.2045 74.4318 34.7159C75.1089 35.2225 75.5563 35.902 75.7741 36.7543ZM78.3221 45V34.0909H80.4457V45H78.3221ZM79.3945 32.4077C79.0252 32.4077 78.708 32.2846 78.4428 32.0384C78.1824 31.7874 78.0522 31.4891 78.0522 31.1435C78.0522 30.7931 78.1824 30.4948 78.4428 30.2486C78.708 29.9976 79.0252 29.8722 79.3945 29.8722C79.7638 29.8722 80.0787 29.9976 80.3391 30.2486C80.6043 30.4948 80.7369 30.7931 80.7369 31.1435C80.7369 31.4891 80.6043 31.7874 80.3391 32.0384C80.0787 32.2846 79.7638 32.4077 79.3945 32.4077ZM87.8764 49.3182C87.0099 49.3182 86.2642 49.2045 85.6392 48.9773C85.0189 48.75 84.5123 48.4493 84.1193 48.0753C83.7263 47.7012 83.4328 47.2917 83.2386 46.8466L85.0639 46.0938C85.1918 46.3021 85.3622 46.5223 85.5753 46.7543C85.7931 46.991 86.0866 47.1922 86.456 47.358C86.83 47.5237 87.3106 47.6065 87.8977 47.6065C88.7027 47.6065 89.3679 47.41 89.8935 47.017C90.419 46.6288 90.6818 46.0085 90.6818 45.1562V43.0114H90.5469C90.419 43.2434 90.2344 43.5014 89.9929 43.7855C89.7562 44.0696 89.4295 44.3158 89.0128 44.5241C88.5961 44.7325 88.054 44.8366 87.3864 44.8366C86.5246 44.8366 85.7481 44.6354 85.0568 44.233C84.3703 43.8258 83.8258 43.2268 83.4233 42.4361C83.0256 41.6406 82.8267 40.6629 82.8267 39.5028C82.8267 38.3428 83.0232 37.3485 83.4162 36.5199C83.8139 35.6913 84.3584 35.0568 85.0497 34.6165C85.741 34.1714 86.5246 33.9489 87.4006 33.9489C88.0777 33.9489 88.6245 34.0625 89.0412 34.2898C89.4579 34.5123 89.7822 34.7727 90.0142 35.071C90.2509 35.3693 90.4332 35.6321 90.5611 35.8594H90.7173V34.0909H92.7983V45.2415C92.7983 46.179 92.5805 46.9484 92.1449 47.5497C91.7093 48.151 91.1198 48.5961 90.3764 48.8849C89.6378 49.1738 88.8045 49.3182 87.8764 49.3182ZM87.8551 43.0753C88.4659 43.0753 88.982 42.9332 89.4034 42.6491C89.8295 42.3603 90.1515 41.9484 90.3693 41.4134C90.5919 40.8736 90.7031 40.2273 90.7031 39.4744C90.7031 38.7405 90.5942 38.0942 90.3764 37.5355C90.1586 36.9768 89.839 36.5412 89.4176 36.2287C88.9962 35.9115 88.4754 35.7528 87.8551 35.7528C87.2159 35.7528 86.6832 35.9186 86.2571 36.25C85.831 36.5767 85.509 37.0218 85.2912 37.5852C85.0781 38.1487 84.9716 38.7784 84.9716 39.4744C84.9716 40.1894 85.0805 40.8168 85.2983 41.3565C85.5161 41.8963 85.8381 42.3177 86.2642 42.6207C86.6951 42.9238 87.2254 43.0753 87.8551 43.0753ZM97.7699 38.5227V45H95.6463V34.0909H97.6847V35.8665H97.8196C98.0705 35.2888 98.4635 34.8248 98.9986 34.4744C99.5384 34.1241 100.218 33.9489 101.037 33.9489C101.78 33.9489 102.431 34.1051 102.99 34.4176C103.549 34.7254 103.982 35.1847 104.29 35.7955C104.598 36.4062 104.751 37.1615 104.751 38.0611V45H102.628V38.3168C102.628 37.526 102.422 36.9081 102.01 36.4631C101.598 36.0133 101.032 35.7884 100.312 35.7884C99.8201 35.7884 99.3821 35.8949 98.9986 36.108C98.6198 36.321 98.3191 36.6335 98.0966 37.0455C97.8788 37.4527 97.7699 37.9451 97.7699 38.5227ZM113.063 45V30.4545H118.248C119.379 30.4545 120.317 30.6605 121.06 31.0724C121.803 31.4844 122.36 32.0478 122.729 32.7628C123.098 33.473 123.283 34.2732 123.283 35.1634C123.283 36.0582 123.096 36.8632 122.722 37.5781C122.353 38.2884 121.794 38.8518 121.046 39.2685C120.302 39.6804 119.367 39.8864 118.24 39.8864H114.675V38.0256H118.042C118.757 38.0256 119.337 37.9025 119.782 37.6562C120.227 37.4053 120.553 37.0644 120.762 36.6335C120.97 36.2027 121.074 35.7126 121.074 35.1634C121.074 34.6141 120.97 34.1264 120.762 33.7003C120.553 33.2741 120.224 32.9403 119.775 32.6989C119.329 32.4574 118.742 32.3366 118.013 32.3366H115.257V45H113.063ZM125.685 45V34.0909H127.738V35.8239H127.852C128.05 35.2367 128.401 34.7751 128.903 34.4389C129.409 34.098 129.982 33.9276 130.621 33.9276C130.754 33.9276 130.91 33.9323 131.09 33.9418C131.275 33.9512 131.419 33.9631 131.523 33.9773V36.0085C131.438 35.9848 131.287 35.9588 131.069 35.9304C130.851 35.8973 130.633 35.8807 130.415 35.8807C129.914 35.8807 129.466 35.9872 129.073 36.2003C128.685 36.4086 128.377 36.6998 128.15 37.0739C127.923 37.4432 127.809 37.8646 127.809 38.3381V45H125.685ZM137.566 45.2202C136.543 45.2202 135.65 44.9858 134.888 44.517C134.126 44.0483 133.534 43.3925 133.113 42.5497C132.691 41.7069 132.48 40.7221 132.48 39.5952C132.48 38.4635 132.691 37.474 133.113 36.6264C133.534 35.7789 134.126 35.1207 134.888 34.652C135.65 34.1832 136.543 33.9489 137.566 33.9489C138.588 33.9489 139.481 34.1832 140.243 34.652C141.006 35.1207 141.597 35.7789 142.019 36.6264C142.44 37.474 142.651 38.4635 142.651 39.5952C142.651 40.7221 142.44 41.7069 142.019 42.5497C141.597 43.3925 141.006 44.0483 140.243 44.517C139.481 44.9858 138.588 45.2202 137.566 45.2202ZM137.573 43.4375C138.236 43.4375 138.785 43.2623 139.221 42.9119C139.656 42.5616 139.978 42.0952 140.186 41.5128C140.4 40.9304 140.506 40.2888 140.506 39.5881C140.506 38.892 140.4 38.2528 140.186 37.6705C139.978 37.0833 139.656 36.6122 139.221 36.2571C138.785 35.902 138.236 35.7244 137.573 35.7244C136.905 35.7244 136.351 35.902 135.911 36.2571C135.475 36.6122 135.151 37.0833 134.938 37.6705C134.73 38.2528 134.625 38.892 134.625 39.5881C134.625 40.2888 134.73 40.9304 134.938 41.5128C135.151 42.0952 135.475 42.5616 135.911 42.9119C136.351 43.2623 136.905 43.4375 137.573 43.4375ZM145.021 34.0909H147.145V45.7102C147.145 46.4394 147.012 47.0549 146.747 47.5568C146.487 48.0587 146.098 48.4399 145.582 48.7003C145.071 48.9607 144.439 49.0909 143.686 49.0909C143.61 49.0909 143.539 49.0909 143.473 49.0909C143.402 49.0909 143.329 49.0885 143.253 49.0838V47.2585C143.319 47.2585 143.378 47.2585 143.43 47.2585C143.478 47.2585 143.532 47.2585 143.594 47.2585C144.096 47.2585 144.458 47.1236 144.68 46.8537C144.908 46.5885 145.021 46.2027 145.021 45.696V34.0909ZM146.072 32.4077C145.703 32.4077 145.386 32.2846 145.121 32.0384C144.86 31.7874 144.73 31.4891 144.73 31.1435C144.73 30.7931 144.86 30.4948 145.121 30.2486C145.386 29.9976 145.703 29.8722 146.072 29.8722C146.442 29.8722 146.757 29.9976 147.017 30.2486C147.282 30.4948 147.415 30.7931 147.415 31.1435C147.415 31.4891 147.282 31.7874 147.017 32.0384C146.757 32.2846 146.442 32.4077 146.072 32.4077ZM154.703 45.2202C153.629 45.2202 152.703 44.9905 151.926 44.5312C151.155 44.0672 150.558 43.4162 150.137 42.5781C149.72 41.7353 149.512 40.7481 149.512 39.6165C149.512 38.4991 149.72 37.5142 150.137 36.6619C150.558 35.8097 151.145 35.1444 151.898 34.6662C152.656 34.188 153.541 33.9489 154.554 33.9489C155.17 33.9489 155.766 34.0507 156.344 34.2543C156.922 34.4579 157.44 34.7775 157.9 35.2131C158.359 35.6487 158.721 36.2145 158.986 36.9105C159.251 37.6018 159.384 38.4422 159.384 39.4318V40.1847H150.712V38.5938H157.303C157.303 38.035 157.189 37.5402 156.962 37.1094C156.735 36.6738 156.415 36.3305 156.003 36.0795C155.596 35.8286 155.118 35.7031 154.569 35.7031C153.972 35.7031 153.451 35.8499 153.006 36.1435C152.566 36.4323 152.225 36.8111 151.983 37.2798C151.747 37.7438 151.628 38.2481 151.628 38.7926V40.0355C151.628 40.7647 151.756 41.3849 152.012 41.8963C152.272 42.4077 152.634 42.7983 153.098 43.0682C153.562 43.3333 154.105 43.4659 154.725 43.4659C155.127 43.4659 155.494 43.4091 155.826 43.2955C156.157 43.1771 156.444 43.0019 156.685 42.7699C156.926 42.5379 157.111 42.2514 157.239 41.9105L159.249 42.2727C159.088 42.8646 158.799 43.383 158.382 43.8281C157.971 44.2685 157.452 44.6117 156.827 44.858C156.207 45.0994 155.499 45.2202 154.703 45.2202ZM166.335 45.2202C165.279 45.2202 164.37 44.9811 163.608 44.5028C162.85 44.0199 162.268 43.3546 161.861 42.5071C161.454 41.6596 161.25 40.6889 161.25 39.5952C161.25 38.4872 161.458 37.5095 161.875 36.6619C162.292 35.8097 162.879 35.1444 163.636 34.6662C164.394 34.188 165.286 33.9489 166.314 33.9489C167.143 33.9489 167.881 34.1027 168.53 34.4105C169.179 34.7135 169.702 35.1397 170.099 35.6889C170.502 36.2382 170.741 36.8797 170.817 37.6136H168.75C168.636 37.1023 168.376 36.6619 167.969 36.2926C167.566 35.9233 167.027 35.7386 166.349 35.7386C165.758 35.7386 165.239 35.8949 164.794 36.2074C164.354 36.5152 164.01 36.9555 163.764 37.5284C163.518 38.0966 163.395 38.7689 163.395 39.5455C163.395 40.3409 163.516 41.0275 163.757 41.6051C163.999 42.1828 164.339 42.6302 164.78 42.9474C165.225 43.2647 165.748 43.4233 166.349 43.4233C166.752 43.4233 167.116 43.3499 167.443 43.2031C167.775 43.0516 168.052 42.8362 168.274 42.5568C168.501 42.2775 168.66 41.9413 168.75 41.5483H170.817C170.741 42.2538 170.511 42.8835 170.128 43.4375C169.744 43.9915 169.231 44.4271 168.587 44.7443C167.947 45.0616 167.197 45.2202 166.335 45.2202ZM178.18 34.0909V35.7955H172.221V34.0909H178.18ZM173.819 31.4773H175.943V41.7969C175.943 42.2088 176.004 42.5189 176.127 42.7273C176.251 42.9309 176.409 43.0705 176.603 43.1463C176.802 43.2173 177.018 43.2528 177.25 43.2528C177.42 43.2528 177.569 43.241 177.697 43.2173C177.825 43.1937 177.924 43.1747 177.995 43.1605L178.379 44.9148C178.256 44.9621 178.081 45.0095 177.853 45.0568C177.626 45.1089 177.342 45.1373 177.001 45.142C176.442 45.1515 175.922 45.0521 175.439 44.8438C174.956 44.6354 174.565 44.3134 174.267 43.8778C173.968 43.4422 173.819 42.8954 173.819 42.2372V31.4773ZM188.528 36.7543L186.603 37.0952C186.523 36.849 186.395 36.6146 186.22 36.392C186.049 36.1695 185.817 35.9872 185.524 35.8452C185.23 35.7031 184.863 35.6321 184.423 35.6321C183.822 35.6321 183.32 35.767 182.917 36.0369C182.515 36.3021 182.314 36.6454 182.314 37.0668C182.314 37.4313 182.449 37.7249 182.718 37.9474C182.988 38.17 183.424 38.3523 184.025 38.4943L185.758 38.892C186.762 39.1241 187.51 39.4815 188.002 39.9645C188.495 40.4474 188.741 41.0748 188.741 41.8466C188.741 42.5 188.552 43.0824 188.173 43.5938C187.799 44.1004 187.276 44.4981 186.603 44.7869C185.936 45.0758 185.162 45.2202 184.281 45.2202C183.059 45.2202 182.063 44.9598 181.291 44.4389C180.519 43.9134 180.046 43.1676 179.87 42.2017L181.923 41.8892C182.051 42.4242 182.314 42.8291 182.711 43.1037C183.109 43.3736 183.627 43.5085 184.267 43.5085C184.963 43.5085 185.519 43.3641 185.936 43.0753C186.352 42.7817 186.561 42.4242 186.561 42.0028C186.561 41.6619 186.433 41.3755 186.177 41.1435C185.926 40.9115 185.54 40.7363 185.02 40.6179L183.173 40.2131C182.155 39.9811 181.402 39.6117 180.914 39.1051C180.431 38.5985 180.19 37.9569 180.19 37.1804C180.19 36.5365 180.37 35.973 180.73 35.4901C181.09 35.0071 181.587 34.6307 182.221 34.3608C182.856 34.0862 183.583 33.9489 184.402 33.9489C185.581 33.9489 186.509 34.2045 187.186 34.7159C187.863 35.2225 188.31 35.902 188.528 36.7543Z" fill="#101219"/>
<path d="M37.0568 73.2727H38.3182L41.2841 80.517H41.3864L44.3523 73.2727H45.6136V82H44.625V75.3693H44.5398L41.8125 82H40.858L38.1307 75.3693H38.0455V82H37.0568V73.2727Z" fill="#101219"/>
<path d="M76.746 74.2102V73.2727H83.2915V74.2102H80.5472V82H79.4904V74.2102H76.746Z" fill="#101219"/>
<path d="M115.976 82L113.589 73.2727H114.663L116.487 80.3807H116.572L118.43 73.2727H119.623L121.481 80.3807H121.566L123.39 73.2727H124.464L122.078 82H120.987L119.061 75.0455H118.993L117.066 82H115.976Z" fill="#101219"/>
<path d="M155.08 74.2102V73.2727H161.625V74.2102H158.881V82H157.824V74.2102H155.08Z" fill="#101219"/>
<path d="M192.723 82V73.2727H197.956V74.2102H193.78V77.1591H197.564V78.0966H193.78V82H192.723Z" fill="#101219"/>
<path d="M234.663 75.4545C234.612 75.0227 234.405 74.6875 234.041 74.4489C233.677 74.2102 233.231 74.0909 232.703 74.0909C232.316 74.0909 231.978 74.1534 231.689 74.2784C231.402 74.4034 231.177 74.5753 231.015 74.794C230.856 75.0128 230.777 75.2614 230.777 75.5398C230.777 75.7727 230.832 75.973 230.943 76.1406C231.057 76.3054 231.201 76.4432 231.378 76.554C231.554 76.6619 231.738 76.7514 231.932 76.8224C232.125 76.8906 232.302 76.946 232.464 76.9886L233.351 77.2273C233.578 77.2869 233.831 77.3693 234.109 77.4744C234.39 77.5795 234.659 77.723 234.914 77.9048C235.173 78.0838 235.386 78.3139 235.554 78.5952C235.721 78.8764 235.805 79.2216 235.805 79.6307C235.805 80.1023 235.682 80.5284 235.434 80.9091C235.19 81.2898 234.832 81.5923 234.36 81.8168C233.892 82.0412 233.322 82.1534 232.652 82.1534C232.027 82.1534 231.485 82.0526 231.028 81.8509C230.574 81.6491 230.216 81.3679 229.954 81.0071C229.696 80.6463 229.549 80.2273 229.515 79.75H230.606C230.635 80.0795 230.745 80.3523 230.939 80.5682C231.135 80.7812 231.382 80.9403 231.68 81.0455C231.981 81.1477 232.305 81.1989 232.652 81.1989C233.055 81.1989 233.417 81.1335 233.738 81.0028C234.059 80.8693 234.314 80.6847 234.501 80.4489C234.689 80.2102 234.782 79.9318 234.782 79.6136C234.782 79.3239 234.701 79.0881 234.539 78.9062C234.378 78.7244 234.164 78.5767 233.9 78.4631C233.636 78.3494 233.351 78.25 233.044 78.1648L231.97 77.858C231.288 77.6619 230.748 77.3821 230.351 77.0185C229.953 76.6548 229.754 76.179 229.754 75.5909C229.754 75.1023 229.886 74.6761 230.15 74.3125C230.417 73.946 230.775 73.6619 231.224 73.4602C231.676 73.2557 232.18 73.1534 232.737 73.1534C233.299 73.1534 233.799 73.2543 234.237 73.456C234.674 73.6548 235.021 73.9276 235.277 74.2741C235.535 74.6207 235.672 75.0142 235.686 75.4545H234.663Z" fill="#101219"/>
<path d="M271.83 75.4545C271.778 75.0227 271.571 74.6875 271.207 74.4489C270.844 74.2102 270.398 74.0909 269.869 74.0909C269.483 74.0909 269.145 74.1534 268.855 74.2784C268.568 74.4034 268.344 74.5753 268.182 74.794C268.023 75.0128 267.943 75.2614 267.943 75.5398C267.943 75.7727 267.999 75.973 268.109 76.1406C268.223 76.3054 268.368 76.4432 268.544 76.554C268.72 76.6619 268.905 76.7514 269.098 76.8224C269.291 76.8906 269.469 76.946 269.631 76.9886L270.517 77.2273C270.744 77.2869 270.997 77.3693 271.276 77.4744C271.557 77.5795 271.825 77.723 272.081 77.9048C272.339 78.0838 272.553 78.3139 272.72 78.5952C272.888 78.8764 272.972 79.2216 272.972 79.6307C272.972 80.1023 272.848 80.5284 272.601 80.9091C272.357 81.2898 271.999 81.5923 271.527 81.8168C271.058 82.0412 270.489 82.1534 269.818 82.1534C269.193 82.1534 268.652 82.0526 268.195 81.8509C267.74 81.6491 267.382 81.3679 267.121 81.0071C266.862 80.6463 266.716 80.2273 266.682 79.75H267.773C267.801 80.0795 267.912 80.3523 268.105 80.5682C268.301 80.7812 268.548 80.9403 268.847 81.0455C269.148 81.1477 269.472 81.1989 269.818 81.1989C270.222 81.1989 270.584 81.1335 270.905 81.0028C271.226 80.8693 271.48 80.6847 271.668 80.4489C271.855 80.2102 271.949 79.9318 271.949 79.6136C271.949 79.3239 271.868 79.0881 271.706 78.9062C271.544 78.7244 271.331 78.5767 271.067 78.4631C270.803 78.3494 270.517 78.25 270.21 78.1648L269.136 77.858C268.455 77.6619 267.915 77.3821 267.517 77.0185C267.119 76.6548 266.92 76.179 266.92 75.5909C266.92 75.1023 267.053 74.6761 267.317 74.3125C267.584 73.946 267.942 73.6619 268.391 73.4602C268.842 73.2557 269.347 73.1534 269.903 73.1534C270.466 73.1534 270.966 73.2543 271.403 73.456C271.841 73.6548 272.188 73.9276 272.443 74.2741C272.702 74.6207 272.838 75.0142 272.852 75.4545H271.83Z" fill="#101219"/>
<rect x="27" y="91" width="28" height="28" rx="6" fill="#3B68FF"/>
<rect x="65" y="91" width="28" height="28" rx="6" fill="#D3DCFB"/>
<rect x="103" y="91" width="28" height="28" rx="6" fill="#3B68FF"/>
<rect x="141" y="91" width="28" height="28" rx="6" fill="#3B68FF"/>
<rect x="179" y="91" width="28" height="28" rx="6" fill="#D3DCFB"/>
<rect x="217" y="91" width="28" height="28" rx="6" fill="#3B68FF"/>
<rect x="255" y="91" width="28" height="28" rx="6" fill="#3B68FF"/>
<rect x="27" y="131" width="28" height="28" rx="6" fill="#3B68FF"/>
<rect x="65" y="131" width="28" height="28" rx="6" fill="#3B68FF"/>
<rect x="103" y="131" width="28" height="28" rx="6" fill="#D3DCFB"/>
<rect x="141" y="131" width="28" height="28" rx="6" fill="#D3DCFB"/>
<rect x="179" y="131" width="28" height="28" rx="6" fill="#3B68FF"/>
<rect x="217" y="131" width="28" height="28" rx="6" fill="#3B68FF"/>
<rect x="255" y="131" width="28" height="28" rx="6" fill="#3B68FF"/>
<rect x="27" y="171" width="28" height="28" rx="6" fill="#3B68FF"/>
<rect x="65" y="171" width="28" height="28" rx="6" fill="#3B68FF"/>
<rect x="103" y="171" width="28" height="28" rx="6" fill="#3B68FF"/>
<rect x="141" y="171" width="28" height="28" rx="6" fill="#3B68FF"/>
<rect x="179" y="171" width="28" height="28" rx="6" fill="#3B68FF"/>
<rect x="217" y="171" width="28" height="28" rx="6" fill="#D3DCFB"/>
<rect x="255" y="171" width="28" height="28" rx="6" fill="#3B68FF"/>
<path d="M27.8054 220.153C28.223 220.156 28.6293 220.23 29.0241 220.375C29.4219 220.517 29.7798 220.75 30.098 221.074C30.4162 221.395 30.669 221.825 30.8565 222.365C31.044 222.905 31.1378 223.572 31.1378 224.368C31.1406 225.118 31.0611 225.788 30.8991 226.379C30.7401 226.967 30.5114 227.464 30.2131 227.871C29.9148 228.277 29.5554 228.587 29.1349 228.8C28.7145 229.013 28.2415 229.119 27.7159 229.119C27.1648 229.119 26.6761 229.011 26.25 228.795C25.8267 228.58 25.4844 228.284 25.223 227.909C24.9616 227.534 24.8011 227.105 24.7415 226.622H26.2969C26.3764 226.969 26.5384 227.244 26.7827 227.449C27.0298 227.651 27.3409 227.751 27.7159 227.751C28.321 227.751 28.7869 227.489 29.1136 226.963C29.4403 226.437 29.6037 225.707 29.6037 224.773H29.544C29.4048 225.023 29.2244 225.239 29.0028 225.42C28.7813 225.599 28.5298 225.737 28.2486 225.834C27.9702 225.93 27.6747 225.979 27.3622 225.979C26.8509 225.979 26.3906 225.857 25.9815 225.612C25.5753 225.368 25.2528 225.033 25.0142 224.607C24.7784 224.18 24.6591 223.693 24.6562 223.145C24.6562 222.577 24.7869 222.067 25.0483 221.615C25.3125 221.161 25.6804 220.803 26.152 220.541C26.6236 220.277 27.1747 220.148 27.8054 220.153ZM27.8097 221.432C27.5028 221.432 27.2259 221.507 26.9787 221.658C26.7344 221.805 26.5412 222.007 26.3991 222.263C26.2599 222.516 26.1903 222.798 26.1903 223.111C26.1932 223.42 26.2628 223.702 26.3991 223.955C26.5384 224.207 26.7273 224.408 26.9659 224.555C27.2074 224.703 27.483 224.777 27.7926 224.777C28.0227 224.777 28.2372 224.733 28.4361 224.645C28.6349 224.557 28.8082 224.435 28.956 224.278C29.1065 224.119 29.223 223.939 29.3054 223.737C29.3906 223.536 29.4318 223.322 29.429 223.098C29.429 222.8 29.358 222.524 29.2159 222.271C29.0767 222.018 28.8849 221.815 28.6406 221.662C28.3991 221.509 28.1222 221.432 27.8097 221.432ZM35.7827 229.166C35.081 229.166 34.4787 228.989 33.9759 228.634C33.4759 228.276 33.0909 227.76 32.821 227.087C32.554 226.411 32.4205 225.597 32.4205 224.645C32.4233 223.693 32.5582 222.884 32.8253 222.216C33.0952 221.545 33.4801 221.034 33.9801 220.682C34.483 220.33 35.0838 220.153 35.7827 220.153C36.4815 220.153 37.0824 220.33 37.5852 220.682C38.0881 221.034 38.473 221.545 38.7401 222.216C39.0099 222.886 39.1449 223.696 39.1449 224.645C39.1449 225.599 39.0099 226.415 38.7401 227.091C38.473 227.764 38.0881 228.278 37.5852 228.634C37.0852 228.989 36.4844 229.166 35.7827 229.166ZM35.7827 227.832C36.3281 227.832 36.7585 227.564 37.0739 227.027C37.392 226.487 37.5511 225.693 37.5511 224.645C37.5511 223.952 37.4787 223.369 37.3338 222.898C37.1889 222.426 36.9844 222.071 36.7202 221.832C36.456 221.591 36.1435 221.47 35.7827 221.47C35.2401 221.47 34.8111 221.74 34.4957 222.28C34.1804 222.817 34.0213 223.605 34.0185 224.645C34.0156 225.341 34.0852 225.926 34.2273 226.401C34.3722 226.875 34.5767 227.233 34.8409 227.474C35.1051 227.713 35.419 227.832 35.7827 227.832ZM45.2269 227.364V226.903C45.2269 226.565 45.2979 226.254 45.44 225.97C45.5849 225.686 45.7951 225.457 46.0707 225.284C46.3462 225.111 46.68 225.024 47.0721 225.024C47.4755 225.024 47.8136 225.111 48.0863 225.284C48.359 225.455 48.565 225.682 48.7042 225.966C48.8462 226.25 48.9173 226.562 48.9173 226.903V227.364C48.9173 227.702 48.8462 228.013 48.7042 228.297C48.5621 228.581 48.3533 228.81 48.0778 228.983C47.805 229.156 47.4698 229.243 47.0721 229.243C46.6744 229.243 46.3377 229.156 46.0621 228.983C45.7866 228.81 45.5778 228.581 45.4357 228.297C45.2965 228.013 45.2269 227.702 45.2269 227.364ZM46.3391 226.903V227.364C46.3391 227.588 46.3931 227.794 46.5011 227.982C46.609 228.169 46.7994 228.263 47.0721 228.263C47.3477 228.263 47.5366 228.17 47.6388 227.986C47.744 227.798 47.7965 227.591 47.7965 227.364V226.903C47.7965 226.676 47.7468 226.469 47.6474 226.281C47.5479 226.091 47.3562 225.996 47.0721 225.996C46.805 225.996 46.6161 226.091 46.5053 226.281C46.3945 226.469 46.3391 226.676 46.3391 226.903ZM40.7908 222.369V221.909C40.7908 221.568 40.8633 221.256 41.0082 220.972C41.1531 220.687 41.3633 220.46 41.6388 220.29C41.9144 220.116 42.2482 220.03 42.6403 220.03C43.0408 220.03 43.3775 220.116 43.6502 220.29C43.9258 220.46 44.1332 220.687 44.2724 220.972C44.4116 221.256 44.4812 221.568 44.4812 221.909V222.369C44.4812 222.71 44.4102 223.023 44.2681 223.307C44.1289 223.588 43.9215 223.814 43.646 223.984C43.3704 224.155 43.0352 224.24 42.6403 224.24C42.2397 224.24 41.9016 224.155 41.6261 223.984C41.3533 223.814 41.146 223.587 41.0039 223.303C40.8619 223.018 40.7908 222.707 40.7908 222.369ZM41.9116 221.909V222.369C41.9116 222.597 41.9641 222.804 42.0692 222.991C42.1772 223.176 42.3675 223.268 42.6403 223.268C42.913 223.268 43.1005 223.176 43.2028 222.991C43.3079 222.804 43.3604 222.597 43.3604 222.369V221.909C43.3604 221.682 43.3107 221.474 43.2113 221.287C43.1119 221.097 42.9215 221.001 42.6403 221.001C42.3704 221.001 42.1815 221.097 42.0735 221.287C41.9656 221.477 41.9116 221.685 41.9116 221.909ZM41.2766 229L47.2766 220.273H48.342L42.342 229H41.2766ZM56.8647 229.136C56.2511 229.136 55.7227 228.991 55.2795 228.702C54.8363 228.412 54.4954 228.013 54.2567 227.504C54.0181 226.996 53.8988 226.415 53.8988 225.761C53.8988 225.097 54.021 224.51 54.2653 224.001C54.5124 223.49 54.8562 223.091 55.2965 222.804C55.7397 222.514 56.2567 222.369 56.8477 222.369C57.3079 222.369 57.7227 222.455 58.092 222.625C58.4613 222.795 58.7638 223.034 58.9996 223.341C59.2354 223.648 59.3817 224.006 59.4386 224.415H58.4329C58.3562 224.116 58.1857 223.852 57.9215 223.622C57.6602 223.389 57.3079 223.273 56.8647 223.273C56.4727 223.273 56.1289 223.375 55.8335 223.58C55.5408 223.781 55.3121 224.067 55.1474 224.436C54.9854 224.803 54.9045 225.233 54.9045 225.727C54.9045 226.233 54.984 226.673 55.1431 227.048C55.305 227.423 55.5323 227.714 55.8249 227.922C56.1204 228.129 56.467 228.233 56.8647 228.233C57.1261 228.233 57.3633 228.188 57.5763 228.097C57.7894 228.006 57.9698 227.875 58.1175 227.705C58.2653 227.534 58.3704 227.33 58.4329 227.091H59.4386C59.3817 227.477 59.2411 227.825 59.0167 228.135C58.7951 228.442 58.5011 228.686 58.1346 228.868C57.771 229.047 57.3477 229.136 56.8647 229.136ZM63.5678 229.136C62.9769 229.136 62.4585 228.996 62.0124 228.714C61.5692 228.433 61.2227 228.04 60.9727 227.534C60.7255 227.028 60.6019 226.437 60.6019 225.761C60.6019 225.08 60.7255 224.484 60.9727 223.976C61.2227 223.467 61.5692 223.072 62.0124 222.791C62.4585 222.51 62.9769 222.369 63.5678 222.369C64.1587 222.369 64.6758 222.51 65.119 222.791C65.565 223.072 65.9116 223.467 66.1587 223.976C66.4087 224.484 66.5337 225.08 66.5337 225.761C66.5337 226.437 66.4087 227.028 66.1587 227.534C65.9116 228.04 65.565 228.433 65.119 228.714C64.6758 228.996 64.1587 229.136 63.5678 229.136ZM63.5678 228.233C64.0167 228.233 64.386 228.118 64.6758 227.888C64.9656 227.658 65.18 227.355 65.3192 226.98C65.4585 226.605 65.5281 226.199 65.5281 225.761C65.5281 225.324 65.4585 224.916 65.3192 224.538C65.18 224.161 64.9656 223.855 64.6758 223.622C64.386 223.389 64.0167 223.273 63.5678 223.273C63.119 223.273 62.7496 223.389 62.4599 223.622C62.1701 223.855 61.9556 224.161 61.8164 224.538C61.6772 224.916 61.6076 225.324 61.6076 225.761C61.6076 226.199 61.6772 226.605 61.8164 226.98C61.9556 227.355 62.1701 227.658 62.4599 227.888C62.7496 228.118 63.119 228.233 63.5678 228.233ZM68.0689 229V222.455H69.0405V223.477H69.1257C69.2621 223.128 69.4822 222.857 69.7862 222.663C70.0902 222.467 70.4553 222.369 70.8814 222.369C71.3132 222.369 71.6726 222.467 71.9595 222.663C72.2493 222.857 72.4751 223.128 72.6371 223.477H72.7053C72.8729 223.139 73.1243 222.871 73.4595 222.672C73.7947 222.47 74.1967 222.369 74.6655 222.369C75.2507 222.369 75.7294 222.553 76.1016 222.919C76.4737 223.283 76.6598 223.849 76.6598 224.619V229H75.6541V224.619C75.6541 224.136 75.522 223.791 75.2578 223.584C74.9936 223.376 74.6825 223.273 74.3246 223.273C73.8643 223.273 73.5078 223.412 73.255 223.69C73.0021 223.966 72.8757 224.315 72.8757 224.739V229H71.853V224.517C71.853 224.145 71.7322 223.845 71.4908 223.618C71.2493 223.388 70.9382 223.273 70.5575 223.273C70.2962 223.273 70.0518 223.342 69.8246 223.482C69.6001 223.621 69.4183 223.814 69.2791 224.061C69.1428 224.305 69.0746 224.588 69.0746 224.909V229H68.0689ZM78.4986 231.455V222.455H79.4702V223.494H79.5895C79.6634 223.381 79.7656 223.236 79.8963 223.06C80.0298 222.881 80.2202 222.722 80.4673 222.582C80.7173 222.44 81.0554 222.369 81.4815 222.369C82.0327 222.369 82.5185 222.507 82.9389 222.783C83.3594 223.058 83.6875 223.449 83.9233 223.955C84.1591 224.46 84.277 225.057 84.277 225.744C84.277 226.438 84.1591 227.038 83.9233 227.547C83.6875 228.053 83.3608 228.445 82.9432 228.723C82.5256 228.999 82.044 229.136 81.4986 229.136C81.0781 229.136 80.7415 229.067 80.4886 228.928C80.2358 228.786 80.0412 228.625 79.9048 228.446C79.7685 228.264 79.6634 228.114 79.5895 227.994H79.5043V231.455H78.4986ZM79.4872 225.727C79.4872 226.222 79.5597 226.658 79.7045 227.036C79.8494 227.411 80.0611 227.705 80.3395 227.918C80.6179 228.128 80.9588 228.233 81.3622 228.233C81.7827 228.233 82.1335 228.122 82.4148 227.901C82.6989 227.676 82.9119 227.375 83.054 226.997C83.1989 226.616 83.2713 226.193 83.2713 225.727C83.2713 225.267 83.2003 224.852 83.0582 224.483C82.919 224.111 82.7074 223.817 82.4233 223.601C82.142 223.382 81.7884 223.273 81.3622 223.273C80.9531 223.273 80.6094 223.376 80.331 223.584C80.0526 223.788 79.8423 224.075 79.7003 224.445C79.5582 224.811 79.4872 225.239 79.4872 225.727ZM86.8168 220.273V229H85.8111V220.273H86.8168ZM91.4031 229.136C90.7724 229.136 90.2283 228.997 89.771 228.719C89.3164 228.438 88.9656 228.045 88.7184 227.543C88.4741 227.037 88.3519 226.449 88.3519 225.778C88.3519 225.108 88.4741 224.517 88.7184 224.006C88.9656 223.491 89.3093 223.091 89.7496 222.804C90.1928 222.514 90.7099 222.369 91.3008 222.369C91.6417 222.369 91.9783 222.426 92.3107 222.54C92.6431 222.653 92.9457 222.838 93.2184 223.094C93.4911 223.347 93.7085 223.682 93.8704 224.099C94.0323 224.517 94.1133 225.031 94.1133 225.642V226.068H89.0678V225.199H93.0906C93.0906 224.83 93.0167 224.5 92.869 224.21C92.7241 223.92 92.5167 223.692 92.2468 223.524C91.9798 223.357 91.6644 223.273 91.3008 223.273C90.9002 223.273 90.5536 223.372 90.261 223.571C89.9712 223.767 89.7482 224.023 89.592 224.338C89.4357 224.653 89.3576 224.991 89.3576 225.352V225.932C89.3576 226.426 89.4428 226.845 89.6133 227.189C89.7866 227.53 90.0266 227.79 90.3335 227.969C90.6403 228.145 90.9968 228.233 91.4031 228.233C91.6673 228.233 91.9059 228.196 92.119 228.122C92.3349 228.045 92.521 227.932 92.6772 227.781C92.8335 227.628 92.9542 227.437 93.0394 227.21L94.011 227.483C93.9087 227.812 93.7369 228.102 93.4954 228.352C93.2539 228.599 92.9556 228.793 92.6005 228.932C92.2454 229.068 91.8462 229.136 91.4031 229.136ZM98.4897 222.455V223.307H95.0977V222.455H98.4897ZM96.0863 220.886H97.092V227.125C97.092 227.409 97.1332 227.622 97.2156 227.764C97.3008 227.903 97.4087 227.997 97.5394 228.045C97.6729 228.091 97.8136 228.114 97.9613 228.114C98.0721 228.114 98.163 228.108 98.234 228.097C98.305 228.082 98.3619 228.071 98.4045 228.062L98.609 228.966C98.5408 228.991 98.4457 229.017 98.3235 229.043C98.2013 229.071 98.0465 229.085 97.859 229.085C97.5749 229.085 97.2965 229.024 97.0238 228.902C96.7539 228.78 96.5295 228.594 96.3505 228.344C96.1744 228.094 96.0863 227.778 96.0863 227.398V220.886ZM102.676 229.136C102.046 229.136 101.502 228.997 101.044 228.719C100.59 228.438 100.239 228.045 99.9918 227.543C99.7475 227.037 99.6254 226.449 99.6254 225.778C99.6254 225.108 99.7475 224.517 99.9918 224.006C100.239 223.491 100.583 223.091 101.023 222.804C101.466 222.514 101.983 222.369 102.574 222.369C102.915 222.369 103.252 222.426 103.584 222.54C103.917 222.653 104.219 222.838 104.492 223.094C104.765 223.347 104.982 223.682 105.144 224.099C105.306 224.517 105.387 225.031 105.387 225.642V226.068H100.341V225.199H104.364C104.364 224.83 104.29 224.5 104.142 224.21C103.998 223.92 103.79 223.692 103.52 223.524C103.253 223.357 102.938 223.273 102.574 223.273C102.174 223.273 101.827 223.372 101.534 223.571C101.245 223.767 101.022 224.023 100.865 224.338C100.709 224.653 100.631 224.991 100.631 225.352V225.932C100.631 226.426 100.716 226.845 100.887 227.189C101.06 227.53 101.3 227.79 101.607 227.969C101.914 228.145 102.27 228.233 102.676 228.233C102.941 228.233 103.179 228.196 103.392 228.122C103.608 228.045 103.794 227.932 103.951 227.781C104.107 227.628 104.228 227.437 104.313 227.21L105.284 227.483C105.182 227.812 105.01 228.102 104.769 228.352C104.527 228.599 104.229 228.793 103.874 228.932C103.519 229.068 103.12 229.136 102.676 229.136ZM109.388 229.136C108.843 229.136 108.361 228.999 107.944 228.723C107.526 228.445 107.199 228.053 106.963 227.547C106.728 227.038 106.61 226.438 106.61 225.744C106.61 225.057 106.728 224.46 106.963 223.955C107.199 223.449 107.527 223.058 107.948 222.783C108.368 222.507 108.854 222.369 109.405 222.369C109.831 222.369 110.168 222.44 110.415 222.582C110.665 222.722 110.855 222.881 110.986 223.06C111.12 223.236 111.223 223.381 111.297 223.494H111.382V220.273H112.388V229H111.417V227.994H111.297C111.223 228.114 111.118 228.264 110.982 228.446C110.846 228.625 110.651 228.786 110.398 228.928C110.145 229.067 109.809 229.136 109.388 229.136ZM109.525 228.233C109.928 228.233 110.269 228.128 110.547 227.918C110.826 227.705 111.037 227.411 111.182 227.036C111.327 226.658 111.4 226.222 111.4 225.727C111.4 225.239 111.328 224.811 111.186 224.445C111.044 224.075 110.834 223.788 110.556 223.584C110.277 223.376 109.934 223.273 109.525 223.273C109.098 223.273 108.743 223.382 108.459 223.601C108.178 223.817 107.966 224.111 107.824 224.483C107.685 224.852 107.615 225.267 107.615 225.727C107.615 226.193 107.686 226.616 107.828 226.997C107.973 227.375 108.186 227.676 108.468 227.901C108.752 228.122 109.104 228.233 109.525 228.233Z" fill="#101219"/>
<path d="M222.814 220.273V229H221.233V221.811H221.181L219.14 223.115V221.666L221.309 220.273H222.814ZM228.579 220.273V229H226.998V221.811H226.947L224.906 223.115V221.666L227.075 220.273H228.579ZM236.616 229.115C236.102 229.115 235.642 228.983 235.235 228.719C234.829 228.455 234.508 228.071 234.272 227.568C234.037 227.065 233.919 226.455 233.919 225.736C233.919 225.009 234.038 224.395 234.277 223.895C234.518 223.392 234.843 223.013 235.252 222.757C235.662 222.499 236.118 222.369 236.62 222.369C237.004 222.369 237.319 222.435 237.566 222.565C237.814 222.693 238.01 222.848 238.154 223.03C238.299 223.209 238.412 223.378 238.491 223.537H238.555V220.273H240.102V229H238.585V227.969H238.491C238.412 228.128 238.297 228.297 238.146 228.476C237.995 228.652 237.797 228.803 237.549 228.928C237.302 229.053 236.991 229.115 236.616 229.115ZM237.047 227.849C237.373 227.849 237.652 227.761 237.882 227.585C238.112 227.406 238.287 227.158 238.406 226.839C238.525 226.521 238.585 226.151 238.585 225.727C238.585 225.304 238.525 224.936 238.406 224.624C238.289 224.311 238.116 224.068 237.886 223.895C237.659 223.722 237.379 223.635 237.047 223.635C236.703 223.635 236.416 223.724 236.186 223.903C235.956 224.082 235.782 224.33 235.666 224.645C235.549 224.96 235.491 225.321 235.491 225.727C235.491 226.136 235.549 226.501 235.666 226.822C235.785 227.141 235.96 227.392 236.19 227.577C236.423 227.759 236.708 227.849 237.047 227.849ZM243.629 229.132C243.214 229.132 242.841 229.058 242.509 228.911C242.179 228.76 241.918 228.538 241.724 228.246C241.534 227.953 241.439 227.592 241.439 227.163C241.439 226.794 241.507 226.489 241.643 226.247C241.78 226.006 241.966 225.812 242.202 225.668C242.438 225.523 242.703 225.413 242.999 225.339C243.297 225.263 243.605 225.207 243.923 225.173C244.307 225.134 244.618 225.098 244.857 225.067C245.095 225.033 245.268 224.982 245.376 224.913C245.487 224.842 245.543 224.733 245.543 224.585V224.56C245.543 224.239 245.447 223.99 245.257 223.814C245.067 223.638 244.793 223.55 244.435 223.55C244.057 223.55 243.757 223.632 243.536 223.797C243.317 223.962 243.169 224.156 243.092 224.381L241.652 224.176C241.766 223.778 241.953 223.446 242.214 223.179C242.476 222.909 242.795 222.707 243.173 222.574C243.551 222.438 243.969 222.369 244.426 222.369C244.741 222.369 245.055 222.406 245.368 222.48C245.68 222.554 245.966 222.676 246.224 222.847C246.483 223.014 246.69 223.243 246.847 223.533C247.006 223.822 247.085 224.185 247.085 224.619V229H245.602V228.101H245.551C245.457 228.283 245.325 228.453 245.155 228.612C244.987 228.768 244.776 228.895 244.52 228.991C244.267 229.085 243.97 229.132 243.629 229.132ZM244.03 227.999C244.339 227.999 244.608 227.937 244.835 227.815C245.063 227.69 245.237 227.526 245.359 227.321C245.484 227.116 245.547 226.893 245.547 226.652V225.881C245.499 225.92 245.416 225.957 245.3 225.991C245.186 226.026 245.058 226.055 244.916 226.081C244.774 226.107 244.634 226.129 244.494 226.149C244.355 226.169 244.234 226.186 244.132 226.2C243.902 226.232 243.696 226.283 243.514 226.354C243.332 226.425 243.189 226.524 243.084 226.652C242.979 226.777 242.926 226.939 242.926 227.138C242.926 227.422 243.03 227.636 243.237 227.781C243.445 227.926 243.709 227.999 244.03 227.999ZM249.361 231.455C249.151 231.455 248.956 231.438 248.777 231.403C248.601 231.372 248.46 231.335 248.355 231.293L248.713 230.091C248.938 230.156 249.138 230.188 249.314 230.185C249.49 230.182 249.645 230.126 249.778 230.018C249.915 229.913 250.03 229.737 250.124 229.49L250.256 229.136L247.882 222.455H249.518L251.027 227.398H251.095L252.608 222.455H254.249L251.628 229.793C251.506 230.139 251.344 230.436 251.142 230.683C250.94 230.933 250.693 231.124 250.401 231.254C250.111 231.388 249.764 231.455 249.361 231.455ZM260.489 224.185L259.083 224.338C259.043 224.196 258.974 224.062 258.874 223.938C258.778 223.812 258.647 223.712 258.482 223.635C258.317 223.558 258.116 223.52 257.877 223.52C257.556 223.52 257.286 223.589 257.067 223.729C256.852 223.868 256.745 224.048 256.748 224.27C256.745 224.46 256.815 224.615 256.957 224.734C257.102 224.854 257.34 224.952 257.673 225.028L258.789 225.267C259.408 225.401 259.869 225.612 260.17 225.902C260.474 226.192 260.627 226.571 260.63 227.04C260.627 227.452 260.506 227.815 260.268 228.131C260.032 228.443 259.704 228.687 259.283 228.864C258.863 229.04 258.38 229.128 257.835 229.128C257.033 229.128 256.388 228.96 255.9 228.625C255.411 228.287 255.12 227.817 255.026 227.214L256.531 227.07C256.599 227.365 256.744 227.588 256.965 227.739C257.187 227.889 257.475 227.964 257.83 227.964C258.197 227.964 258.491 227.889 258.712 227.739C258.937 227.588 259.049 227.402 259.049 227.18C259.049 226.993 258.977 226.838 258.832 226.716C258.69 226.594 258.468 226.5 258.167 226.435L257.05 226.2C256.423 226.07 255.958 225.849 255.657 225.54C255.356 225.227 255.207 224.832 255.21 224.355C255.207 223.952 255.316 223.602 255.538 223.307C255.762 223.009 256.073 222.778 256.471 222.616C256.871 222.452 257.333 222.369 257.856 222.369C258.623 222.369 259.227 222.533 259.667 222.859C260.11 223.186 260.384 223.628 260.489 224.185ZM266.411 220.273V229H265.405V220.273H266.411ZM270.997 229.136C270.366 229.136 269.822 228.997 269.365 228.719C268.91 228.438 268.559 228.045 268.312 227.543C268.068 227.037 267.946 226.449 267.946 225.778C267.946 225.108 268.068 224.517 268.312 224.006C268.559 223.491 268.903 223.091 269.343 222.804C269.787 222.514 270.304 222.369 270.895 222.369C271.235 222.369 271.572 222.426 271.904 222.54C272.237 222.653 272.539 222.838 272.812 223.094C273.085 223.347 273.302 223.682 273.464 224.099C273.626 224.517 273.707 225.031 273.707 225.642V226.068H268.662V225.199H272.684C272.684 224.83 272.61 224.5 272.463 224.21C272.318 223.92 272.11 223.692 271.841 223.524C271.574 223.357 271.258 223.273 270.895 223.273C270.494 223.273 270.147 223.372 269.855 223.571C269.565 223.767 269.342 224.023 269.186 224.338C269.029 224.653 268.951 224.991 268.951 225.352V225.932C268.951 226.426 269.037 226.845 269.207 227.189C269.38 227.53 269.62 227.79 269.927 227.969C270.234 228.145 270.591 228.233 270.997 228.233C271.261 228.233 271.5 228.196 271.713 228.122C271.929 228.045 272.115 227.932 272.271 227.781C272.427 227.628 272.548 227.437 272.633 227.21L273.605 227.483C273.502 227.812 273.331 228.102 273.089 228.352C272.848 228.599 272.549 228.793 272.194 228.932C271.839 229.068 271.44 229.136 270.997 229.136ZM278.152 222.455V223.307H274.623V222.455H278.152ZM275.68 229V221.551C275.68 221.176 275.768 220.864 275.944 220.614C276.12 220.364 276.349 220.176 276.63 220.051C276.912 219.926 277.208 219.864 277.521 219.864C277.768 219.864 277.97 219.884 278.126 219.923C278.282 219.963 278.399 220 278.475 220.034L278.186 220.903C278.135 220.886 278.064 220.865 277.973 220.839C277.885 220.814 277.768 220.801 277.623 220.801C277.291 220.801 277.051 220.885 276.903 221.053C276.758 221.22 276.686 221.466 276.686 221.79V229H275.68ZM282.408 222.455V223.307H279.016V222.455H282.408ZM280.004 220.886H281.01V227.125C281.01 227.409 281.051 227.622 281.134 227.764C281.219 227.903 281.327 227.997 281.457 228.045C281.591 228.091 281.732 228.114 281.879 228.114C281.99 228.114 282.081 228.108 282.152 228.097C282.223 228.082 282.28 228.071 282.322 228.062L282.527 228.966C282.459 228.991 282.364 229.017 282.241 229.043C282.119 229.071 281.964 229.085 281.777 229.085C281.493 229.085 281.214 229.024 280.942 228.902C280.672 228.78 280.447 228.594 280.268 228.344C280.092 228.094 280.004 227.778 280.004 227.398V220.886Z" fill="#101219"/>
</svg>
