<svg width="24" height="24" viewBox="0 0 24 24" fill="none" xmlns="http://www.w3.org/2000/svg">
<rect width="24" height="24" rx="6" fill="white"/>
<rect x="0.5" y="0.5" width="23" height="23" rx="5.5" stroke="#919295" stroke-opacity="0.2"/>
<path d="M16.8249 16.3126C16.792 16.3696 16.7447 16.4169 16.6877 16.4498C16.6306 16.4827 16.5659 16.5001 16.5001 16.5001H7.5001C7.43431 16.5 7.36969 16.4826 7.31274 16.4497C7.25578 16.4167 7.2085 16.3694 7.17563 16.3124C7.14277 16.2554 7.12547 16.1908 7.12549 16.125C7.12551 16.0592 7.14283 15.9945 7.17573 15.9376C7.88964 14.7033 8.98979 13.8183 10.2737 13.3988C9.63862 13.0207 9.1452 12.4447 8.86922 11.759C8.59324 11.0734 8.54996 10.3161 8.74601 9.6035C8.94207 8.89089 9.36663 8.26233 9.95449 7.81436C10.5424 7.36639 11.261 7.12378 12.0001 7.12378C12.7392 7.12378 13.4579 7.36639 14.0457 7.81436C14.6336 8.26233 15.0581 8.89089 15.2542 9.6035C15.4503 10.3161 15.407 11.0734 15.131 11.759C14.855 12.4447 14.3616 13.0207 13.7265 13.3988C15.0104 13.8183 16.1106 14.7033 16.8245 15.9376C16.8575 15.9945 16.8749 16.0592 16.875 16.125C16.875 16.1908 16.8578 16.2555 16.8249 16.3126Z" fill="#5F6065"/>
</svg>
