<svg width="12" height="12" viewBox="0 0 12 12" fill="none" xmlns="http://www.w3.org/2000/svg">
<rect width="12" height="12" fill="#36363D"/>
<g clip-path="url(#clip0_1_3)">
<rect width="1440" height="6966" transform="translate(-118 -3258)" fill="white"/>
<rect x="-54" y="-38" width="416" height="601" rx="12" fill="white"/>
<rect x="-53.5" y="-37.5" width="415" height="600" rx="11.5" stroke="#919295" stroke-opacity="0.2"/>
<rect x="-38" y="-22" width="384" height="113" rx="8" fill="#F9F9FA"/>
<rect x="-37.5" y="-21.5" width="383" height="112" rx="7.5" stroke="#919295" stroke-opacity="0.2"/>
<rect x="-6" y="-6" width="24" height="24" rx="6" fill="white"/>
<rect x="-5.5" y="-5.5" width="23" height="23" rx="5.5" stroke="#919295" stroke-opacity="0.2"/>
<path d="M10.8249 10.3126C10.792 10.3696 10.7447 10.4169 10.6877 10.4498C10.6306 10.4827 10.5659 10.5001 10.5001 10.5001H1.5001C1.43431 10.5 1.36969 10.4826 1.31274 10.4497C1.25578 10.4167 1.2085 10.3694 1.17563 10.3124C1.14277 10.2554 1.12547 10.1908 1.12549 10.125C1.12551 10.0592 1.14283 9.99453 1.17573 9.93755C1.88964 8.70334 2.98979 7.81834 4.2737 7.3988C3.63862 7.02074 3.1452 6.44465 2.86922 5.75902C2.59324 5.07339 2.54996 4.31612 2.74601 3.6035C2.94207 2.89089 3.36663 2.26233 3.95449 1.81436C4.54235 1.36639 5.26101 1.12378 6.0001 1.12378C6.7392 1.12378 7.45786 1.36639 8.04572 1.81436C8.63358 2.26233 9.05814 2.89089 9.25419 3.6035C9.45025 4.31612 9.40697 5.07339 9.13099 5.75902C8.855 6.44465 8.36159 7.02074 7.72651 7.3988C9.01042 7.81834 10.1106 8.70334 10.8245 9.93755C10.8575 9.99452 10.8749 10.0592 10.875 10.125C10.875 10.1908 10.8578 10.2555 10.8249 10.3126Z" fill="#5F6065"/>
</g>
<defs>
<clipPath id="clip0_1_3">
<rect width="1440" height="6966" fill="white" transform="translate(-118 -3258)"/>
</clipPath>
</defs>
</svg>
