<svg width="24" height="24" viewBox="0 0 24 24" fill="none" xmlns="http://www.w3.org/2000/svg">
<rect width="24" height="24" rx="6" fill="#7C9AFF"/>
<rect x="0.5" y="0.5" width="23" height="23" rx="5.5" stroke="#919295" stroke-opacity="0.2"/>
<path d="M13.7094 15.1701C13.7463 15.2267 13.7673 15.2922 13.77 15.3596C13.7728 15.4271 13.7572 15.4941 13.7251 15.5535C13.6929 15.6129 13.6453 15.6625 13.5873 15.6971C13.5292 15.7317 13.4629 15.7499 13.3954 15.7499H6.47945C6.4119 15.7499 6.34561 15.7317 6.28757 15.6971C6.22954 15.6625 6.18192 15.6129 6.14975 15.5535C6.11758 15.4941 6.10205 15.4271 6.1048 15.3596C6.10755 15.2922 6.12849 15.2267 6.16538 15.1701C6.69325 14.3576 7.46968 13.7375 8.37882 13.4024C7.87623 13.0678 7.49465 12.5804 7.29052 12.0121C7.0864 11.4439 7.07055 10.8251 7.24533 10.2471C7.42012 9.66919 7.77624 9.16284 8.26106 8.80296C8.74587 8.44309 9.33363 8.24878 9.93742 8.24878C10.5412 8.24878 11.129 8.44309 11.6138 8.80296C12.0986 9.16284 12.4547 9.66919 12.6295 10.2471C12.8043 10.8251 12.7884 11.4439 12.5843 12.0121C12.3802 12.5804 11.9986 13.0678 11.496 13.4024C12.4052 13.7375 13.1816 14.3576 13.7094 15.1701ZM17.8302 15.163C17.3022 14.3539 16.5275 13.7366 15.621 13.4024C16.2143 13.0027 16.6331 12.392 16.792 11.6945C16.9509 10.9969 16.838 10.2651 16.4763 9.64784C16.1146 9.03061 15.5313 8.57441 14.8451 8.37209C14.1589 8.16977 13.4214 8.23655 12.7827 8.55883C12.7583 8.57144 12.737 8.58926 12.7202 8.61104C12.7034 8.63282 12.6916 8.65802 12.6857 8.68485C12.6797 8.71169 12.6798 8.7395 12.6858 8.76633C12.6918 8.79315 12.7036 8.81833 12.7204 8.84008C13.1953 9.43249 13.4681 10.1614 13.4987 10.9201C13.5293 11.6787 13.3162 12.4273 12.8905 13.056C12.863 13.0971 12.8529 13.1474 12.8623 13.1959C12.8717 13.2445 12.8998 13.2874 12.9407 13.3152C13.4956 13.7025 13.9707 14.1932 14.3399 14.7604C14.4888 14.9884 14.5496 15.2628 14.511 15.5324C14.5067 15.5592 14.5082 15.5867 14.5155 15.6128C14.5228 15.639 14.5357 15.6633 14.5533 15.684C14.5709 15.7046 14.5928 15.7213 14.6175 15.7326C14.6422 15.744 14.669 15.7499 14.6962 15.7499H17.5227C17.6053 15.7499 17.6856 15.7227 17.7511 15.6725C17.8166 15.6222 17.8637 15.5517 17.8851 15.472C17.8981 15.4195 17.9 15.3649 17.8905 15.3117C17.8811 15.2584 17.8605 15.2078 17.8302 15.163Z" fill="#EBF0FF"/>
</svg>
