<svg width="24" height="24" viewBox="0 0 24 24" fill="none" xmlns="http://www.w3.org/2000/svg">
<rect width="24" height="24" rx="6" fill="white"/>
<rect x="0.5" y="0.5" width="23" height="23" rx="5.5" stroke="#919295" stroke-opacity="0.2"/>
<path d="M9.00539 12.9282C9.00666 12.9536 9.00275 12.979 8.9939 13.0028C8.98505 13.0267 8.97144 13.0485 8.9539 13.0669C8.93636 13.0853 8.91525 13.1 8.89187 13.11C8.86849 13.12 8.84332 13.1251 8.81789 13.1251H6.74976C6.66512 13.1252 6.58293 13.0967 6.51655 13.0442C6.45016 12.9917 6.4035 12.9182 6.38414 12.8359C6.37208 12.7795 6.37264 12.7211 6.38576 12.6649C6.39889 12.6088 6.42427 12.5562 6.46007 12.511C6.79092 12.0722 7.2299 11.7268 7.73414 11.5084C7.51276 11.3065 7.34297 11.0546 7.23898 10.7736C7.135 10.4926 7.09985 10.1909 7.13649 9.89353C7.17312 9.5962 7.28046 9.31197 7.44953 9.06466C7.6186 8.81734 7.84446 8.61414 8.10821 8.47206C8.37196 8.32999 8.66592 8.25318 8.96545 8.24808C9.26499 8.24297 9.56139 8.30971 9.82983 8.44271C10.0983 8.57571 10.3309 8.7711 10.5083 9.01251C10.6857 9.25391 10.8027 9.53432 10.8494 9.83023C10.8555 9.87002 10.8484 9.9107 10.8291 9.94607C10.8099 9.98143 10.7797 10.0096 10.743 10.0262C10.2229 10.2666 9.78242 10.6508 9.47353 11.1335C9.16464 11.6161 9.00025 12.177 8.99976 12.7501C8.99976 12.8101 8.99976 12.8691 9.00539 12.9282ZM17.5366 12.5105C17.2066 12.0723 16.7686 11.727 16.2654 11.5084C16.4868 11.3065 16.6566 11.0546 16.7605 10.7736C16.8645 10.4926 16.8997 10.1909 16.863 9.89353C16.8264 9.5962 16.7191 9.31197 16.55 9.06466C16.3809 8.81734 16.1551 8.61414 15.8913 8.47206C15.6276 8.32999 15.3336 8.25318 15.0341 8.24808C14.7345 8.24297 14.4381 8.30971 14.1697 8.44271C13.9013 8.57571 13.6686 8.7711 13.4912 9.01251C13.3138 9.25391 13.1968 9.53432 13.1501 9.83023C13.144 9.87002 13.1512 9.9107 13.1704 9.94607C13.1896 9.98143 13.2198 10.0096 13.2565 10.0262C13.7766 10.2666 14.2171 10.6508 14.526 11.1335C14.8349 11.6161 14.9993 12.177 14.9998 12.7501C14.9998 12.8101 14.9998 12.8691 14.9941 12.9282C14.9929 12.9536 14.9968 12.979 15.0056 13.0028C15.0145 13.0267 15.0281 13.0485 15.0456 13.0669C15.0632 13.0853 15.0843 13.1 15.1076 13.11C15.131 13.12 15.1562 13.1251 15.1816 13.1251H17.2498C17.3344 13.1252 17.4166 13.0967 17.483 13.0442C17.5494 12.9917 17.596 12.9182 17.6154 12.8359C17.6275 12.7794 17.627 12.7209 17.6137 12.6646C17.6005 12.6084 17.575 12.5557 17.539 12.5105H17.5366ZM13.3648 14.5346C13.7381 14.2486 14.0125 13.8529 14.1494 13.4029C14.2862 12.953 14.2786 12.4714 14.1276 12.026C13.9767 11.5806 13.6899 11.1937 13.3077 10.9197C12.9255 10.6457 12.467 10.4983 11.9967 10.4983C11.5264 10.4983 11.0679 10.6457 10.6857 10.9197C10.3035 11.1937 10.0168 11.5806 9.86578 12.026C9.71482 12.4714 9.70722 12.953 9.84406 13.4029C9.98089 13.8529 10.2553 14.2486 10.6287 14.5346C9.96611 14.8217 9.41285 15.3133 9.04992 15.9376C9.017 15.9946 8.99967 16.0593 8.99968 16.1251C8.99968 16.1909 9.01702 16.2556 9.04994 16.3126C9.08286 16.3696 9.13021 16.417 9.18723 16.4499C9.24425 16.4828 9.30893 16.5001 9.37476 16.5001H14.6248C14.6906 16.5001 14.7553 16.4828 14.8123 16.4499C14.8693 16.417 14.9167 16.3696 14.9496 16.3126C14.9825 16.2556 14.9998 16.1909 14.9998 16.1251C14.9998 16.0593 14.9825 15.9946 14.9496 15.9376C14.5859 15.3129 14.0316 14.8212 13.368 14.5346H13.3648Z" fill="#5F6065"/>
</svg>
